<svg id="SvgjsSvg1001" width="1387" height="843" xmlns="http://www.w3.org/2000/svg" version="1.1" xmlns:xlink="http://www.w3.org/1999/xlink" xmlns:svgjs="http://svgjs.com/svgjs"><defs id="SvgjsDefs1002"><marker id="SvgjsMarker1043" markerWidth="14" markerHeight="10" refX="10" refY="5" viewBox="0 0 14 10" orient="auto" markerUnits="userSpaceOnUse" stroke-dasharray="0,0"><path id="SvgjsPath1044" d="M0,0 L14,5 L0,10 L0,0" fill="#323232" stroke="#323232" stroke-width="1"></path></marker><marker id="SvgjsMarker1047" markerWidth="14" markerHeight="10" refX="10" refY="5" viewBox="0 0 14 10" orient="auto" markerUnits="userSpaceOnUse" stroke-dasharray="0,0"><path id="SvgjsPath1048" d="M0,0 L14,5 L0,10 L0,0" fill="#323232" stroke="#323232" stroke-width="1"></path></marker><marker id="SvgjsMarker1057" markerWidth="14" markerHeight="10" refX="10" refY="5" viewBox="0 0 14 10" orient="auto" markerUnits="userSpaceOnUse" stroke-dasharray="0,0"><path id="SvgjsPath1058" d="M0,0 L14,5 L0,10 L0,0" fill="#323232" stroke="#323232" stroke-width="1"></path></marker><marker id="SvgjsMarker1061" markerWidth="12" markerHeight="8" refX="9" refY="4" viewBox="0 0 12 8" orient="auto" markerUnits="userSpaceOnUse" stroke-dasharray="0,0"><path id="SvgjsPath1062" d="M0,0 L12,4 L0,8 L0,0" fill="#3399ff" stroke="#3399ff" stroke-width="1"></path></marker><marker id="SvgjsMarker1071" markerWidth="12" markerHeight="8" refX="9" refY="4" viewBox="0 0 12 8" orient="auto" markerUnits="userSpaceOnUse" stroke-dasharray="0,0"><path id="SvgjsPath1072" d="M0,0 L12,4 L0,8 L0,0" fill="#3399ff" stroke="#3399ff" stroke-width="1"></path></marker><marker id="SvgjsMarker1081" markerWidth="12" markerHeight="8" refX="9" refY="4" viewBox="0 0 12 8" orient="auto" markerUnits="userSpaceOnUse" stroke-dasharray="0,0"><path id="SvgjsPath1082" d="M0,0 L12,4 L0,8 L0,0" fill="#3399ff" stroke="#3399ff" stroke-width="1"></path></marker><marker id="SvgjsMarker1097" markerWidth="14" markerHeight="10" refX="10" refY="5" viewBox="0 0 14 10" orient="auto" markerUnits="userSpaceOnUse" stroke-dasharray="0,0"><path id="SvgjsPath1098" d="M0,0 L14,5 L0,10 L0,0" fill="#323232" stroke="#323232" stroke-width="1"></path></marker><marker id="SvgjsMarker1107" markerWidth="14" markerHeight="10" refX="10" refY="5" viewBox="0 0 14 10" orient="auto" markerUnits="userSpaceOnUse" stroke-dasharray="0,0"><path id="SvgjsPath1108" d="M0,0 L14,5 L0,10 L0,0" fill="#323232" stroke="#323232" stroke-width="1"></path></marker><marker id="SvgjsMarker1117" markerWidth="14" markerHeight="10" refX="10" refY="5" viewBox="0 0 14 10" orient="auto" markerUnits="userSpaceOnUse" stroke-dasharray="0,0"><path id="SvgjsPath1118" d="M0,0 L14,5 L0,10 L0,0" fill="#323232" stroke="#323232" stroke-width="1"></path></marker><marker id="SvgjsMarker1127" markerWidth="12" markerHeight="8" refX="9" refY="4" viewBox="0 0 12 8" orient="auto" markerUnits="userSpaceOnUse" stroke-dasharray="0,0"><path id="SvgjsPath1128" d="M0,0 L12,4 L0,8 L0,0" fill="#3399ff" stroke="#3399ff" stroke-width="1"></path></marker><marker id="SvgjsMarker1131" markerWidth="12" markerHeight="8" refX="9" refY="4" viewBox="0 0 12 8" orient="auto" markerUnits="userSpaceOnUse" stroke-dasharray="0,0"><path id="SvgjsPath1132" d="M0,0 L12,4 L0,8 L0,0" fill="#3399ff" stroke="#3399ff" stroke-width="1"></path></marker><marker id="SvgjsMarker1135" markerWidth="12" markerHeight="8" refX="9" refY="4" viewBox="0 0 12 8" orient="auto" markerUnits="userSpaceOnUse" stroke-dasharray="0,0"><path id="SvgjsPath1136" d="M0,0 L12,4 L0,8 L0,0" fill="#3399ff" stroke="#3399ff" stroke-width="1"></path></marker><marker id="SvgjsMarker1139" markerWidth="12" markerHeight="8" refX="9" refY="4" viewBox="0 0 12 8" orient="auto" markerUnits="userSpaceOnUse" stroke-dasharray="0,0"><path id="SvgjsPath1140" d="M0,0 L12,4 L0,8 L0,0" fill="#3399ff" stroke="#3399ff" stroke-width="1"></path></marker><marker id="SvgjsMarker1143" markerWidth="14" markerHeight="10" refX="10" refY="5" viewBox="0 0 14 10" orient="auto" markerUnits="userSpaceOnUse" stroke-dasharray="0,0"><path id="SvgjsPath1144" d="M0,0 L14,5 L0,10 L0,0" fill="#323232" stroke="#323232" stroke-width="1"></path></marker><marker id="SvgjsMarker1153" markerWidth="14" markerHeight="10" refX="10" refY="5" viewBox="0 0 14 10" orient="auto" markerUnits="userSpaceOnUse" stroke-dasharray="0,0"><path id="SvgjsPath1154" d="M0,0 L14,5 L0,10 L0,0" fill="#323232" stroke="#323232" stroke-width="1"></path></marker><marker id="SvgjsMarker1157" markerWidth="14" markerHeight="10" refX="10" refY="5" viewBox="0 0 14 10" orient="auto" markerUnits="userSpaceOnUse" stroke-dasharray="0,0"><path id="SvgjsPath1158" d="M0,0 L14,5 L0,10 L0,0" fill="#323232" stroke="#323232" stroke-width="1"></path></marker><marker id="SvgjsMarker1177" markerWidth="14" markerHeight="10" refX="10" refY="5" viewBox="0 0 14 10" orient="auto" markerUnits="userSpaceOnUse" stroke-dasharray="0,0"><path id="SvgjsPath1178" d="M0,0 L14,5 L0,10 L0,0" fill="#323232" stroke="#323232" stroke-width="1"></path></marker><marker id="SvgjsMarker1181" markerWidth="14" markerHeight="10" refX="10" refY="5" viewBox="0 0 14 10" orient="auto" markerUnits="userSpaceOnUse" stroke-dasharray="0,0"><path id="SvgjsPath1182" d="M0,0 L14,5 L0,10 L0,0" fill="#323232" stroke="#323232" stroke-width="1"></path></marker><marker id="SvgjsMarker1209" markerWidth="14" markerHeight="10" refX="10" refY="5" viewBox="0 0 14 10" orient="auto" markerUnits="userSpaceOnUse" stroke-dasharray="0,0"><path id="SvgjsPath1210" d="M0,0 L14,5 L0,10 L0,0" fill="#323232" stroke="#323232" stroke-width="1"></path></marker><marker id="SvgjsMarker1221" markerWidth="14" markerHeight="10" refX="10" refY="5" viewBox="0 0 14 10" orient="auto" markerUnits="userSpaceOnUse" stroke-dasharray="0,0"><path id="SvgjsPath1222" d="M0,0 L14,5 L0,10 L0,0" fill="#323232" stroke="#323232" stroke-width="1"></path></marker><marker id="SvgjsMarker1225" markerWidth="12" markerHeight="8" refX="9" refY="4" viewBox="0 0 12 8" orient="auto" markerUnits="userSpaceOnUse" stroke-dasharray="0,0"><path id="SvgjsPath1226" d="M0,0 L12,4 L0,8 L0,0" fill="#3399ff" stroke="#3399ff" stroke-width="1"></path></marker><marker id="SvgjsMarker1241" markerWidth="12" markerHeight="8" refX="9" refY="4" viewBox="0 0 12 8" orient="auto" markerUnits="userSpaceOnUse" stroke-dasharray="0,0"><path id="SvgjsPath1242" d="M0,0 L12,4 L0,8 L0,0" fill="#3399ff" stroke="#3399ff" stroke-width="1"></path></marker><marker id="SvgjsMarker1245" markerWidth="12" markerHeight="8" refX="9" refY="4" viewBox="0 0 12 8" orient="auto" markerUnits="userSpaceOnUse" stroke-dasharray="0,0"><path id="SvgjsPath1246" d="M0,0 L12,4 L0,8 L0,0" fill="#3399ff" stroke="#3399ff" stroke-width="1"></path></marker><marker id="SvgjsMarker1249" markerWidth="12" markerHeight="8" refX="9" refY="4" viewBox="0 0 12 8" orient="auto" markerUnits="userSpaceOnUse" stroke-dasharray="0,0"><path id="SvgjsPath1250" d="M0,0 L12,4 L0,8 L0,0" fill="#3399ff" stroke="#3399ff" stroke-width="1"></path></marker><marker id="SvgjsMarker1253" markerWidth="12" markerHeight="8" refX="9" refY="4" viewBox="0 0 12 8" orient="auto" markerUnits="userSpaceOnUse" stroke-dasharray="0,0"><path id="SvgjsPath1254" d="M0,0 L12,4 L0,8 L0,0" fill="#3399ff" stroke="#3399ff" stroke-width="1"></path></marker><marker id="SvgjsMarker1269" markerWidth="14" markerHeight="10" refX="10" refY="5" viewBox="0 0 14 10" orient="auto" markerUnits="userSpaceOnUse" stroke-dasharray="0,0"><path id="SvgjsPath1270" d="M0,0 L14,5 L0,10 L0,0" fill="#323232" stroke="#323232" stroke-width="1"></path></marker><marker id="SvgjsMarker1273" markerWidth="14" markerHeight="10" refX="10" refY="5" viewBox="0 0 14 10" orient="auto" markerUnits="userSpaceOnUse" stroke-dasharray="0,0"><path id="SvgjsPath1274" d="M0,0 L14,5 L0,10 L0,0" fill="#323232" stroke="#323232" stroke-width="1"></path></marker><marker id="SvgjsMarker1277" markerWidth="14" markerHeight="10" refX="10" refY="5" viewBox="0 0 14 10" orient="auto" markerUnits="userSpaceOnUse" stroke-dasharray="0,0"><path id="SvgjsPath1278" d="M0,0 L14,5 L0,10 L0,0" fill="#323232" stroke="#323232" stroke-width="1"></path></marker><marker id="SvgjsMarker1287" markerWidth="14" markerHeight="10" refX="10" refY="5" viewBox="0 0 14 10" orient="auto" markerUnits="userSpaceOnUse" stroke-dasharray="0,0"><path id="SvgjsPath1288" d="M0,0 L14,5 L0,10 L0,0" fill="#323232" stroke="#323232" stroke-width="1"></path></marker><marker id="SvgjsMarker1297" markerWidth="14" markerHeight="10" refX="10" refY="5" viewBox="0 0 14 10" orient="auto" markerUnits="userSpaceOnUse" stroke-dasharray="0,0"><path id="SvgjsPath1298" d="M0,0 L14,5 L0,10 L0,0" fill="#323232" stroke="#323232" stroke-width="1"></path></marker><marker id="SvgjsMarker1301" markerWidth="14" markerHeight="10" refX="10" refY="5" viewBox="0 0 14 10" orient="auto" markerUnits="userSpaceOnUse" stroke-dasharray="0,0"><path id="SvgjsPath1302" d="M0,0 L14,5 L0,10 L0,0" fill="#323232" stroke="#323232" stroke-width="1"></path></marker></defs><rect id="svgbackgroundid" width="1387" height="843" fill="#ffffff"></rect><g id="SvgjsG1009" transform="translate(89,25)"><path id="SvgjsPath1010" d="M 23.333333333333332 0L 174 0L 150.66666666666666 70L 0 70L 23.333333333333332 0Z" stroke="rgba(153,204,255,1)" stroke-width="2" fill-opacity="1" fill="#66b2ff"></path><g id="SvgjsG1011"><text id="SvgjsText1012" font-family="微软雅黑" text-anchor="middle" font-size="18px" width="122px" fill="#ffffff" font-weight="400" align="middle" lineHeight="125%" anchor="middle" family="微软雅黑" size="18px" weight="400" font-style="" opacity="1" y="8.75" transform="rotate(0)"><tspan id="SvgjsTspan1013" dy="22" x="87.1"><tspan id="SvgjsTspan1014" style="text-decoration:;">Trading </tspan></tspan><tspan id="SvgjsTspan1015" dy="22" x="87.1"><tspan id="SvgjsTspan1016" style="text-decoration:;">Strategies</tspan></tspan></text></g></g><g id="SvgjsG1017" transform="translate(49.25,588)"><path id="SvgjsPath1018" d="M 0 0L 253.5 0L 253.5 26L 0 26Z" stroke="rgba(255,255,255,1)" stroke-width="2" fill-opacity="1" fill="#ffffff"></path><g id="SvgjsG1019"><text id="SvgjsText1020" font-family="微软雅黑" text-anchor="middle" font-size="15px" width="234px" fill="#ec7270" font-weight="400" align="middle" lineHeight="125%" anchor="middle" family="微软雅黑" size="15px" weight="400" font-style="" opacity="1" y="1.125" transform="rotate(0)"><tspan id="SvgjsTspan1021" dy="18" x="127"><tspan id="SvgjsTspan1022" style="text-decoration:;">Calculate the reconstructed assets</tspan></tspan></text></g></g><g id="SvgjsG1023" transform="translate(401,479)"><path id="SvgjsPath1024" d="M 0 0L 45 0L 45 26L 0 26Z" stroke="rgba(255,255,255,1)" stroke-width="2" fill-opacity="1" fill="#ffffff"></path><g id="SvgjsG1025"><text id="SvgjsText1026" font-family="微软雅黑" text-anchor="middle" font-size="15px" width="25px" fill="#66b2ff" font-weight="400" align="middle" lineHeight="125%" anchor="middle" family="微软雅黑" size="15px" weight="400" font-style="" opacity="1" y="1.125" transform="rotate(0)"><tspan id="SvgjsTspan1027" dy="18" x="22.5"><tspan id="SvgjsTspan1028" style="text-decoration:;">yes</tspan></tspan></text></g></g><g id="SvgjsG1029" transform="translate(543,141)"><path id="SvgjsPath1030" d="M 0 0L 174 0L 174 70L 0 70Z" stroke="rgba(153,204,255,1)" stroke-width="2" fill-opacity="1" fill="#66b2ff"></path><g id="SvgjsG1031"><text id="SvgjsText1032" font-family="微软雅黑" text-anchor="middle" font-size="18px" width="154px" fill="#ffffff" font-weight="400" align="middle" lineHeight="125%" anchor="middle" family="微软雅黑" size="18px" weight="400" font-style="" opacity="1" y="19.75" transform="rotate(0)"><tspan id="SvgjsTspan1033" dy="22" x="87"><tspan id="SvgjsTspan1034" style="text-decoration:;">Evaluation Model</tspan></tspan></text></g></g><g id="SvgjsG1035" transform="translate(89,141)"><path id="SvgjsPath1036" d="M 0 0L 174 0L 174 70L 0 70Z" stroke="rgba(153,204,255,1)" stroke-width="2" fill-opacity="1" fill="#66b2ff"></path><g id="SvgjsG1037"><text id="SvgjsText1038" font-family="微软雅黑" text-anchor="middle" font-size="18px" width="154px" fill="#ffffff" font-weight="400" align="middle" lineHeight="125%" anchor="middle" family="微软雅黑" size="18px" weight="400" font-style="" opacity="1" y="19.75" transform="rotate(0)"><tspan id="SvgjsTspan1039" dy="22" x="87"><tspan id="SvgjsTspan1040" style="text-decoration:;">Trading Model</tspan></tspan></text></g></g><g id="SvgjsG1041"><path id="SvgjsPath1042" d="M176 96L176 118L176 118L176 137.4" stroke="#323232" stroke-width="2" fill="none" marker-end="url(#SvgjsMarker1043)"></path></g><g id="SvgjsG1045"><path id="SvgjsPath1046" d="M264 60L630 60L630 137.4" stroke="#323232" stroke-width="2" fill="none" marker-end="url(#SvgjsMarker1047)"></path></g><g id="SvgjsG1049" transform="translate(25,262)"><path id="SvgjsPath1050" d="M 0 0L 302 0L 302 50L 0 50Z" stroke="rgba(33,41,48,1)" stroke-width="2" fill-opacity="1" fill="#66b3ff"></path><g id="SvgjsG1051"><text id="SvgjsText1052" font-family="微软雅黑" text-anchor="middle" font-size="13px" width="282px" fill="#323232" font-weight="400" align="middle" lineHeight="125%" anchor="middle" family="微软雅黑" size="13px" weight="400" font-style="" opacity="1" y="14.375" transform="rotate(0)"><tspan id="SvgjsTspan1053" dy="16" x="151"><tspan id="SvgjsTspan1054" style="text-decoration:;">Predicting future price changes (15days)</tspan></tspan></text></g></g><g id="SvgjsG1055"><path id="SvgjsPath1056" d="M176 212L176 236.5L176 236.5L176 258.4" stroke="#323232" stroke-width="2" fill="none" marker-end="url(#SvgjsMarker1057)"></path></g><g id="SvgjsG1059"><path id="SvgjsPath1060" d="M176 313L176 331.4375L176 331.4375L176 348.575" stroke="#3399ff" stroke-width="1" fill="none" marker-end="url(#SvgjsMarker1061)"></path></g><g id="SvgjsG1063" transform="translate(105,350.875)"><path id="SvgjsPath1064" d="M 0 0L 142 0L 142 40L 0 40Z" stroke="none" fill="none"></path><g id="SvgjsG1065"><text id="SvgjsText1066" font-family="微软雅黑" text-anchor="middle" font-size="13px" width="142px" fill="#323232" font-weight="400" align="middle" lineHeight="125%" anchor="middle" family="微软雅黑" size="13px" weight="400" font-style="" opacity="1" y="9.375" transform="rotate(0)"><tspan id="SvgjsTspan1067" dy="16" x="71"><tspan id="SvgjsTspan1068" style="text-decoration:;">The separatiion of data</tspan></tspan></text></g></g><g id="SvgjsG1069"><path id="SvgjsPath1070" d="M176 391.875L176 410.3125L176 410.3125L176 427.45" stroke="#3399ff" stroke-width="1" fill="none" marker-end="url(#SvgjsMarker1071)"></path></g><g id="SvgjsG1073" transform="translate(126,429.75)"><path id="SvgjsPath1074" d="M 0 0L 100 0L 100 40L 0 40Z" stroke="none" fill="none"></path><g id="SvgjsG1075"><text id="SvgjsText1076" font-family="微软雅黑" text-anchor="middle" font-size="13px" width="100px" fill="#323232" font-weight="400" align="middle" lineHeight="125%" anchor="middle" family="微软雅黑" size="13px" weight="400" font-style="" opacity="1" y="9.375" transform="rotate(0)"><tspan id="SvgjsTspan1077" dy="16" x="50"><tspan id="SvgjsTspan1078" style="text-decoration:;">Train and Verify</tspan></tspan></text></g></g><g id="SvgjsG1079"><path id="SvgjsPath1080" d="M176 470.75L176 487.375L176 487.375L176 502.70000000000005" stroke="#3399ff" stroke-width="1" fill="none" marker-end="url(#SvgjsMarker1081)"></path></g><g id="SvgjsG1083" transform="translate(126,505)"><path id="SvgjsPath1084" d="M 0 0L 100 0L 100 40L 0 40Z" stroke="none" fill="none"></path><g id="SvgjsG1085"><text id="SvgjsText1086" font-family="微软雅黑" text-anchor="middle" font-size="13px" width="100px" fill="#323232" font-weight="400" align="middle" lineHeight="125%" anchor="middle" family="微软雅黑" size="13px" weight="400" font-style="" opacity="1" y="9.375" transform="rotate(0)"><tspan id="SvgjsTspan1087" dy="16" x="50"><tspan id="SvgjsTspan1088" style="text-decoration:;">Asset allocation</tspan></tspan></text></g></g><g id="SvgjsG1089" transform="translate(429,272)"><path id="SvgjsPath1090" d="M 0 0L 100 0L 100 40L 0 40Z" stroke="none" fill="none"></path><g id="SvgjsG1091"><text id="SvgjsText1092" font-family="微软雅黑" text-anchor="middle" font-size="13px" width="100px" fill="#323232" font-weight="400" align="middle" lineHeight="125%" anchor="middle" family="微软雅黑" size="13px" weight="400" font-style="" opacity="1" y="9.375" transform="rotate(0)"><tspan id="SvgjsTspan1093" dy="16" x="50"><tspan id="SvgjsTspan1094" style="text-decoration:;">Linear Regression</tspan></tspan></text></g></g><g id="SvgjsG1095"><path id="SvgjsPath1096" d="M630 212L630 241.5L479 241.5L479 268.4" stroke="#323232" stroke-width="2" fill="none" marker-end="url(#SvgjsMarker1097)"></path></g><g id="SvgjsG1099" transform="translate(580,267)"><path id="SvgjsPath1100" d="M 0 0L 100 0L 100 40L 0 40Z" stroke="none" fill="none"></path><g id="SvgjsG1101"><text id="SvgjsText1102" font-family="微软雅黑" text-anchor="middle" font-size="13px" width="100px" fill="#323232" font-weight="400" align="middle" lineHeight="125%" anchor="middle" family="微软雅黑" size="13px" weight="400" font-style="" opacity="1" y="9.375" transform="rotate(0)"><tspan id="SvgjsTspan1103" dy="16" x="50"><tspan id="SvgjsTspan1104" style="text-decoration:;">QDA</tspan></tspan></text></g></g><g id="SvgjsG1105"><path id="SvgjsPath1106" d="M630 212L630 239L630 239L630 263.4" stroke="#323232" stroke-width="2" fill="none" marker-end="url(#SvgjsMarker1107)"></path></g><g id="SvgjsG1109" transform="translate(731,272)"><path id="SvgjsPath1110" d="M 0 0L 100 0L 100 40L 0 40Z" stroke="none" fill="none"></path><g id="SvgjsG1111"><text id="SvgjsText1112" font-family="微软雅黑" text-anchor="middle" font-size="13px" width="100px" fill="#323232" font-weight="400" align="middle" lineHeight="125%" anchor="middle" family="微软雅黑" size="13px" weight="400" font-style="" opacity="1" y="9.375" transform="rotate(0)"><tspan id="SvgjsTspan1113" dy="16" x="50"><tspan id="SvgjsTspan1114" style="text-decoration:;">KNN</tspan></tspan></text></g></g><g id="SvgjsG1115"><path id="SvgjsPath1116" d="M630 212L630 241.5L781 241.5L781 268.4" stroke="#323232" stroke-width="2" fill="none" marker-end="url(#SvgjsMarker1117)"></path></g><g id="SvgjsG1119" transform="translate(531,424.75)"><path id="SvgjsPath1120" d="M 16.666666666666668 0L 181.33333333333334 0C 203.55555555555554 0 203.55555555555554 50 181.33333333333334 50L 16.666666666666668 50C -5.555555555555556 50 -5.555555555555556 0 16.666666666666668 0Z" stroke="rgba(33,41,48,1)" stroke-width="2" fill-opacity="1" fill="#66b3ff"></path><g id="SvgjsG1121"><text id="SvgjsText1122" font-family="微软雅黑" text-anchor="middle" font-size="13px" width="178px" fill="#323232" font-weight="400" align="middle" lineHeight="125%" anchor="middle" family="微软雅黑" size="13px" weight="400" font-style="" opacity="1" y="14.375" transform="rotate(0)"><tspan id="SvgjsTspan1123" dy="16" x="99"><tspan id="SvgjsTspan1124" style="text-decoration:;">Goodness of fit calculation</tspan></tspan></text></g></g><g id="SvgjsG1125"><path id="SvgjsPath1126" d="M479 313L479 368.375L630 368.375L630 422.45" stroke="#3399ff" stroke-width="1" fill="none" marker-end="url(#SvgjsMarker1127)"></path></g><g id="SvgjsG1129"><path id="SvgjsPath1130" d="M630 308L630 365.875L630 365.875L630 422.45" stroke="#3399ff" stroke-width="1" fill="none" marker-end="url(#SvgjsMarker1131)"></path></g><g id="SvgjsG1133"><path id="SvgjsPath1134" d="M227 449.75L378.5 449.75L378.5 449.75L528.7 449.75" stroke="#3399ff" stroke-width="1" fill="none" marker-end="url(#SvgjsMarker1135)"></path></g><g id="SvgjsG1137"><path id="SvgjsPath1138" d="M781 313L781 368.375L630 368.375L630 422.45" stroke="#3399ff" stroke-width="1" fill="none" marker-end="url(#SvgjsMarker1139)"></path></g><g id="SvgjsG1141"><path id="SvgjsPath1142" d="M630 475.75L630 525L229.6 525" stroke="#323232" stroke-width="2" fill="none" marker-end="url(#SvgjsMarker1143)"></path></g><g id="SvgjsG1145" transform="translate(84.5,645)"><path id="SvgjsPath1146" d="M 0 4Q 0 0 4 0L 179 0Q 183 0 183 4L 183 50Q 183 54 179 54L 4 54Q 0 54 0 50Z" stroke="rgba(33,41,48,1)" stroke-width="2" fill-opacity="1" fill="#f5b9b7"></path><g id="SvgjsG1147"><text id="SvgjsText1148" font-family="微软雅黑" text-anchor="middle" font-size="13px" width="163px" fill="#323232" font-weight="400" align="middle" lineHeight="125%" anchor="middle" family="微软雅黑" size="13px" weight="400" font-style="" opacity="1" y="16.375" transform="rotate(0)"><tspan id="SvgjsTspan1149" dy="16" x="91.5"><tspan id="SvgjsTspan1150" style="text-decoration:;">Complete the transaction</tspan></tspan></text></g></g><g id="SvgjsG1151"><path id="SvgjsPath1152" d="M176 546L176 566.5L176 566.5L176 584.4" stroke="#323232" stroke-width="2" fill="none" marker-end="url(#SvgjsMarker1153)"></path></g><g id="SvgjsG1155"><path id="SvgjsPath1156" d="M176 615L176 629.5L176 629.5L176 641.4" stroke="#323232" stroke-width="2" fill="none" marker-end="url(#SvgjsMarker1157)"></path></g><g id="SvgjsG1159" transform="translate(49.25,749)"><path id="SvgjsPath1160" d="M 0 0L 100 0L 100 40L 0 40Z" stroke="none" fill="none"></path><g id="SvgjsG1161"><text id="SvgjsText1162" font-family="微软雅黑" text-anchor="middle" font-size="13px" width="100px" fill="#323232" font-weight="400" align="middle" lineHeight="125%" anchor="middle" family="微软雅黑" size="13px" weight="400" font-style="" opacity="1" y="1.375" transform="rotate(0)"><tspan id="SvgjsTspan1163" dy="16" x="50"><tspan id="SvgjsTspan1164" style="text-decoration:;">Correction and </tspan></tspan><tspan id="SvgjsTspan1165" dy="16" x="50"><tspan id="SvgjsTspan1166" style="text-decoration:;">optimization</tspan></tspan></text></g></g><g id="SvgjsG1167" transform="translate(202.75,749)"><path id="SvgjsPath1168" d="M 0 0L 100 0L 100 40L 0 40Z" stroke="none" fill="none"></path><g id="SvgjsG1169"><text id="SvgjsText1170" font-family="微软雅黑" text-anchor="middle" font-size="13px" width="100px" fill="#323232" font-weight="400" align="middle" lineHeight="125%" anchor="middle" family="微软雅黑" size="13px" weight="400" font-style="" opacity="1" y="1.375" transform="rotate(0)"><tspan id="SvgjsTspan1171" dy="16" x="50"><tspan id="SvgjsTspan1172" style="text-decoration:;">Investment value </tspan></tspan><tspan id="SvgjsTspan1173" dy="16" x="50"><tspan id="SvgjsTspan1174" style="text-decoration:;">to the last day</tspan></tspan></text></g></g><g id="SvgjsG1175"><path id="SvgjsPath1176" d="M176 700L176 724L99.25 724L99.25 745.4" stroke="#323232" stroke-width="2" fill="none" marker-end="url(#SvgjsMarker1177)"></path></g><g id="SvgjsG1179"><path id="SvgjsPath1180" d="M176 700L176 724L252.75 724L252.75 745.4" stroke="#323232" stroke-width="2" fill="none" marker-end="url(#SvgjsMarker1181)"></path></g><g id="SvgjsG1183" transform="translate(852,55)"><path id="SvgjsPath1184" d="M 0 0L 494 0L 510 16L 510 670L 0 670L 0 0Z" stroke="none" fill-opacity="1" fill="#fff7bc"></path><path id="SvgjsPath1185" d="M 494 0L 494 16L 510 16Z" stroke="none" fill-opacity="1" fill="#e4d089"></path><path id="SvgjsPath1186" d="M 0 0L 494 0L 510 16L 510 670L 0 670L 0 0Z" stroke="none" fill="none"></path><g id="SvgjsG1187"><text id="SvgjsText1188" font-family="微软雅黑" text-anchor="middle" font-size="13px" width="490px" fill="#323232" font-weight="400" align="middle" lineHeight="125%" anchor="middle" family="微软雅黑" size="13px" weight="400" font-style="" opacity="1" y="324.375" transform="rotate(0)"></text></g></g><g id="SvgjsG1189" transform="translate(897,112)"><path id="SvgjsPath1190" d="M 0 0L 173 0L 173 40L 0 40Z" stroke="none" fill="none"></path><g id="SvgjsG1191"><text id="SvgjsText1192" font-family="微软雅黑" text-anchor="middle" font-size="13px" width="173px" fill="#323232" font-weight="400" align="middle" lineHeight="125%" anchor="middle" family="微软雅黑" size="13px" weight="400" font-style="" opacity="1" y="9.375" transform="rotate(0)"><tspan id="SvgjsTspan1193" dy="16" x="86.5"><tspan id="SvgjsTspan1194" style="text-decoration:;">Telling an investment strategy</tspan></tspan></text></g></g><g id="SvgjsG1195" transform="translate(1194,112)"><path id="SvgjsPath1196" d="M 0 0L 100 0L 100 40L 0 40Z" stroke="none" fill="none"></path><g id="SvgjsG1197"><text id="SvgjsText1198" font-family="微软雅黑" text-anchor="middle" font-size="13px" width="100px" fill="#323232" font-weight="400" align="middle" lineHeight="125%" anchor="middle" family="微软雅黑" size="13px" weight="400" font-style="" opacity="1" y="9.375" transform="rotate(0)"><tspan id="SvgjsTspan1199" dy="16" x="50"><tspan id="SvgjsTspan1200" style="text-decoration:;">Description model</tspan></tspan></text></g></g><g id="SvgjsG1201" transform="translate(913.5,262)"><path id="SvgjsPath1202" d="M 0 0L 140 0L 140 40L 0 40Z" stroke="none" fill="none"></path><g id="SvgjsG1203"><text id="SvgjsText1204" font-family="微软雅黑" text-anchor="middle" font-size="13px" width="140px" fill="#323232" font-weight="400" align="middle" lineHeight="125%" anchor="middle" family="微软雅黑" size="13px" weight="400" font-style="" opacity="1" y="9.375" transform="rotate(0)"><tspan id="SvgjsTspan1205" dy="16" x="70"><tspan id="SvgjsTspan1206" style="text-decoration:;">Optimal resource ratio</tspan></tspan></text></g></g><g id="SvgjsG1207"><path id="SvgjsPath1208" d="M983.5 153L983.5 207L983.5 207L983.5 258.4" stroke="#323232" stroke-width="2" fill="none" marker-end="url(#SvgjsMarker1209)"></path></g><g id="SvgjsG1211" transform="translate(1164.5,262)"><path id="SvgjsPath1212" d="M 0 0L 159 0L 159 40L 0 40Z" stroke="none" fill="none"></path><g id="SvgjsG1213"><text id="SvgjsText1214" font-family="微软雅黑" text-anchor="middle" font-size="13px" width="159px" fill="#323232" font-weight="400" align="middle" lineHeight="125%" anchor="middle" family="微软雅黑" size="13px" weight="400" font-style="" opacity="1" y="1.375" transform="rotate(0)"><tspan id="SvgjsTspan1215" dy="16" x="79.5"><tspan id="SvgjsTspan1216" style="text-decoration:;">The daily trading strategy </tspan></tspan><tspan id="SvgjsTspan1217" dy="16" x="79.5"><tspan id="SvgjsTspan1218" style="text-decoration:;">within the model</tspan></tspan></text></g></g><g id="SvgjsG1219"><path id="SvgjsPath1220" d="M1244 153L1244 207L1244 207L1244 258.4" stroke="#323232" stroke-width="2" fill="none" marker-end="url(#SvgjsMarker1221)"></path></g><g id="SvgjsG1223"><path id="SvgjsPath1224" d="M1163.5 282L1109 282L1109 282L1055.8 282" stroke="#3399ff" stroke-width="1" fill="none" marker-end="url(#SvgjsMarker1225)"></path></g><g id="SvgjsG1227" transform="translate(920.5,484)"><path id="SvgjsPath1228" d="M 0 0L 126 0L 126 40L 0 40Z" stroke="none" fill="none"></path><g id="SvgjsG1229"><text id="SvgjsText1230" font-family="微软雅黑" text-anchor="middle" font-size="13px" width="126px" fill="#323232" font-weight="400" align="middle" lineHeight="125%" anchor="middle" family="微软雅黑" size="13px" weight="400" font-style="" opacity="1" y="9.375" transform="rotate(0)"><tspan id="SvgjsTspan1231" dy="16" x="63"><tspan id="SvgjsTspan1232" style="text-decoration:;">Gold trading volume</tspan></tspan></text></g></g><g id="SvgjsG1233" transform="translate(1175,484)"><path id="SvgjsPath1234" d="M 0 0L 138 0L 138 40L 0 40Z" stroke="none" fill="none"></path><g id="SvgjsG1235"><text id="SvgjsText1236" font-family="微软雅黑" text-anchor="middle" font-size="13px" width="138px" fill="#323232" font-weight="400" align="middle" lineHeight="125%" anchor="middle" family="微软雅黑" size="13px" weight="400" font-style="" opacity="1" y="9.375" transform="rotate(0)"><tspan id="SvgjsTspan1237" dy="16" x="69"><tspan id="SvgjsTspan1238" style="text-decoration:;">Bitcoin trading volume</tspan></tspan></text></g></g><g id="SvgjsG1239"><path id="SvgjsPath1240" d="M983.5 303L983.5 393L983.5 393L983.5 481.7" stroke="#3399ff" stroke-width="1" fill="none" marker-end="url(#SvgjsMarker1241)"></path></g><g id="SvgjsG1243"><path id="SvgjsPath1244" d="M983.5 303L983.5 393L1244 393L1244 481.7" stroke="#3399ff" stroke-width="1" fill="none" marker-end="url(#SvgjsMarker1245)"></path></g><g id="SvgjsG1247"><path id="SvgjsPath1248" d="M1244 303L1244 393L983.5 393L983.5 481.7" stroke="#3399ff" stroke-width="1" fill="none" marker-end="url(#SvgjsMarker1249)"></path></g><g id="SvgjsG1251"><path id="SvgjsPath1252" d="M1244 303L1244 393L1244 393L1244 481.7" stroke="#3399ff" stroke-width="1" fill="none" marker-end="url(#SvgjsMarker1253)"></path></g><g id="SvgjsG1255" transform="translate(1064.5,338)"><path id="SvgjsPath1256" d="M 0 0L 100 0L 100 40L 0 40Z" stroke="none" fill="none"></path><g id="SvgjsG1257"><text id="SvgjsText1258" font-family="微软雅黑" text-anchor="middle" font-size="13px" width="100px" fill="#323232" font-weight="400" align="middle" lineHeight="125%" anchor="middle" family="微软雅黑" size="13px" weight="400" font-style="" opacity="1" y="9.375" transform="rotate(0)"><tspan id="SvgjsTspan1259" dy="16" x="50"><tspan id="SvgjsTspan1260" style="text-decoration:;fill: rgb(102, 179, 255);">interaction effect</tspan></tspan></text></g></g><g id="SvgjsG1261" transform="translate(1037.5,652)"><path id="SvgjsPath1262" d="M 0 0L 167 0L 167 40L 0 40Z" stroke="none" fill="none"></path><g id="SvgjsG1263"><text id="SvgjsText1264" font-family="微软雅黑" text-anchor="middle" font-size="13px" width="167px" fill="#323232" font-weight="400" align="middle" lineHeight="125%" anchor="middle" family="微软雅黑" size="13px" weight="400" font-style="" opacity="1" y="9.375" transform="rotate(0)"><tspan id="SvgjsTspan1265" dy="16" x="83.5"><tspan id="SvgjsTspan1266" style="text-decoration:;fill: rgb(236, 114, 112);">Operations and Revenue</tspan></tspan></text></g></g><g id="SvgjsG1267"><path id="SvgjsPath1268" d="M983.5 525L983.5 588L1121 588L1121 648.4" stroke="#323232" stroke-width="2" fill="none" marker-end="url(#SvgjsMarker1269)"></path></g><g id="SvgjsG1271"><path id="SvgjsPath1272" d="M1244 525L1244 588L1121 588L1121 648.4" stroke="#323232" stroke-width="2" fill="none" marker-end="url(#SvgjsMarker1273)"></path></g><g id="SvgjsG1275"><path id="SvgjsPath1276" d="M303.75 769L670.125 769L670.125 672L1033.9 672" stroke="#323232" stroke-width="2" fill="none" marker-end="url(#SvgjsMarker1277)"></path></g><g id="SvgjsG1279" transform="translate(413,645)"><path id="SvgjsPath1280" d="M 0 0L 171 0L 171 54L 0 54Z" stroke="rgba(33,41,48,1)" stroke-width="2" fill-opacity="1" fill="#ffffff"></path><g id="SvgjsG1281"><text id="SvgjsText1282" font-family="微软雅黑" text-anchor="middle" font-size="13px" width="151px" fill="#323232" font-weight="400" align="middle" lineHeight="125%" anchor="middle" family="微软雅黑" size="13px" weight="400" font-style="" opacity="1" y="16.375" transform="rotate(0)"><tspan id="SvgjsTspan1283" dy="16" x="85.5"><tspan id="SvgjsTspan1284" style="text-decoration:;">Assess sensitivity</tspan></tspan></text></g></g><g id="SvgjsG1285"><path id="SvgjsPath1286" d="M268.5 672L340.25 672L340.25 672L409.4 672" stroke="#323232" stroke-width="2" fill="none" marker-end="url(#SvgjsMarker1287)"></path></g><g id="SvgjsG1289" transform="translate(1057,768)"><path id="SvgjsPath1290" d="M 16.666666666666668 0L 83.33333333333333 0C 105.55555555555556 0 105.55555555555556 50 83.33333333333333 50L 16.666666666666668 50C -5.555555555555556 50 -5.555555555555556 0 16.666666666666668 0Z" stroke="rgba(33,41,48,1)" stroke-width="2" fill-opacity="1" fill="#66b3ff"></path><g id="SvgjsG1291"><text id="SvgjsText1292" font-family="微软雅黑" text-anchor="middle" font-size="13px" width="80px" fill="#323232" font-weight="400" align="middle" lineHeight="125%" anchor="middle" family="微软雅黑" size="13px" weight="400" font-style="" opacity="1" y="14.375" transform="rotate(0)"><tspan id="SvgjsTspan1293" dy="16" x="50"><tspan id="SvgjsTspan1294" style="text-decoration:;">The Trader</tspan></tspan></text></g></g><g id="SvgjsG1295"><path id="SvgjsPath1296" d="M1107 725L1107 746.5L1107 746.5L1107 764.4" stroke="#323232" stroke-width="2" fill="none" marker-end="url(#SvgjsMarker1297)"></path></g><g id="SvgjsG1299"><path id="SvgjsPath1300" d="M498.5 700L498.5 793L1053.4 793" stroke="#323232" stroke-width="2" fill="none" marker-end="url(#SvgjsMarker1301)"></path></g></svg>