<?xml version="1.0" encoding="utf-8" standalone="no"?>
<!DOCTYPE svg PUBLIC "-//W3C//DTD SVG 1.1//EN"
  "http://www.w3.org/Graphics/SVG/1.1/DTD/svg11.dtd">
<svg xmlns:xlink="http://www.w3.org/1999/xlink" width="460.8pt" height="345.6pt" viewBox="0 0 460.8 345.6" xmlns="http://www.w3.org/2000/svg" version="1.1">
 <metadata>
  <rdf:RDF xmlns:dc="http://purl.org/dc/elements/1.1/" xmlns:cc="http://creativecommons.org/ns#" xmlns:rdf="http://www.w3.org/1999/02/22-rdf-syntax-ns#">
   <cc:Work>
    <dc:type rdf:resource="http://purl.org/dc/dcmitype/StillImage"/>
    <dc:date>2022-10-26T23:59:15.090780</dc:date>
    <dc:format>image/svg+xml</dc:format>
    <dc:creator>
     <cc:Agent>
      <dc:title>Matplotlib v3.5.2, https://matplotlib.org/</dc:title>
     </cc:Agent>
    </dc:creator>
   </cc:Work>
  </rdf:RDF>
 </metadata>
 <defs>
  <style type="text/css">*{stroke-linejoin: round; stroke-linecap: butt}</style>
 </defs>
 <g id="figure_1">
  <g id="patch_1">
   <path d="M 0 345.6 
L 460.8 345.6 
L 460.8 0 
L 0 0 
z
" style="fill: #ffffff"/>
  </g>
  <g id="axes_1">
   <g id="patch_2">
    <path d="M 57.6 307.584 
L 414.72 307.584 
L 414.72 41.472 
L 57.6 41.472 
z
" style="fill: #ffffff"/>
   </g>
   <g id="matplotlib.axis_1">
    <g id="xtick_1">
     <g id="line2d_1">
      <defs>
       <path id="m82be2e274b" d="M 0 0 
L 0 3.5 
" style="stroke: #000000; stroke-width: 0.8"/>
      </defs>
      <g>
       <use xlink:href="#m82be2e274b" x="103.110191" y="307.584" style="stroke: #000000; stroke-width: 0.8"/>
      </g>
     </g>
     <g id="text_1">
      <!-- 800 -->
      <g transform="translate(93.566441 322.182437)scale(0.1 -0.1)">
       <defs>
        <path id="DejaVuSans-38" d="M 2034 2216 
Q 1584 2216 1326 1975 
Q 1069 1734 1069 1313 
Q 1069 891 1326 650 
Q 1584 409 2034 409 
Q 2484 409 2743 651 
Q 3003 894 3003 1313 
Q 3003 1734 2745 1975 
Q 2488 2216 2034 2216 
z
M 1403 2484 
Q 997 2584 770 2862 
Q 544 3141 544 3541 
Q 544 4100 942 4425 
Q 1341 4750 2034 4750 
Q 2731 4750 3128 4425 
Q 3525 4100 3525 3541 
Q 3525 3141 3298 2862 
Q 3072 2584 2669 2484 
Q 3125 2378 3379 2068 
Q 3634 1759 3634 1313 
Q 3634 634 3220 271 
Q 2806 -91 2034 -91 
Q 1263 -91 848 271 
Q 434 634 434 1313 
Q 434 1759 690 2068 
Q 947 2378 1403 2484 
z
M 1172 3481 
Q 1172 3119 1398 2916 
Q 1625 2713 2034 2713 
Q 2441 2713 2670 2916 
Q 2900 3119 2900 3481 
Q 2900 3844 2670 4047 
Q 2441 4250 2034 4250 
Q 1625 4250 1398 4047 
Q 1172 3844 1172 3481 
z
" transform="scale(0.015625)"/>
        <path id="DejaVuSans-30" d="M 2034 4250 
Q 1547 4250 1301 3770 
Q 1056 3291 1056 2328 
Q 1056 1369 1301 889 
Q 1547 409 2034 409 
Q 2525 409 2770 889 
Q 3016 1369 3016 2328 
Q 3016 3291 2770 3770 
Q 2525 4250 2034 4250 
z
M 2034 4750 
Q 2819 4750 3233 4129 
Q 3647 3509 3647 2328 
Q 3647 1150 3233 529 
Q 2819 -91 2034 -91 
Q 1250 -91 836 529 
Q 422 1150 422 2328 
Q 422 3509 836 4129 
Q 1250 4750 2034 4750 
z
" transform="scale(0.015625)"/>
       </defs>
       <use xlink:href="#DejaVuSans-38"/>
       <use xlink:href="#DejaVuSans-30" x="63.623047"/>
       <use xlink:href="#DejaVuSans-30" x="127.246094"/>
      </g>
     </g>
    </g>
    <g id="xtick_2">
     <g id="line2d_2">
      <g>
       <use xlink:href="#m82be2e274b" x="168.171222" y="307.584" style="stroke: #000000; stroke-width: 0.8"/>
      </g>
     </g>
     <g id="text_2">
      <!-- 900 -->
      <g transform="translate(158.627472 322.182437)scale(0.1 -0.1)">
       <defs>
        <path id="DejaVuSans-39" d="M 703 97 
L 703 672 
Q 941 559 1184 500 
Q 1428 441 1663 441 
Q 2288 441 2617 861 
Q 2947 1281 2994 2138 
Q 2813 1869 2534 1725 
Q 2256 1581 1919 1581 
Q 1219 1581 811 2004 
Q 403 2428 403 3163 
Q 403 3881 828 4315 
Q 1253 4750 1959 4750 
Q 2769 4750 3195 4129 
Q 3622 3509 3622 2328 
Q 3622 1225 3098 567 
Q 2575 -91 1691 -91 
Q 1453 -91 1209 -44 
Q 966 3 703 97 
z
M 1959 2075 
Q 2384 2075 2632 2365 
Q 2881 2656 2881 3163 
Q 2881 3666 2632 3958 
Q 2384 4250 1959 4250 
Q 1534 4250 1286 3958 
Q 1038 3666 1038 3163 
Q 1038 2656 1286 2365 
Q 1534 2075 1959 2075 
z
" transform="scale(0.015625)"/>
       </defs>
       <use xlink:href="#DejaVuSans-39"/>
       <use xlink:href="#DejaVuSans-30" x="63.623047"/>
       <use xlink:href="#DejaVuSans-30" x="127.246094"/>
      </g>
     </g>
    </g>
    <g id="xtick_3">
     <g id="line2d_3">
      <g>
       <use xlink:href="#m82be2e274b" x="233.232254" y="307.584" style="stroke: #000000; stroke-width: 0.8"/>
      </g>
     </g>
     <g id="text_3">
      <!-- 1,000 -->
      <g transform="translate(218.918191 322.182437)scale(0.1 -0.1)">
       <defs>
        <path id="DejaVuSans-31" d="M 794 531 
L 1825 531 
L 1825 4091 
L 703 3866 
L 703 4441 
L 1819 4666 
L 2450 4666 
L 2450 531 
L 3481 531 
L 3481 0 
L 794 0 
L 794 531 
z
" transform="scale(0.015625)"/>
        <path id="DejaVuSans-2c" d="M 750 794 
L 1409 794 
L 1409 256 
L 897 -744 
L 494 -744 
L 750 256 
L 750 794 
z
" transform="scale(0.015625)"/>
       </defs>
       <use xlink:href="#DejaVuSans-31"/>
       <use xlink:href="#DejaVuSans-2c" x="63.623047"/>
       <use xlink:href="#DejaVuSans-30" x="95.410156"/>
       <use xlink:href="#DejaVuSans-30" x="159.033203"/>
       <use xlink:href="#DejaVuSans-30" x="222.65625"/>
      </g>
     </g>
    </g>
    <g id="xtick_4">
     <g id="line2d_4">
      <g>
       <use xlink:href="#m82be2e274b" x="298.293285" y="307.584" style="stroke: #000000; stroke-width: 0.8"/>
      </g>
     </g>
     <g id="text_4">
      <!-- 1,100 -->
      <g transform="translate(283.979222 322.182437)scale(0.1 -0.1)">
       <use xlink:href="#DejaVuSans-31"/>
       <use xlink:href="#DejaVuSans-2c" x="63.623047"/>
       <use xlink:href="#DejaVuSans-31" x="95.410156"/>
       <use xlink:href="#DejaVuSans-30" x="159.033203"/>
       <use xlink:href="#DejaVuSans-30" x="222.65625"/>
      </g>
     </g>
    </g>
    <g id="xtick_5">
     <g id="line2d_5">
      <g>
       <use xlink:href="#m82be2e274b" x="363.354316" y="307.584" style="stroke: #000000; stroke-width: 0.8"/>
      </g>
     </g>
     <g id="text_5">
      <!-- 1,200 -->
      <g transform="translate(349.040253 322.182437)scale(0.1 -0.1)">
       <defs>
        <path id="DejaVuSans-32" d="M 1228 531 
L 3431 531 
L 3431 0 
L 469 0 
L 469 531 
Q 828 903 1448 1529 
Q 2069 2156 2228 2338 
Q 2531 2678 2651 2914 
Q 2772 3150 2772 3378 
Q 2772 3750 2511 3984 
Q 2250 4219 1831 4219 
Q 1534 4219 1204 4116 
Q 875 4013 500 3803 
L 500 4441 
Q 881 4594 1212 4672 
Q 1544 4750 1819 4750 
Q 2544 4750 2975 4387 
Q 3406 4025 3406 3419 
Q 3406 3131 3298 2873 
Q 3191 2616 2906 2266 
Q 2828 2175 2409 1742 
Q 1991 1309 1228 531 
z
" transform="scale(0.015625)"/>
       </defs>
       <use xlink:href="#DejaVuSans-31"/>
       <use xlink:href="#DejaVuSans-2c" x="63.623047"/>
       <use xlink:href="#DejaVuSans-32" x="95.410156"/>
       <use xlink:href="#DejaVuSans-30" x="159.033203"/>
       <use xlink:href="#DejaVuSans-30" x="222.65625"/>
      </g>
     </g>
    </g>
    <g id="text_6">
     <!-- Date -->
     <g transform="translate(224.209219 335.860562)scale(0.1 -0.1)">
      <defs>
       <path id="DejaVuSans-44" d="M 1259 4147 
L 1259 519 
L 2022 519 
Q 2988 519 3436 956 
Q 3884 1394 3884 2338 
Q 3884 3275 3436 3711 
Q 2988 4147 2022 4147 
L 1259 4147 
z
M 628 4666 
L 1925 4666 
Q 3281 4666 3915 4102 
Q 4550 3538 4550 2338 
Q 4550 1131 3912 565 
Q 3275 0 1925 0 
L 628 0 
L 628 4666 
z
" transform="scale(0.015625)"/>
       <path id="DejaVuSans-61" d="M 2194 1759 
Q 1497 1759 1228 1600 
Q 959 1441 959 1056 
Q 959 750 1161 570 
Q 1363 391 1709 391 
Q 2188 391 2477 730 
Q 2766 1069 2766 1631 
L 2766 1759 
L 2194 1759 
z
M 3341 1997 
L 3341 0 
L 2766 0 
L 2766 531 
Q 2569 213 2275 61 
Q 1981 -91 1556 -91 
Q 1019 -91 701 211 
Q 384 513 384 1019 
Q 384 1609 779 1909 
Q 1175 2209 1959 2209 
L 2766 2209 
L 2766 2266 
Q 2766 2663 2505 2880 
Q 2244 3097 1772 3097 
Q 1472 3097 1187 3025 
Q 903 2953 641 2809 
L 641 3341 
Q 956 3463 1253 3523 
Q 1550 3584 1831 3584 
Q 2591 3584 2966 3190 
Q 3341 2797 3341 1997 
z
" transform="scale(0.015625)"/>
       <path id="DejaVuSans-74" d="M 1172 4494 
L 1172 3500 
L 2356 3500 
L 2356 3053 
L 1172 3053 
L 1172 1153 
Q 1172 725 1289 603 
Q 1406 481 1766 481 
L 2356 481 
L 2356 0 
L 1766 0 
Q 1100 0 847 248 
Q 594 497 594 1153 
L 594 3053 
L 172 3053 
L 172 3500 
L 594 3500 
L 594 4494 
L 1172 4494 
z
" transform="scale(0.015625)"/>
       <path id="DejaVuSans-65" d="M 3597 1894 
L 3597 1613 
L 953 1613 
Q 991 1019 1311 708 
Q 1631 397 2203 397 
Q 2534 397 2845 478 
Q 3156 559 3463 722 
L 3463 178 
Q 3153 47 2828 -22 
Q 2503 -91 2169 -91 
Q 1331 -91 842 396 
Q 353 884 353 1716 
Q 353 2575 817 3079 
Q 1281 3584 2069 3584 
Q 2775 3584 3186 3129 
Q 3597 2675 3597 1894 
z
M 3022 2063 
Q 3016 2534 2758 2815 
Q 2500 3097 2075 3097 
Q 1594 3097 1305 2825 
Q 1016 2553 972 2059 
L 3022 2063 
z
" transform="scale(0.015625)"/>
      </defs>
      <use xlink:href="#DejaVuSans-44"/>
      <use xlink:href="#DejaVuSans-61" x="77.001953"/>
      <use xlink:href="#DejaVuSans-74" x="138.28125"/>
      <use xlink:href="#DejaVuSans-65" x="177.490234"/>
     </g>
    </g>
   </g>
   <g id="matplotlib.axis_2">
    <g id="ytick_1">
     <g id="line2d_6">
      <defs>
       <path id="m32e7e5baf7" d="M 0 0 
L -3.5 0 
" style="stroke: #000000; stroke-width: 0.8"/>
      </defs>
      <g>
       <use xlink:href="#m32e7e5baf7" x="57.6" y="274.190563" style="stroke: #000000; stroke-width: 0.8"/>
      </g>
     </g>
     <g id="text_7">
      <!-- 10,000 -->
      <g transform="translate(15.609375 277.989782)scale(0.1 -0.1)">
       <use xlink:href="#DejaVuSans-31"/>
       <use xlink:href="#DejaVuSans-30" x="63.623047"/>
       <use xlink:href="#DejaVuSans-2c" x="127.246094"/>
       <use xlink:href="#DejaVuSans-30" x="159.033203"/>
       <use xlink:href="#DejaVuSans-30" x="222.65625"/>
       <use xlink:href="#DejaVuSans-30" x="286.279297"/>
      </g>
     </g>
    </g>
    <g id="ytick_2">
     <g id="line2d_7">
      <g>
       <use xlink:href="#m32e7e5baf7" x="57.6" y="232.99462" style="stroke: #000000; stroke-width: 0.8"/>
      </g>
     </g>
     <g id="text_8">
      <!-- 20,000 -->
      <g transform="translate(15.609375 236.793839)scale(0.1 -0.1)">
       <use xlink:href="#DejaVuSans-32"/>
       <use xlink:href="#DejaVuSans-30" x="63.623047"/>
       <use xlink:href="#DejaVuSans-2c" x="127.246094"/>
       <use xlink:href="#DejaVuSans-30" x="159.033203"/>
       <use xlink:href="#DejaVuSans-30" x="222.65625"/>
       <use xlink:href="#DejaVuSans-30" x="286.279297"/>
      </g>
     </g>
    </g>
    <g id="ytick_3">
     <g id="line2d_8">
      <g>
       <use xlink:href="#m32e7e5baf7" x="57.6" y="191.798678" style="stroke: #000000; stroke-width: 0.8"/>
      </g>
     </g>
     <g id="text_9">
      <!-- 30,000 -->
      <g transform="translate(15.609375 195.597897)scale(0.1 -0.1)">
       <defs>
        <path id="DejaVuSans-33" d="M 2597 2516 
Q 3050 2419 3304 2112 
Q 3559 1806 3559 1356 
Q 3559 666 3084 287 
Q 2609 -91 1734 -91 
Q 1441 -91 1130 -33 
Q 819 25 488 141 
L 488 750 
Q 750 597 1062 519 
Q 1375 441 1716 441 
Q 2309 441 2620 675 
Q 2931 909 2931 1356 
Q 2931 1769 2642 2001 
Q 2353 2234 1838 2234 
L 1294 2234 
L 1294 2753 
L 1863 2753 
Q 2328 2753 2575 2939 
Q 2822 3125 2822 3475 
Q 2822 3834 2567 4026 
Q 2313 4219 1838 4219 
Q 1578 4219 1281 4162 
Q 984 4106 628 3988 
L 628 4550 
Q 988 4650 1302 4700 
Q 1616 4750 1894 4750 
Q 2613 4750 3031 4423 
Q 3450 4097 3450 3541 
Q 3450 3153 3228 2886 
Q 3006 2619 2597 2516 
z
" transform="scale(0.015625)"/>
       </defs>
       <use xlink:href="#DejaVuSans-33"/>
       <use xlink:href="#DejaVuSans-30" x="63.623047"/>
       <use xlink:href="#DejaVuSans-2c" x="127.246094"/>
       <use xlink:href="#DejaVuSans-30" x="159.033203"/>
       <use xlink:href="#DejaVuSans-30" x="222.65625"/>
       <use xlink:href="#DejaVuSans-30" x="286.279297"/>
      </g>
     </g>
    </g>
    <g id="ytick_4">
     <g id="line2d_9">
      <g>
       <use xlink:href="#m32e7e5baf7" x="57.6" y="150.602735" style="stroke: #000000; stroke-width: 0.8"/>
      </g>
     </g>
     <g id="text_10">
      <!-- 40,000 -->
      <g transform="translate(15.609375 154.401954)scale(0.1 -0.1)">
       <defs>
        <path id="DejaVuSans-34" d="M 2419 4116 
L 825 1625 
L 2419 1625 
L 2419 4116 
z
M 2253 4666 
L 3047 4666 
L 3047 1625 
L 3713 1625 
L 3713 1100 
L 3047 1100 
L 3047 0 
L 2419 0 
L 2419 1100 
L 313 1100 
L 313 1709 
L 2253 4666 
z
" transform="scale(0.015625)"/>
       </defs>
       <use xlink:href="#DejaVuSans-34"/>
       <use xlink:href="#DejaVuSans-30" x="63.623047"/>
       <use xlink:href="#DejaVuSans-2c" x="127.246094"/>
       <use xlink:href="#DejaVuSans-30" x="159.033203"/>
       <use xlink:href="#DejaVuSans-30" x="222.65625"/>
       <use xlink:href="#DejaVuSans-30" x="286.279297"/>
      </g>
     </g>
    </g>
    <g id="ytick_5">
     <g id="line2d_10">
      <g>
       <use xlink:href="#m32e7e5baf7" x="57.6" y="109.406793" style="stroke: #000000; stroke-width: 0.8"/>
      </g>
     </g>
     <g id="text_11">
      <!-- 50,000 -->
      <g transform="translate(15.609375 113.206012)scale(0.1 -0.1)">
       <defs>
        <path id="DejaVuSans-35" d="M 691 4666 
L 3169 4666 
L 3169 4134 
L 1269 4134 
L 1269 2991 
Q 1406 3038 1543 3061 
Q 1681 3084 1819 3084 
Q 2600 3084 3056 2656 
Q 3513 2228 3513 1497 
Q 3513 744 3044 326 
Q 2575 -91 1722 -91 
Q 1428 -91 1123 -41 
Q 819 9 494 109 
L 494 744 
Q 775 591 1075 516 
Q 1375 441 1709 441 
Q 2250 441 2565 725 
Q 2881 1009 2881 1497 
Q 2881 1984 2565 2268 
Q 2250 2553 1709 2553 
Q 1456 2553 1204 2497 
Q 953 2441 691 2322 
L 691 4666 
z
" transform="scale(0.015625)"/>
       </defs>
       <use xlink:href="#DejaVuSans-35"/>
       <use xlink:href="#DejaVuSans-30" x="63.623047"/>
       <use xlink:href="#DejaVuSans-2c" x="127.246094"/>
       <use xlink:href="#DejaVuSans-30" x="159.033203"/>
       <use xlink:href="#DejaVuSans-30" x="222.65625"/>
       <use xlink:href="#DejaVuSans-30" x="286.279297"/>
      </g>
     </g>
    </g>
    <g id="ytick_6">
     <g id="line2d_11">
      <g>
       <use xlink:href="#m32e7e5baf7" x="57.6" y="68.210851" style="stroke: #000000; stroke-width: 0.8"/>
      </g>
     </g>
     <g id="text_12">
      <!-- 60,000 -->
      <g transform="translate(15.609375 72.010069)scale(0.1 -0.1)">
       <defs>
        <path id="DejaVuSans-36" d="M 2113 2584 
Q 1688 2584 1439 2293 
Q 1191 2003 1191 1497 
Q 1191 994 1439 701 
Q 1688 409 2113 409 
Q 2538 409 2786 701 
Q 3034 994 3034 1497 
Q 3034 2003 2786 2293 
Q 2538 2584 2113 2584 
z
M 3366 4563 
L 3366 3988 
Q 3128 4100 2886 4159 
Q 2644 4219 2406 4219 
Q 1781 4219 1451 3797 
Q 1122 3375 1075 2522 
Q 1259 2794 1537 2939 
Q 1816 3084 2150 3084 
Q 2853 3084 3261 2657 
Q 3669 2231 3669 1497 
Q 3669 778 3244 343 
Q 2819 -91 2113 -91 
Q 1303 -91 875 529 
Q 447 1150 447 2328 
Q 447 3434 972 4092 
Q 1497 4750 2381 4750 
Q 2619 4750 2861 4703 
Q 3103 4656 3366 4563 
z
" transform="scale(0.015625)"/>
       </defs>
       <use xlink:href="#DejaVuSans-36"/>
       <use xlink:href="#DejaVuSans-30" x="63.623047"/>
       <use xlink:href="#DejaVuSans-2c" x="127.246094"/>
       <use xlink:href="#DejaVuSans-30" x="159.033203"/>
       <use xlink:href="#DejaVuSans-30" x="222.65625"/>
       <use xlink:href="#DejaVuSans-30" x="286.279297"/>
      </g>
     </g>
    </g>
    <g id="text_13">
     <!-- Value -->
     <g transform="translate(9.529687 188.25925)rotate(-90)scale(0.1 -0.1)">
      <defs>
       <path id="DejaVuSans-56" d="M 1831 0 
L 50 4666 
L 709 4666 
L 2188 738 
L 3669 4666 
L 4325 4666 
L 2547 0 
L 1831 0 
z
" transform="scale(0.015625)"/>
       <path id="DejaVuSans-6c" d="M 603 4863 
L 1178 4863 
L 1178 0 
L 603 0 
L 603 4863 
z
" transform="scale(0.015625)"/>
       <path id="DejaVuSans-75" d="M 544 1381 
L 544 3500 
L 1119 3500 
L 1119 1403 
Q 1119 906 1312 657 
Q 1506 409 1894 409 
Q 2359 409 2629 706 
Q 2900 1003 2900 1516 
L 2900 3500 
L 3475 3500 
L 3475 0 
L 2900 0 
L 2900 538 
Q 2691 219 2414 64 
Q 2138 -91 1772 -91 
Q 1169 -91 856 284 
Q 544 659 544 1381 
z
M 1991 3584 
L 1991 3584 
z
" transform="scale(0.015625)"/>
      </defs>
      <use xlink:href="#DejaVuSans-56"/>
      <use xlink:href="#DejaVuSans-61" x="60.658203"/>
      <use xlink:href="#DejaVuSans-6c" x="121.9375"/>
      <use xlink:href="#DejaVuSans-75" x="149.720703"/>
      <use xlink:href="#DejaVuSans-65" x="213.099609"/>
     </g>
    </g>
   </g>
   <g id="line2d_12">
    <path d="M 73.832727 272.911717 
L 74.483338 273.096275 
L 75.133948 273.406357 
L 75.784558 273.541356 
L 76.435169 273.054049 
L 77.085779 274.05441 
L 77.736389 275.494909 
L 78.386999 280.149103 
L 79.03761 280.649139 
L 79.68822 282.200537 
L 80.33883 282.196006 
L 80.989441 281.161987 
L 81.640051 281.099452 
L 82.290661 280.855943 
L 82.941272 281.456827 
L 83.591882 282.96637 
L 84.242492 281.556315 
L 84.893103 281.647028 
L 85.543713 280.00776 
L 86.194323 280.011961 
L 86.844934 281.260775 
L 87.495544 280.97331 
L 88.796764 282.419411 
L 89.447375 282.113449 
L 90.097985 281.477878 
L 90.748595 281.513059 
L 91.399206 282.319511 
L 92.049816 284.614949 
L 92.700426 284.770175 
L 93.351037 276.038036 
L 94.001647 277.408955 
L 94.652257 276.524931 
L 95.302868 277.63199 
L 95.953478 277.70054 
L 96.604088 277.460862 
L 97.254698 276.587961 
L 97.905309 277.0323 
L 98.555919 276.895736 
L 99.85714 278.157238 
L 100.50775 279.472665 
L 101.15836 279.127814 
L 101.808971 279.28889 
L 103.110191 280.353764 
L 103.760802 281.704744 
L 105.062022 282.092727 
L 105.712633 284.007268 
L 106.363243 286.93082 
L 107.013853 286.012768 
L 107.664463 285.875256 
L 108.315074 284.391379 
L 108.965684 284.7738 
L 109.616294 284.890426 
L 110.266905 285.27396 
L 110.917515 285.326774 
L 111.568125 285.754882 
L 112.218736 284.91811 
L 112.869346 284.397311 
L 113.519956 285.159312 
L 114.170567 285.639904 
L 115.471787 285.770083 
L 116.122398 286.091494 
L 117.423618 288.147254 
L 118.074228 285.378186 
L 118.724839 285.927864 
L 119.375449 284.430185 
L 120.026059 285.748496 
L 120.67667 284.961819 
L 121.97789 286.778683 
L 123.929721 281.748082 
L 124.580332 282.254051 
L 125.230942 283.179847 
L 125.881552 281.713066 
L 126.532163 281.996205 
L 127.182773 278.959323 
L 127.833383 279.076855 
L 128.483993 279.455281 
L 129.134604 279.532194 
L 129.785214 279.848949 
L 130.435824 279.454333 
L 131.086435 279.715186 
L 131.737045 280.830896 
L 132.387655 280.0057 
L 133.038266 278.739501 
L 133.688876 276.721271 
L 134.339486 277.157453 
L 134.990097 276.240597 
L 136.291317 277.642206 
L 136.941927 277.642206 
L 137.592538 275.777019 
L 138.243148 275.197145 
L 138.893758 273.5215 
L 139.544369 274.788769 
L 140.194979 273.056109 
L 140.845589 272.730991 
L 141.4962 273.19185 
L 142.14681 274.447337 
L 142.79742 275.410251 
L 143.448031 273.446358 
L 144.098641 275.818956 
L 144.749251 275.81014 
L 145.399862 274.234272 
L 146.701082 277.036585 
L 147.351692 279.193728 
L 148.002303 279.114631 
L 148.652913 278.669303 
L 149.303523 278.669303 
L 149.954134 279.322177 
L 150.604744 279.303391 
L 151.255354 278.032538 
L 151.905965 282.267522 
L 152.556575 282.710131 
L 153.207185 282.90161 
L 153.857796 282.690728 
L 154.508406 295.488 
L 155.159016 293.353103 
L 155.809627 294.679983 
L 156.460237 293.315326 
L 157.110847 293.098553 
L 157.761457 289.864795 
L 158.412068 291.399673 
L 159.062678 288.600244 
L 159.713288 287.503073 
L 160.363899 287.791568 
L 161.014509 287.5226 
L 161.665119 291.141004 
L 162.31573 288.999309 
L 162.96634 288.9046 
L 163.61695 287.97938 
L 164.267561 287.335735 
L 164.918171 287.466202 
L 165.568781 285.135501 
L 166.219392 285.702563 
L 166.870002 285.04557 
L 167.520612 287.135729 
L 168.171222 287.07686 
L 168.821833 288.099137 
L 169.472443 286.086839 
L 170.123053 286.013634 
L 170.773664 287.207492 
L 171.424274 287.156903 
L 172.074884 286.00972 
L 172.725495 284.581827 
L 173.376105 283.668637 
L 174.026715 283.292147 
L 174.677326 283.396497 
L 175.327936 279.226231 
L 175.978546 279.839474 
L 176.629156 278.705844 
L 177.279767 278.780079 
L 178.580987 277.606572 
L 179.231598 279.321682 
L 179.882208 279.886932 
L 180.532818 279.074218 
L 181.834039 275.054401 
L 182.484649 275.552501 
L 183.78587 275.073227 
L 184.43648 276.206404 
L 185.087091 278.072992 
L 185.737701 278.723517 
L 186.388311 278.957551 
L 187.689532 275.965243 
L 188.340142 276.452879 
L 188.990752 273.349218 
L 189.641363 276.145022 
L 190.942583 275.036892 
L 191.593194 275.204601 
L 192.243804 275.086204 
L 192.894414 275.116854 
L 193.545025 274.634943 
L 194.195635 277.130223 
L 194.846245 276.950403 
L 196.147466 276.143251 
L 198.099297 277.136979 
L 198.749907 275.45981 
L 199.400517 275.74987 
L 200.051128 277.17076 
L 200.701738 277.317953 
L 201.352348 277.785032 
L 202.002959 277.54659 
L 202.653569 277.758255 
L 203.304179 277.336367 
L 203.95479 277.947715 
L 204.6054 277.943142 
L 205.25601 276.872789 
L 205.906621 277.254593 
L 206.557231 276.497247 
L 207.207841 277.329529 
L 207.858451 277.091169 
L 208.509062 277.329158 
L 209.159672 277.261638 
L 210.460893 277.77049 
L 211.111503 277.425845 
L 211.762113 277.635079 
L 212.412724 276.692557 
L 213.063334 276.096287 
L 213.713944 275.784393 
L 214.364555 274.442558 
L 215.015165 269.896298 
L 215.665775 270.338989 
L 216.316385 269.64801 
L 216.966996 269.597504 
L 217.617606 269.750588 
L 218.268216 269.071679 
L 218.918827 269.270737 
L 219.569437 266.980119 
L 220.220047 266.886769 
L 220.870658 267.252919 
L 221.521268 266.392047 
L 222.171878 268.454316 
L 224.123709 266.305618 
L 224.77432 264.741367 
L 225.42493 266.076898 
L 226.07554 267.047186 
L 226.72615 266.504142 
L 227.376761 267.380791 
L 228.027371 266.923887 
L 228.677981 268.681018 
L 229.328592 268.145594 
L 229.979202 268.82681 
L 230.629812 267.353808 
L 231.280423 266.267553 
L 231.931033 268.433677 
L 232.581643 273.418098 
L 233.232254 273.140355 
L 233.882864 272.675623 
L 234.533474 273.68995 
L 235.834695 272.737747 
L 236.485305 272.827925 
L 237.135915 271.41132 
L 237.786526 270.954127 
L 238.437136 270.283416 
L 239.738357 270.401978 
L 240.388967 272.417242 
L 241.039577 271.998032 
L 241.690188 273.2246 
L 242.340798 271.173248 
L 242.991408 271.001008 
L 243.642019 271.338444 
L 244.292629 270.726808 
L 244.943239 270.985848 
L 245.59385 271.639545 
L 246.24446 271.416181 
L 246.89507 270.942016 
L 247.54568 271.703399 
L 248.196291 271.427139 
L 248.846901 270.386941 
L 249.497511 268.519488 
L 250.148122 267.846223 
L 250.798732 268.306794 
L 251.449342 268.294105 
L 252.099953 267.995805 
L 252.750563 267.977391 
L 253.401173 266.947657 
L 254.051784 266.258449 
L 254.702394 262.525685 
L 255.353004 261.871946 
L 256.654225 261.517167 
L 257.304835 259.147988 
L 257.955445 260.641217 
L 258.606056 259.942287 
L 259.256666 258.705502 
L 259.907276 259.462313 
L 260.557887 257.616158 
L 261.208497 257.071218 
L 261.859107 251.156305 
L 262.509718 251.571519 
L 263.160328 252.239181 
L 263.810938 252.286515 
L 264.461549 250.673241 
L 265.112159 248.255369 
L 265.762769 249.604165 
L 266.413379 246.485674 
L 267.06399 242.553233 
L 267.7146 242.064113 
L 268.36521 241.972988 
L 269.015821 239.494187 
L 269.666431 239.590462 
L 270.317041 236.403502 
L 270.967652 238.186133 
L 271.618262 244.729532 
L 272.268872 240.444495 
L 272.919483 234.190415 
L 273.570093 237.968948 
L 274.220703 236.17919 
L 274.871314 235.241694 
L 275.521924 235.558409 
L 276.172534 236.366879 
L 276.823144 239.920194 
L 277.473755 238.950936 
L 278.124365 240.213138 
L 278.774975 236.436624 
L 279.425586 235.974776 
L 280.076196 235.302623 
L 280.726806 227.311723 
L 281.377417 221.264241 
L 282.028027 218.614847 
L 282.678637 221.684357 
L 283.329248 217.237214 
L 283.979858 204.006313 
L 284.630468 202.606969 
L 285.281079 179.436682 
L 285.931689 183.41518 
L 286.582299 175.128039 
L 287.88352 152.720042 
L 288.53413 157.852851 
L 289.18474 168.955775 
L 289.835351 175.271607 
L 290.485961 161.341982 
L 291.136571 154.069498 
L 291.787182 167.933827 
L 292.437792 164.476087 
L 293.088402 166.998185 
L 293.739013 168.980328 
L 294.389623 188.511736 
L 295.040233 182.419021 
L 295.690844 182.557357 
L 296.341454 181.327493 
L 296.992064 190.071868 
L 297.642674 177.778998 
L 298.293285 178.877735 
L 298.943895 177.285759 
L 300.245116 160.175643 
L 300.895726 162.952908 
L 301.546336 155.018529 
L 302.196947 124.384402 
L 302.847557 123.45634 
L 303.498167 130.506654 
L 304.148778 117.590861 
L 304.799388 114.678349 
L 305.449998 117.84434 
L 306.100608 112.86684 
L 306.751219 100.680545 
L 307.401829 102.781868 
L 308.052439 78.559848 
L 308.70305 92.420058 
L 309.35366 114.018967 
L 310.00427 106.832706 
L 310.654881 122.587764 
L 311.305491 129.53546 
L 311.956101 110.978707 
L 312.606712 116.179241 
L 313.257322 107.438863 
L 313.907932 115.796654 
L 314.558543 104.588104 
L 315.209153 99.934486 
L 315.859763 89.296911 
L 316.510373 84.700639 
L 317.160984 77.422263 
L 317.811594 71.780603 
L 318.462204 85.699682 
L 319.112815 81.095376 
L 319.763425 72.68885 
L 320.414035 77.826396 
L 321.064646 78.87578 
L 321.715256 92.084064 
L 322.365866 90.961475 
L 323.016477 99.073903 
L 323.667087 103.573777 
L 324.317697 85.580255 
L 324.968308 77.983888 
L 325.618918 73.4422 
L 326.269528 73.421107 
L 326.920138 72.107575 
L 327.570749 76.365752 
L 328.221359 84.906454 
L 329.52258 68.355572 
L 330.17319 68.891655 
L 330.8238 53.568 
L 331.474411 55.979281 
L 332.125021 54.811335 
L 332.775631 83.653232 
L 333.426242 85.91217 
L 334.076852 82.596844 
L 334.727462 93.716082 
L 335.378073 102.27285 
L 336.028683 113.215028 
L 336.679293 92.695082 
L 337.329903 88.514436 
L 337.980514 89.286283 
L 338.631124 94.641549 
L 339.281734 79.6908 
L 339.932345 96.052222 
L 340.582955 78.620118 
L 341.233565 82.925382 
L 341.884176 75.293545 
L 342.534786 85.16916 
L 343.185396 81.599532 
L 343.836007 113.497179 
L 344.486617 110.63332 
L 345.787837 135.787686 
L 346.438448 138.605694 
L 347.089058 163.108711 
L 347.739668 147.371655 
L 348.390279 172.211902 
L 349.040889 155.840429 
L 349.691499 157.150831 
L 350.34211 153.626353 
L 350.99272 157.00751 
L 351.64333 161.682219 
L 352.293941 164.351305 
L 352.944551 160.550567 
L 353.595161 153.945415 
L 354.245772 167.838417 
L 354.896382 177.31884 
L 355.546992 177.585295 
L 356.197602 161.567612 
L 356.848213 164.17857 
L 357.498823 154.447058 
L 358.149433 148.436653 
L 358.800044 149.825945 
L 359.450654 157.503591 
L 360.101264 158.561627 
L 360.751875 168.760465 
L 361.402485 184.850776 
L 362.053095 181.7156 
L 362.703706 176.66057 
L 363.354316 172.686315 
L 364.004926 172.665428 
L 364.655537 173.439006 
L 365.306147 167.708527 
L 365.956757 171.005603 
L 366.607367 177.228167 
L 367.257978 169.926516 
L 367.908588 176.358562 
L 368.559198 174.451025 
L 369.209809 175.983391 
L 369.860419 179.944916 
L 370.511029 174.382517 
L 371.16164 178.787969 
L 371.81225 180.731141 
L 372.46286 180.203627 
L 373.113471 184.636393 
L 373.764081 184.451423 
L 375.065302 192.662804 
L 375.715912 183.07313 
L 376.366522 182.332304 
L 377.017132 169.696231 
L 378.318353 153.04998 
L 378.968963 150.592313 
L 380.270184 150.60084 
L 380.920794 153.923376 
L 381.571405 158.27342 
L 382.222015 151.632057 
L 382.872625 146.969253 
L 384.173846 124.51145 
L 384.824456 127.498527 
L 385.475066 127.485797 
L 386.125677 132.403274 
L 386.776287 121.533189 
L 387.426897 125.957057 
L 388.077508 131.452513 
L 388.728118 130.919891 
L 389.378728 122.85871 
L 390.029339 112.143522 
L 390.679949 111.36978 
L 391.330559 118.698208 
L 391.98117 113.641365 
L 392.63178 121.918825 
L 393.933001 121.123455 
L 394.583611 114.09176 
L 395.234221 112.171 
L 395.884831 102.118984 
L 396.535442 98.376991 
L 397.186052 122.551718 
L 397.836662 125.562276 
L 398.487273 124.366317 
L 398.487273 124.366317 
" clip-path="url(#p7a27b37b2c)" style="fill: none; stroke: #1f77b4; stroke-width: 1.5; stroke-linecap: square"/>
   </g>
   <g id="line2d_13">
    <path d="M 389.378728 122.85871 
L 390.029339 112.143522 
L 390.679949 111.36978 
L 391.330559 118.698208 
L 391.98117 113.641365 
L 392.63178 121.918825 
L 393.28239 121.457554 
L 393.933001 121.123455 
L 394.583611 114.09176 
L 395.234221 112.171 
L 395.884831 102.118984 
L 396.535442 98.376991 
L 397.186052 122.551718 
L 397.836662 125.562276 
L 398.487273 124.366317 
" clip-path="url(#p7a27b37b2c)" style="fill: none; stroke: #ff7f0e; stroke-width: 1.5; stroke-linecap: square"/>
   </g>
   <g id="patch_3">
    <path d="M 57.6 307.584 
L 57.6 41.472 
" style="fill: none; stroke: #000000; stroke-width: 0.8; stroke-linejoin: miter; stroke-linecap: square"/>
   </g>
   <g id="patch_4">
    <path d="M 414.72 307.584 
L 414.72 41.472 
" style="fill: none; stroke: #000000; stroke-width: 0.8; stroke-linejoin: miter; stroke-linecap: square"/>
   </g>
   <g id="patch_5">
    <path d="M 57.6 307.584 
L 414.72 307.584 
" style="fill: none; stroke: #000000; stroke-width: 0.8; stroke-linejoin: miter; stroke-linecap: square"/>
   </g>
   <g id="patch_6">
    <path d="M 57.6 41.472 
L 414.72 41.472 
" style="fill: none; stroke: #000000; stroke-width: 0.8; stroke-linejoin: miter; stroke-linecap: square"/>
   </g>
   <g id="legend_1">
    <g id="patch_7">
     <path d="M 326.87 302.584 
L 407.72 302.584 
Q 409.72 302.584 409.72 300.584 
L 409.72 271.949625 
Q 409.72 269.949625 407.72 269.949625 
L 326.87 269.949625 
Q 324.87 269.949625 324.87 271.949625 
L 324.87 300.584 
Q 324.87 302.584 326.87 302.584 
z
" style="fill: #ffffff; opacity: 0.8; stroke: #cccccc; stroke-linejoin: miter"/>
    </g>
    <g id="line2d_14">
     <path d="M 328.87 278.048062 
L 338.87 278.048062 
L 348.87 278.048062 
" style="fill: none; stroke: #1f77b4; stroke-width: 1.5; stroke-linecap: square"/>
    </g>
    <g id="text_14">
     <!-- Value -->
     <g transform="translate(356.87 281.548062)scale(0.1 -0.1)">
      <use xlink:href="#DejaVuSans-56"/>
      <use xlink:href="#DejaVuSans-61" x="60.658203"/>
      <use xlink:href="#DejaVuSans-6c" x="121.9375"/>
      <use xlink:href="#DejaVuSans-75" x="149.720703"/>
      <use xlink:href="#DejaVuSans-65" x="213.099609"/>
     </g>
    </g>
    <g id="line2d_15">
     <path d="M 328.87 292.726187 
L 338.87 292.726187 
L 348.87 292.726187 
" style="fill: none; stroke: #ff7f0e; stroke-width: 1.5; stroke-linecap: square"/>
    </g>
    <g id="text_15">
     <!-- Value_pre -->
     <g transform="translate(356.87 296.226187)scale(0.1 -0.1)">
      <defs>
       <path id="DejaVuSans-5f" d="M 3263 -1063 
L 3263 -1509 
L -63 -1509 
L -63 -1063 
L 3263 -1063 
z
" transform="scale(0.015625)"/>
       <path id="DejaVuSans-70" d="M 1159 525 
L 1159 -1331 
L 581 -1331 
L 581 3500 
L 1159 3500 
L 1159 2969 
Q 1341 3281 1617 3432 
Q 1894 3584 2278 3584 
Q 2916 3584 3314 3078 
Q 3713 2572 3713 1747 
Q 3713 922 3314 415 
Q 2916 -91 2278 -91 
Q 1894 -91 1617 61 
Q 1341 213 1159 525 
z
M 3116 1747 
Q 3116 2381 2855 2742 
Q 2594 3103 2138 3103 
Q 1681 3103 1420 2742 
Q 1159 2381 1159 1747 
Q 1159 1113 1420 752 
Q 1681 391 2138 391 
Q 2594 391 2855 752 
Q 3116 1113 3116 1747 
z
" transform="scale(0.015625)"/>
       <path id="DejaVuSans-72" d="M 2631 2963 
Q 2534 3019 2420 3045 
Q 2306 3072 2169 3072 
Q 1681 3072 1420 2755 
Q 1159 2438 1159 1844 
L 1159 0 
L 581 0 
L 581 3500 
L 1159 3500 
L 1159 2956 
Q 1341 3275 1631 3429 
Q 1922 3584 2338 3584 
Q 2397 3584 2469 3576 
Q 2541 3569 2628 3553 
L 2631 2963 
z
" transform="scale(0.015625)"/>
      </defs>
      <use xlink:href="#DejaVuSans-56"/>
      <use xlink:href="#DejaVuSans-61" x="60.658203"/>
      <use xlink:href="#DejaVuSans-6c" x="121.9375"/>
      <use xlink:href="#DejaVuSans-75" x="149.720703"/>
      <use xlink:href="#DejaVuSans-65" x="213.099609"/>
      <use xlink:href="#DejaVuSans-5f" x="274.623047"/>
      <use xlink:href="#DejaVuSans-70" x="324.623047"/>
      <use xlink:href="#DejaVuSans-72" x="388.099609"/>
      <use xlink:href="#DejaVuSans-65" x="426.962891"/>
     </g>
    </g>
   </g>
  </g>
 </g>
 <defs>
  <clipPath id="p7a27b37b2c">
   <rect x="57.6" y="41.472" width="357.12" height="266.112"/>
  </clipPath>
 </defs>
</svg>
