<?xml version="1.0" encoding="utf-8" standalone="no"?>
<!DOCTYPE svg PUBLIC "-//W3C//DTD SVG 1.1//EN"
  "http://www.w3.org/Graphics/SVG/1.1/DTD/svg11.dtd">
<svg xmlns:xlink="http://www.w3.org/1999/xlink" width="460.8pt" height="345.6pt" viewBox="0 0 460.8 345.6" xmlns="http://www.w3.org/2000/svg" version="1.1">
 <metadata>
  <rdf:RDF xmlns:dc="http://purl.org/dc/elements/1.1/" xmlns:cc="http://creativecommons.org/ns#" xmlns:rdf="http://www.w3.org/1999/02/22-rdf-syntax-ns#">
   <cc:Work>
    <dc:type rdf:resource="http://purl.org/dc/dcmitype/StillImage"/>
    <dc:date>2022-10-26T23:06:43.228189</dc:date>
    <dc:format>image/svg+xml</dc:format>
    <dc:creator>
     <cc:Agent>
      <dc:title>Matplotlib v3.5.2, https://matplotlib.org/</dc:title>
     </cc:Agent>
    </dc:creator>
   </cc:Work>
  </rdf:RDF>
 </metadata>
 <defs>
  <style type="text/css">*{stroke-linejoin: round; stroke-linecap: butt}</style>
 </defs>
 <g id="figure_1">
  <g id="patch_1">
   <path d="M 0 345.6 
L 460.8 345.6 
L 460.8 0 
L 0 0 
z
" style="fill: #ffffff"/>
  </g>
  <g id="axes_1">
   <g id="patch_2">
    <path d="M 57.6 307.584 
L 414.72 307.584 
L 414.72 41.472 
L 57.6 41.472 
z
" style="fill: #ffffff"/>
   </g>
   <g id="matplotlib.axis_1">
    <g id="xtick_1">
     <g id="line2d_1">
      <defs>
       <path id="m7c4af2f26d" d="M 0 0 
L 0 3.5 
" style="stroke: #000000; stroke-width: 0.8"/>
      </defs>
      <g>
       <use xlink:href="#m7c4af2f26d" x="73.832727" y="307.584" style="stroke: #000000; stroke-width: 0.8"/>
      </g>
     </g>
     <g id="text_1">
      <!-- 0 -->
      <g transform="translate(70.651477 322.182437)scale(0.1 -0.1)">
       <defs>
        <path id="DejaVuSans-30" d="M 2034 4250 
Q 1547 4250 1301 3770 
Q 1056 3291 1056 2328 
Q 1056 1369 1301 889 
Q 1547 409 2034 409 
Q 2525 409 2770 889 
Q 3016 1369 3016 2328 
Q 3016 3291 2770 3770 
Q 2525 4250 2034 4250 
z
M 2034 4750 
Q 2819 4750 3233 4129 
Q 3647 3509 3647 2328 
Q 3647 1150 3233 529 
Q 2819 -91 2034 -91 
Q 1250 -91 836 529 
Q 422 1150 422 2328 
Q 422 3509 836 4129 
Q 1250 4750 2034 4750 
z
" transform="scale(0.015625)"/>
       </defs>
       <use xlink:href="#DejaVuSans-30"/>
      </g>
     </g>
    </g>
    <g id="xtick_2">
     <g id="line2d_2">
      <g>
       <use xlink:href="#m7c4af2f26d" x="118.305953" y="307.584" style="stroke: #000000; stroke-width: 0.8"/>
      </g>
     </g>
     <g id="text_2">
      <!-- 250 -->
      <g transform="translate(108.762203 322.182437)scale(0.1 -0.1)">
       <defs>
        <path id="DejaVuSans-32" d="M 1228 531 
L 3431 531 
L 3431 0 
L 469 0 
L 469 531 
Q 828 903 1448 1529 
Q 2069 2156 2228 2338 
Q 2531 2678 2651 2914 
Q 2772 3150 2772 3378 
Q 2772 3750 2511 3984 
Q 2250 4219 1831 4219 
Q 1534 4219 1204 4116 
Q 875 4013 500 3803 
L 500 4441 
Q 881 4594 1212 4672 
Q 1544 4750 1819 4750 
Q 2544 4750 2975 4387 
Q 3406 4025 3406 3419 
Q 3406 3131 3298 2873 
Q 3191 2616 2906 2266 
Q 2828 2175 2409 1742 
Q 1991 1309 1228 531 
z
" transform="scale(0.015625)"/>
        <path id="DejaVuSans-35" d="M 691 4666 
L 3169 4666 
L 3169 4134 
L 1269 4134 
L 1269 2991 
Q 1406 3038 1543 3061 
Q 1681 3084 1819 3084 
Q 2600 3084 3056 2656 
Q 3513 2228 3513 1497 
Q 3513 744 3044 326 
Q 2575 -91 1722 -91 
Q 1428 -91 1123 -41 
Q 819 9 494 109 
L 494 744 
Q 775 591 1075 516 
Q 1375 441 1709 441 
Q 2250 441 2565 725 
Q 2881 1009 2881 1497 
Q 2881 1984 2565 2268 
Q 2250 2553 1709 2553 
Q 1456 2553 1204 2497 
Q 953 2441 691 2322 
L 691 4666 
z
" transform="scale(0.015625)"/>
       </defs>
       <use xlink:href="#DejaVuSans-32"/>
       <use xlink:href="#DejaVuSans-35" x="63.623047"/>
       <use xlink:href="#DejaVuSans-30" x="127.246094"/>
      </g>
     </g>
    </g>
    <g id="xtick_3">
     <g id="line2d_3">
      <g>
       <use xlink:href="#m7c4af2f26d" x="162.779178" y="307.584" style="stroke: #000000; stroke-width: 0.8"/>
      </g>
     </g>
     <g id="text_3">
      <!-- 500 -->
      <g transform="translate(153.235428 322.182437)scale(0.1 -0.1)">
       <use xlink:href="#DejaVuSans-35"/>
       <use xlink:href="#DejaVuSans-30" x="63.623047"/>
       <use xlink:href="#DejaVuSans-30" x="127.246094"/>
      </g>
     </g>
    </g>
    <g id="xtick_4">
     <g id="line2d_4">
      <g>
       <use xlink:href="#m7c4af2f26d" x="207.252403" y="307.584" style="stroke: #000000; stroke-width: 0.8"/>
      </g>
     </g>
     <g id="text_4">
      <!-- 750 -->
      <g transform="translate(197.708653 322.182437)scale(0.1 -0.1)">
       <defs>
        <path id="DejaVuSans-37" d="M 525 4666 
L 3525 4666 
L 3525 4397 
L 1831 0 
L 1172 0 
L 2766 4134 
L 525 4134 
L 525 4666 
z
" transform="scale(0.015625)"/>
       </defs>
       <use xlink:href="#DejaVuSans-37"/>
       <use xlink:href="#DejaVuSans-35" x="63.623047"/>
       <use xlink:href="#DejaVuSans-30" x="127.246094"/>
      </g>
     </g>
    </g>
    <g id="xtick_5">
     <g id="line2d_5">
      <g>
       <use xlink:href="#m7c4af2f26d" x="251.725629" y="307.584" style="stroke: #000000; stroke-width: 0.8"/>
      </g>
     </g>
     <g id="text_5">
      <!-- 1,000 -->
      <g transform="translate(237.411566 322.182437)scale(0.1 -0.1)">
       <defs>
        <path id="DejaVuSans-31" d="M 794 531 
L 1825 531 
L 1825 4091 
L 703 3866 
L 703 4441 
L 1819 4666 
L 2450 4666 
L 2450 531 
L 3481 531 
L 3481 0 
L 794 0 
L 794 531 
z
" transform="scale(0.015625)"/>
        <path id="DejaVuSans-2c" d="M 750 794 
L 1409 794 
L 1409 256 
L 897 -744 
L 494 -744 
L 750 256 
L 750 794 
z
" transform="scale(0.015625)"/>
       </defs>
       <use xlink:href="#DejaVuSans-31"/>
       <use xlink:href="#DejaVuSans-2c" x="63.623047"/>
       <use xlink:href="#DejaVuSans-30" x="95.410156"/>
       <use xlink:href="#DejaVuSans-30" x="159.033203"/>
       <use xlink:href="#DejaVuSans-30" x="222.65625"/>
      </g>
     </g>
    </g>
    <g id="xtick_6">
     <g id="line2d_6">
      <g>
       <use xlink:href="#m7c4af2f26d" x="296.198854" y="307.584" style="stroke: #000000; stroke-width: 0.8"/>
      </g>
     </g>
     <g id="text_6">
      <!-- 1,250 -->
      <g transform="translate(281.884792 322.182437)scale(0.1 -0.1)">
       <use xlink:href="#DejaVuSans-31"/>
       <use xlink:href="#DejaVuSans-2c" x="63.623047"/>
       <use xlink:href="#DejaVuSans-32" x="95.410156"/>
       <use xlink:href="#DejaVuSans-35" x="159.033203"/>
       <use xlink:href="#DejaVuSans-30" x="222.65625"/>
      </g>
     </g>
    </g>
    <g id="xtick_7">
     <g id="line2d_7">
      <g>
       <use xlink:href="#m7c4af2f26d" x="340.67208" y="307.584" style="stroke: #000000; stroke-width: 0.8"/>
      </g>
     </g>
     <g id="text_7">
      <!-- 1,500 -->
      <g transform="translate(326.358017 322.182437)scale(0.1 -0.1)">
       <use xlink:href="#DejaVuSans-31"/>
       <use xlink:href="#DejaVuSans-2c" x="63.623047"/>
       <use xlink:href="#DejaVuSans-35" x="95.410156"/>
       <use xlink:href="#DejaVuSans-30" x="159.033203"/>
       <use xlink:href="#DejaVuSans-30" x="222.65625"/>
      </g>
     </g>
    </g>
    <g id="xtick_8">
     <g id="line2d_8">
      <g>
       <use xlink:href="#m7c4af2f26d" x="385.145305" y="307.584" style="stroke: #000000; stroke-width: 0.8"/>
      </g>
     </g>
     <g id="text_8">
      <!-- 1,750 -->
      <g transform="translate(370.831243 322.182437)scale(0.1 -0.1)">
       <use xlink:href="#DejaVuSans-31"/>
       <use xlink:href="#DejaVuSans-2c" x="63.623047"/>
       <use xlink:href="#DejaVuSans-37" x="95.410156"/>
       <use xlink:href="#DejaVuSans-35" x="159.033203"/>
       <use xlink:href="#DejaVuSans-30" x="222.65625"/>
      </g>
     </g>
    </g>
    <g id="text_9">
     <!-- Data -->
     <g transform="translate(224.221719 335.860562)scale(0.1 -0.1)">
      <defs>
       <path id="DejaVuSans-44" d="M 1259 4147 
L 1259 519 
L 2022 519 
Q 2988 519 3436 956 
Q 3884 1394 3884 2338 
Q 3884 3275 3436 3711 
Q 2988 4147 2022 4147 
L 1259 4147 
z
M 628 4666 
L 1925 4666 
Q 3281 4666 3915 4102 
Q 4550 3538 4550 2338 
Q 4550 1131 3912 565 
Q 3275 0 1925 0 
L 628 0 
L 628 4666 
z
" transform="scale(0.015625)"/>
       <path id="DejaVuSans-61" d="M 2194 1759 
Q 1497 1759 1228 1600 
Q 959 1441 959 1056 
Q 959 750 1161 570 
Q 1363 391 1709 391 
Q 2188 391 2477 730 
Q 2766 1069 2766 1631 
L 2766 1759 
L 2194 1759 
z
M 3341 1997 
L 3341 0 
L 2766 0 
L 2766 531 
Q 2569 213 2275 61 
Q 1981 -91 1556 -91 
Q 1019 -91 701 211 
Q 384 513 384 1019 
Q 384 1609 779 1909 
Q 1175 2209 1959 2209 
L 2766 2209 
L 2766 2266 
Q 2766 2663 2505 2880 
Q 2244 3097 1772 3097 
Q 1472 3097 1187 3025 
Q 903 2953 641 2809 
L 641 3341 
Q 956 3463 1253 3523 
Q 1550 3584 1831 3584 
Q 2591 3584 2966 3190 
Q 3341 2797 3341 1997 
z
" transform="scale(0.015625)"/>
       <path id="DejaVuSans-74" d="M 1172 4494 
L 1172 3500 
L 2356 3500 
L 2356 3053 
L 1172 3053 
L 1172 1153 
Q 1172 725 1289 603 
Q 1406 481 1766 481 
L 2356 481 
L 2356 0 
L 1766 0 
Q 1100 0 847 248 
Q 594 497 594 1153 
L 594 3053 
L 172 3053 
L 172 3500 
L 594 3500 
L 594 4494 
L 1172 4494 
z
" transform="scale(0.015625)"/>
      </defs>
      <use xlink:href="#DejaVuSans-44"/>
      <use xlink:href="#DejaVuSans-61" x="77.001953"/>
      <use xlink:href="#DejaVuSans-74" x="138.28125"/>
      <use xlink:href="#DejaVuSans-61" x="177.490234"/>
     </g>
    </g>
   </g>
   <g id="matplotlib.axis_2">
    <g id="ytick_1">
     <g id="line2d_9">
      <defs>
       <path id="m7b0781baf4" d="M 0 0 
L -3.5 0 
" style="stroke: #000000; stroke-width: 0.8"/>
      </defs>
      <g>
       <use xlink:href="#m7b0781baf4" x="57.6" y="297.770703" style="stroke: #000000; stroke-width: 0.8"/>
      </g>
     </g>
     <g id="text_10">
      <!-- 0 -->
      <g transform="translate(44.2375 301.569922)scale(0.1 -0.1)">
       <use xlink:href="#DejaVuSans-30"/>
      </g>
     </g>
    </g>
    <g id="ytick_2">
     <g id="line2d_10">
      <g>
       <use xlink:href="#m7b0781baf4" x="57.6" y="259.346527" style="stroke: #000000; stroke-width: 0.8"/>
      </g>
     </g>
     <g id="text_11">
      <!-- 10,000 -->
      <g transform="translate(15.609375 263.145746)scale(0.1 -0.1)">
       <use xlink:href="#DejaVuSans-31"/>
       <use xlink:href="#DejaVuSans-30" x="63.623047"/>
       <use xlink:href="#DejaVuSans-2c" x="127.246094"/>
       <use xlink:href="#DejaVuSans-30" x="159.033203"/>
       <use xlink:href="#DejaVuSans-30" x="222.65625"/>
       <use xlink:href="#DejaVuSans-30" x="286.279297"/>
      </g>
     </g>
    </g>
    <g id="ytick_3">
     <g id="line2d_11">
      <g>
       <use xlink:href="#m7b0781baf4" x="57.6" y="220.92235" style="stroke: #000000; stroke-width: 0.8"/>
      </g>
     </g>
     <g id="text_12">
      <!-- 20,000 -->
      <g transform="translate(15.609375 224.721569)scale(0.1 -0.1)">
       <use xlink:href="#DejaVuSans-32"/>
       <use xlink:href="#DejaVuSans-30" x="63.623047"/>
       <use xlink:href="#DejaVuSans-2c" x="127.246094"/>
       <use xlink:href="#DejaVuSans-30" x="159.033203"/>
       <use xlink:href="#DejaVuSans-30" x="222.65625"/>
       <use xlink:href="#DejaVuSans-30" x="286.279297"/>
      </g>
     </g>
    </g>
    <g id="ytick_4">
     <g id="line2d_12">
      <g>
       <use xlink:href="#m7b0781baf4" x="57.6" y="182.498173" style="stroke: #000000; stroke-width: 0.8"/>
      </g>
     </g>
     <g id="text_13">
      <!-- 30,000 -->
      <g transform="translate(15.609375 186.297392)scale(0.1 -0.1)">
       <defs>
        <path id="DejaVuSans-33" d="M 2597 2516 
Q 3050 2419 3304 2112 
Q 3559 1806 3559 1356 
Q 3559 666 3084 287 
Q 2609 -91 1734 -91 
Q 1441 -91 1130 -33 
Q 819 25 488 141 
L 488 750 
Q 750 597 1062 519 
Q 1375 441 1716 441 
Q 2309 441 2620 675 
Q 2931 909 2931 1356 
Q 2931 1769 2642 2001 
Q 2353 2234 1838 2234 
L 1294 2234 
L 1294 2753 
L 1863 2753 
Q 2328 2753 2575 2939 
Q 2822 3125 2822 3475 
Q 2822 3834 2567 4026 
Q 2313 4219 1838 4219 
Q 1578 4219 1281 4162 
Q 984 4106 628 3988 
L 628 4550 
Q 988 4650 1302 4700 
Q 1616 4750 1894 4750 
Q 2613 4750 3031 4423 
Q 3450 4097 3450 3541 
Q 3450 3153 3228 2886 
Q 3006 2619 2597 2516 
z
" transform="scale(0.015625)"/>
       </defs>
       <use xlink:href="#DejaVuSans-33"/>
       <use xlink:href="#DejaVuSans-30" x="63.623047"/>
       <use xlink:href="#DejaVuSans-2c" x="127.246094"/>
       <use xlink:href="#DejaVuSans-30" x="159.033203"/>
       <use xlink:href="#DejaVuSans-30" x="222.65625"/>
       <use xlink:href="#DejaVuSans-30" x="286.279297"/>
      </g>
     </g>
    </g>
    <g id="ytick_5">
     <g id="line2d_13">
      <g>
       <use xlink:href="#m7b0781baf4" x="57.6" y="144.073997" style="stroke: #000000; stroke-width: 0.8"/>
      </g>
     </g>
     <g id="text_14">
      <!-- 40,000 -->
      <g transform="translate(15.609375 147.873215)scale(0.1 -0.1)">
       <defs>
        <path id="DejaVuSans-34" d="M 2419 4116 
L 825 1625 
L 2419 1625 
L 2419 4116 
z
M 2253 4666 
L 3047 4666 
L 3047 1625 
L 3713 1625 
L 3713 1100 
L 3047 1100 
L 3047 0 
L 2419 0 
L 2419 1100 
L 313 1100 
L 313 1709 
L 2253 4666 
z
" transform="scale(0.015625)"/>
       </defs>
       <use xlink:href="#DejaVuSans-34"/>
       <use xlink:href="#DejaVuSans-30" x="63.623047"/>
       <use xlink:href="#DejaVuSans-2c" x="127.246094"/>
       <use xlink:href="#DejaVuSans-30" x="159.033203"/>
       <use xlink:href="#DejaVuSans-30" x="222.65625"/>
       <use xlink:href="#DejaVuSans-30" x="286.279297"/>
      </g>
     </g>
    </g>
    <g id="ytick_6">
     <g id="line2d_14">
      <g>
       <use xlink:href="#m7b0781baf4" x="57.6" y="105.64982" style="stroke: #000000; stroke-width: 0.8"/>
      </g>
     </g>
     <g id="text_15">
      <!-- 50,000 -->
      <g transform="translate(15.609375 109.449039)scale(0.1 -0.1)">
       <use xlink:href="#DejaVuSans-35"/>
       <use xlink:href="#DejaVuSans-30" x="63.623047"/>
       <use xlink:href="#DejaVuSans-2c" x="127.246094"/>
       <use xlink:href="#DejaVuSans-30" x="159.033203"/>
       <use xlink:href="#DejaVuSans-30" x="222.65625"/>
       <use xlink:href="#DejaVuSans-30" x="286.279297"/>
      </g>
     </g>
    </g>
    <g id="ytick_7">
     <g id="line2d_15">
      <g>
       <use xlink:href="#m7b0781baf4" x="57.6" y="67.225643" style="stroke: #000000; stroke-width: 0.8"/>
      </g>
     </g>
     <g id="text_16">
      <!-- 60,000 -->
      <g transform="translate(15.609375 71.024862)scale(0.1 -0.1)">
       <defs>
        <path id="DejaVuSans-36" d="M 2113 2584 
Q 1688 2584 1439 2293 
Q 1191 2003 1191 1497 
Q 1191 994 1439 701 
Q 1688 409 2113 409 
Q 2538 409 2786 701 
Q 3034 994 3034 1497 
Q 3034 2003 2786 2293 
Q 2538 2584 2113 2584 
z
M 3366 4563 
L 3366 3988 
Q 3128 4100 2886 4159 
Q 2644 4219 2406 4219 
Q 1781 4219 1451 3797 
Q 1122 3375 1075 2522 
Q 1259 2794 1537 2939 
Q 1816 3084 2150 3084 
Q 2853 3084 3261 2657 
Q 3669 2231 3669 1497 
Q 3669 778 3244 343 
Q 2819 -91 2113 -91 
Q 1303 -91 875 529 
Q 447 1150 447 2328 
Q 447 3434 972 4092 
Q 1497 4750 2381 4750 
Q 2619 4750 2861 4703 
Q 3103 4656 3366 4563 
z
" transform="scale(0.015625)"/>
       </defs>
       <use xlink:href="#DejaVuSans-36"/>
       <use xlink:href="#DejaVuSans-30" x="63.623047"/>
       <use xlink:href="#DejaVuSans-2c" x="127.246094"/>
       <use xlink:href="#DejaVuSans-30" x="159.033203"/>
       <use xlink:href="#DejaVuSans-30" x="222.65625"/>
       <use xlink:href="#DejaVuSans-30" x="286.279297"/>
      </g>
     </g>
    </g>
    <g id="text_17">
     <!-- Value -->
     <g transform="translate(9.529687 188.25925)rotate(-90)scale(0.1 -0.1)">
      <defs>
       <path id="DejaVuSans-56" d="M 1831 0 
L 50 4666 
L 709 4666 
L 2188 738 
L 3669 4666 
L 4325 4666 
L 2547 0 
L 1831 0 
z
" transform="scale(0.015625)"/>
       <path id="DejaVuSans-6c" d="M 603 4863 
L 1178 4863 
L 1178 0 
L 603 0 
L 603 4863 
z
" transform="scale(0.015625)"/>
       <path id="DejaVuSans-75" d="M 544 1381 
L 544 3500 
L 1119 3500 
L 1119 1403 
Q 1119 906 1312 657 
Q 1506 409 1894 409 
Q 2359 409 2629 706 
Q 2900 1003 2900 1516 
L 2900 3500 
L 3475 3500 
L 3475 0 
L 2900 0 
L 2900 538 
Q 2691 219 2414 64 
Q 2138 -91 1772 -91 
Q 1169 -91 856 284 
Q 544 659 544 1381 
z
M 1991 3584 
L 1991 3584 
z
" transform="scale(0.015625)"/>
       <path id="DejaVuSans-65" d="M 3597 1894 
L 3597 1613 
L 953 1613 
Q 991 1019 1311 708 
Q 1631 397 2203 397 
Q 2534 397 2845 478 
Q 3156 559 3463 722 
L 3463 178 
Q 3153 47 2828 -22 
Q 2503 -91 2169 -91 
Q 1331 -91 842 396 
Q 353 884 353 1716 
Q 353 2575 817 3079 
Q 1281 3584 2069 3584 
Q 2775 3584 3186 3129 
Q 3597 2675 3597 1894 
z
M 3022 2063 
Q 3016 2534 2758 2815 
Q 2500 3097 2075 3097 
Q 1594 3097 1305 2825 
Q 1016 2553 972 2059 
L 3022 2063 
z
" transform="scale(0.015625)"/>
      </defs>
      <use xlink:href="#DejaVuSans-56"/>
      <use xlink:href="#DejaVuSans-61" x="60.658203"/>
      <use xlink:href="#DejaVuSans-6c" x="121.9375"/>
      <use xlink:href="#DejaVuSans-75" x="149.720703"/>
      <use xlink:href="#DejaVuSans-65" x="213.099609"/>
     </g>
    </g>
   </g>
   <g id="line2d_16">
    <path d="M 73.832727 295.382065 
L 74.366406 295.431363 
L 77.746371 295.41972 
L 79.169514 295.4085 
L 79.5253 295.32708 
L 80.948443 295.342603 
L 81.304229 295.260644 
L 81.837908 295.26756 
L 82.193694 295.12835 
L 82.905265 295.0925 
L 83.083158 294.952943 
L 83.261051 295.134152 
L 83.616837 295.062606 
L 84.506301 294.998399 
L 85.573659 295.03594 
L 85.929445 294.898419 
L 87.352588 294.951637 
L 87.886267 294.955326 
L 88.775731 294.839054 
L 89.30941 294.854347 
L 90.020981 294.785145 
L 91.622017 294.72332 
L 92.333589 294.344765 
L 92.689375 294.322787 
L 93.223054 294.068995 
L 93.578839 294.089206 
L 93.934625 293.866922 
L 94.112518 293.876721 
L 94.290411 293.441221 
L 94.468304 293.948766 
L 94.646197 293.929631 
L 94.82409 294.324708 
L 95.357768 294.289281 
L 95.535661 294.75356 
L 95.713554 294.770083 
L 95.891447 294.595752 
L 96.425126 294.579576 
L 96.603019 294.297773 
L 97.848269 294.235795 
L 98.026162 294.339249 
L 98.381948 294.254699 
L 99.093519 294.0639 
L 99.982984 293.797375 
L 100.160877 293.836015 
L 100.516663 293.725252 
L 100.694555 294.020108 
L 101.050341 293.937546 
L 102.117699 293.793033 
L 102.473484 293.725486 
L 102.651377 293.732822 
L 102.82927 293.452639 
L 103.185056 293.428733 
L 103.362949 293.256377 
L 103.718735 293.350501 
L 103.896628 293.195337 
L 104.252413 293.194807 
L 104.608199 292.832659 
L 105.319771 292.85433 
L 105.497664 293.323515 
L 105.85345 293.190196 
L 106.031342 293.239879 
L 106.209235 293.054156 
L 106.565021 292.985469 
L 106.920807 292.940784 
L 107.276593 294.111829 
L 107.454486 294.052434 
L 107.810271 293.47246 
L 107.988164 293.494093 
L 108.521843 294.205209 
L 108.699736 294.094331 
L 108.877629 293.785235 
L 109.5892 293.7948 
L 109.944986 293.547237 
L 110.122879 293.620931 
L 110.300772 293.384198 
L 110.656558 293.415208 
L 110.834451 293.196481 
L 111.190237 293.221166 
L 111.546022 293.057529 
L 111.723915 293.086451 
L 111.901808 293.23656 
L 112.61338 293.138151 
L 112.791273 293.248293 
L 113.147059 292.999626 
L 113.324951 293.019055 
L 113.680737 292.936988 
L 113.85863 293.002878 
L 114.214416 292.740557 
L 114.392309 292.821593 
L 114.570202 292.655314 
L 114.925988 292.648761 
L 115.281773 292.19122 
L 115.459666 292.208612 
L 115.815452 291.87899 
L 115.993345 291.935032 
L 116.171238 291.869255 
L 116.349131 291.466759 
L 116.527024 291.426488 
L 116.882809 290.773697 
L 117.060702 290.742922 
L 117.238595 290.962247 
L 117.594381 290.9312 
L 117.772274 291.088616 
L 117.950167 290.825591 
L 118.12806 290.915907 
L 118.483846 289.882567 
L 118.661738 290.051901 
L 118.839631 289.737506 
L 119.017524 288.980365 
L 119.195417 289.10098 
L 119.37331 288.59806 
L 119.551203 289.271365 
L 119.729096 289.010683 
L 119.906989 289.344355 
L 120.084882 289.025627 
L 120.440667 288.987191 
L 120.61856 288.551811 
L 120.796453 288.510746 
L 120.974346 288.065659 
L 121.330132 288.051193 
L 121.508025 286.691808 
L 121.685918 287.530964 
L 121.863811 287.461382 
L 122.041704 286.906301 
L 122.219597 286.837593 
L 122.397489 286.632956 
L 122.575382 287.558806 
L 122.753275 287.211029 
L 122.931168 287.373121 
L 123.109061 288.385674 
L 123.64274 288.136267 
L 123.820633 287.714289 
L 123.998526 287.780418 
L 124.354311 287.291324 
L 124.532204 287.34438 
L 124.88799 288.117143 
L 125.243776 288.095868 
L 125.421669 287.836712 
L 125.599562 287.940646 
L 125.777455 288.25057 
L 125.955347 288.160082 
L 126.13324 288.467211 
L 126.311133 287.929406 
L 126.489026 287.781456 
L 126.844812 287.742117 
L 127.022705 288.198468 
L 127.378491 288.025414 
L 127.556384 288.67889 
L 127.734276 288.829052 
L 127.912169 288.603661 
L 128.267955 288.785248 
L 128.623741 290.350172 
L 128.801634 290.427997 
L 128.979527 288.855825 
L 129.15742 289.068528 
L 129.335313 289.066821 
L 129.513205 287.464589 
L 129.691098 286.982694 
L 129.868991 286.913914 
L 130.046884 287.197058 
L 130.224777 287.93028 
L 130.40267 287.917592 
L 130.936349 287.070339 
L 131.114242 287.219596 
L 131.292134 286.756676 
L 131.470027 286.770246 
L 131.64792 287.420637 
L 131.825813 287.034536 
L 132.003706 287.050358 
L 132.181599 285.405361 
L 132.359492 285.273 
L 132.537385 285.435774 
L 132.715278 284.486027 
L 132.893171 284.870454 
L 133.071064 284.935953 
L 133.426849 282.966625 
L 133.604742 282.906234 
L 133.782635 281.313659 
L 134.138421 281.709513 
L 134.316314 281.137931 
L 134.494207 281.899828 
L 134.6721 281.998693 
L 134.849993 281.794092 
L 135.205778 282.453751 
L 135.561564 281.093394 
L 135.739457 281.126234 
L 135.91735 281.01579 
L 136.273136 281.098261 
L 136.451029 280.064899 
L 136.806814 280.162748 
L 136.984707 278.897747 
L 137.1626 280.170942 
L 137.340493 280.151028 
L 137.518386 281.078863 
L 137.696279 280.523166 
L 137.874172 280.921625 
L 138.052065 279.885561 
L 138.229958 281.207001 
L 138.585743 281.133208 
L 138.941529 281.637967 
L 139.119422 282.549845 
L 139.297315 285.015299 
L 139.475208 285.411836 
L 139.653101 283.30928 
L 139.830994 283.376773 
L 140.008887 283.636255 
L 140.18678 282.618462 
L 140.364672 282.48725 
L 140.542565 282.806485 
L 140.720458 283.793899 
L 140.898351 283.260248 
L 141.076244 283.25551 
L 141.254137 282.62176 
L 141.609923 282.858281 
L 141.787816 281.624907 
L 142.143601 281.769839 
L 142.321494 281.014984 
L 142.67728 280.886851 
L 142.855173 281.535816 
L 143.033066 281.099022 
L 143.210959 281.176915 
L 143.388852 280.955547 
L 143.566745 280.086818 
L 143.744638 280.073834 
L 143.922531 279.395186 
L 144.278316 279.241912 
L 144.456209 276.392235 
L 144.811995 275.384817 
L 145.167781 276.238898 
L 145.345674 276.273683 
L 145.523567 275.762743 
L 145.70146 274.795121 
L 146.057245 274.780809 
L 146.235138 275.19235 
L 146.413031 275.098172 
L 146.590924 275.985646 
L 146.768817 275.126804 
L 146.94671 275.139555 
L 147.124603 275.574221 
L 147.302496 274.118955 
L 147.480389 274.191746 
L 148.369853 269.192556 
L 148.547746 269.467493 
L 148.725639 270.915771 
L 149.081425 270.379491 
L 149.259318 270.266535 
L 149.43721 271.95197 
L 149.615103 272.529016 
L 149.792996 275.806285 
L 149.970889 272.601993 
L 150.148782 272.819465 
L 150.504568 267.742091 
L 150.682461 267.535603 
L 150.860354 267.733985 
L 151.038247 267.001952 
L 151.394032 266.801586 
L 151.571925 266.00146 
L 151.749818 266.121785 
L 151.927711 266.066999 
L 152.105604 264.313208 
L 152.283497 264.077311 
L 152.46139 260.428955 
L 152.639283 259.529008 
L 152.817176 259.657763 
L 152.995068 258.780262 
L 153.172961 255.950168 
L 153.350854 255.96566 
L 153.70664 253.256948 
L 153.884533 253.232395 
L 154.418212 232.98416 
L 154.596105 239.58561 
L 154.773998 240.634702 
L 154.95189 239.869504 
L 155.129783 231.387584 
L 155.485569 235.32254 
L 155.841355 222.848618 
L 156.197141 224.91133 
L 156.375034 229.617312 
L 156.552927 230.978188 
L 157.086605 244.835214 
L 157.442391 243.5195 
L 157.620284 244.972273 
L 157.798177 237.870018 
L 157.97607 242.514502 
L 158.153963 243.15454 
L 158.331856 246.990948 
L 158.509748 243.340648 
L 158.687641 244.760709 
L 158.865534 240.111935 
L 159.043427 239.929785 
L 159.22132 239.983662 
L 159.399213 231.780561 
L 159.577106 231.223111 
L 159.754999 231.850378 
L 159.932892 239.112714 
L 160.46657 246.678867 
L 160.644463 244.3116 
L 160.822356 244.779191 
L 161.000249 244.541999 
L 161.178142 243.929994 
L 161.356035 245.690036 
L 161.533928 255.054751 
L 161.711821 254.176848 
L 161.889714 254.832378 
L 162.067606 248.008346 
L 162.245499 253.562812 
L 162.423392 253.531335 
L 162.601285 254.647004 
L 162.779178 254.419555 
L 162.957071 253.997766 
L 163.134964 255.620092 
L 163.312857 253.487698 
L 163.49075 253.846605 
L 163.668643 254.687 
L 163.846535 258.639285 
L 164.024428 259.02945 
L 164.202321 262.869031 
L 164.380214 263.565879 
L 164.558107 263.754817 
L 164.736 265.491904 
L 164.913893 271.493113 
L 165.091786 271.160194 
L 165.269679 266.64728 
L 165.447572 266.10712 
L 165.625465 266.089662 
L 165.98125 265.711665 
L 166.159143 266.770001 
L 167.226501 255.174314 
L 167.404394 255.077735 
L 167.582286 254.004061 
L 167.760179 254.558951 
L 167.938072 259.611378 
L 168.115965 258.723607 
L 168.293858 258.688321 
L 168.471751 260.512342 
L 168.649644 258.007047 
L 168.827537 258.119028 
L 169.00543 257.924198 
L 169.183323 255.468061 
L 169.361215 255.768775 
L 169.539108 254.247837 
L 169.894894 253.518232 
L 170.25068 258.892899 
L 170.428573 259.652153 
L 170.784359 264.164911 
L 170.962252 264.044382 
L 171.140144 262.486384 
L 171.49593 262.59898 
L 171.673823 265.655309 
L 171.851716 264.993336 
L 172.207502 266.372714 
L 172.741181 263.389698 
L 172.919073 264.378525 
L 173.096966 264.244188 
L 173.452752 264.65945 
L 173.630645 265.271689 
L 173.808538 267.507073 
L 173.986431 267.183599 
L 174.164324 267.221139 
L 174.342217 271.325142 
L 174.52011 271.121693 
L 174.698002 271.1137 
L 174.875895 270.736036 
L 175.053788 269.296717 
L 175.231681 269.235065 
L 175.409574 271.540401 
L 175.587467 272.395851 
L 175.76536 272.277492 
L 175.943253 270.805935 
L 176.121146 272.029297 
L 176.476932 271.157094 
L 176.654824 267.616005 
L 177.01061 266.891071 
L 177.188503 265.722065 
L 177.366396 265.616968 
L 177.544289 267.433214 
L 177.722182 266.397604 
L 177.900075 266.35525 
L 178.077968 263.754862 
L 178.255861 263.929743 
L 178.433753 263.455608 
L 178.611646 263.443076 
L 178.789539 261.05432 
L 178.967432 260.660211 
L 179.323218 263.149291 
L 179.501111 263.463485 
L 179.679004 261.904495 
L 180.03479 262.268493 
L 180.212682 262.338133 
L 180.390575 260.732608 
L 180.746361 260.102305 
L 180.924254 260.767698 
L 181.102147 260.762688 
L 181.28004 262.310536 
L 181.457933 261.951526 
L 181.635826 261.996373 
L 181.813719 265.230083 
L 181.991611 265.1703 
L 182.169504 265.250325 
L 182.347397 264.525958 
L 182.52529 265.066127 
L 182.703183 265.221353 
L 182.881076 266.623611 
L 183.058969 266.108971 
L 183.236862 266.112717 
L 183.414755 265.081694 
L 183.592648 265.549894 
L 183.77054 265.507344 
L 183.948433 268.738395 
L 184.304219 268.65755 
L 184.482112 269.556183 
L 184.660005 269.483471 
L 184.837898 269.549836 
L 185.015791 269.106742 
L 185.193684 269.392931 
L 185.371577 269.38784 
L 185.727362 268.394857 
L 185.905255 268.425622 
L 186.083148 268.951521 
L 186.261041 268.507918 
L 186.438934 268.493671 
L 186.616827 268.275262 
L 186.79472 268.490892 
L 186.972613 268.508618 
L 187.150506 271.731068 
L 187.328399 271.351476 
L 187.506291 271.337521 
L 187.684184 273.503146 
L 187.862077 272.230102 
L 188.03997 272.267002 
L 188.395756 272.931734 
L 188.573649 273.003286 
L 188.751542 271.884336 
L 188.929435 271.969951 
L 189.107328 271.792771 
L 189.463113 274.172089 
L 189.996792 273.876264 
L 190.174685 274.341715 
L 190.352578 274.301615 
L 190.530471 275.067001 
L 190.886257 273.276235 
L 191.064149 272.925365 
L 191.242042 272.309153 
L 191.419935 272.436533 
L 191.597828 272.397772 
L 191.775721 272.581696 
L 191.953614 272.432719 
L 192.131507 271.820708 
L 192.3094 271.934133 
L 192.665186 273.26621 
L 192.843078 273.167011 
L 193.020971 273.777274 
L 193.376757 273.76005 
L 193.732543 271.373637 
L 193.910436 269.637981 
L 194.266222 269.229052 
L 194.444115 269.586608 
L 194.622007 269.139738 
L 194.7999 268.222957 
L 194.977793 268.126067 
L 195.155686 266.066281 
L 195.333579 266.311584 
L 195.511472 267.262637 
L 195.689365 266.331075 
L 196.045151 266.182534 
L 196.400936 268.680262 
L 196.578829 268.538743 
L 197.112508 270.830437 
L 197.468294 270.898704 
L 197.82408 273.191632 
L 198.001973 273.192699 
L 198.179866 274.182255 
L 198.357758 273.5207 
L 198.535651 273.38261 
L 198.713544 273.747409 
L 198.891437 273.322641 
L 199.247223 273.514481 
L 199.425116 273.038134 
L 199.603009 273.163617 
L 199.780902 272.846554 
L 199.958795 273.174442 
L 200.136687 272.505927 
L 200.31458 273.353791 
L 200.670366 271.95185 
L 200.848259 271.879456 
L 201.026152 271.952476 
L 201.204045 270.873626 
L 201.381938 270.573341 
L 201.559831 271.132519 
L 201.915616 270.801619 
L 202.093509 269.921108 
L 202.449295 269.855232 
L 202.627188 270.439321 
L 202.805081 273.051387 
L 202.982974 272.790416 
L 203.33876 273.61563 
L 203.516653 273.790252 
L 203.694545 273.577609 
L 203.872438 273.666689 
L 204.050331 273.463416 
L 204.228224 272.798591 
L 204.58401 272.708957 
L 204.939796 273.576415 
L 205.295582 273.107905 
L 205.473474 272.141813 
L 205.651367 271.810869 
L 206.185046 272.474339 
L 206.362939 272.915519 
L 206.540832 272.658672 
L 206.718725 272.079992 
L 206.896618 272.601046 
L 207.252403 272.368403 
L 207.430296 272.554293 
L 207.608189 272.908715 
L 207.786082 272.857505 
L 207.963975 272.531594 
L 208.85344 272.307578 
L 209.031333 273.760835 
L 209.565011 273.565781 
L 209.920797 272.413936 
L 210.276583 272.533548 
L 210.632369 272.837924 
L 210.810262 272.673562 
L 211.166047 272.866358 
L 211.34394 272.763058 
L 212.055512 272.959406 
L 212.411298 273.52715 
L 212.589191 273.557286 
L 213.122869 273.216041 
L 213.300762 273.210456 
L 213.478655 273.037195 
L 213.656548 273.034141 
L 213.834441 272.645941 
L 214.36812 273.182945 
L 214.546012 273.262733 
L 214.723905 273.146455 
L 214.901798 273.286575 
L 215.079691 274.039336 
L 215.435477 276.267795 
L 215.61337 276.413611 
L 215.791263 276.359062 
L 215.969156 277.390741 
L 216.147049 279.819043 
L 216.324941 280.51064 
L 216.502834 280.292324 
L 216.680727 281.212429 
L 216.85862 281.044736 
L 217.036513 283.079175 
L 217.214406 282.706364 
L 217.392299 283.195068 
L 217.748085 281.387467 
L 217.925978 281.329882 
L 218.10387 281.952325 
L 218.281763 281.757249 
L 218.459656 281.860789 
L 218.815442 282.945314 
L 218.993335 283.380926 
L 219.171228 284.684799 
L 219.704907 284.230177 
L 219.8828 284.60585 
L 220.238585 284.680499 
L 220.416478 285.173821 
L 220.594371 285.311972 
L 220.772264 285.20124 
L 221.12805 284.104991 
L 221.483836 282.466927 
L 221.661729 281.881576 
L 221.839621 282.74311 
L 222.017514 282.29545 
L 222.195407 282.419592 
L 222.3733 283.116184 
L 222.729086 282.984273 
L 222.906979 283.385057 
L 223.084872 282.738067 
L 223.262765 283.283406 
L 223.440658 283.202001 
L 223.61855 283.352909 
L 223.796443 282.954802 
L 223.974336 282.916695 
L 224.152229 283.082575 
L 224.508015 282.706672 
L 224.685908 282.262347 
L 225.041694 282.269859 
L 225.397479 283.760288 
L 225.575372 283.75992 
L 225.931158 284.199438 
L 226.109051 283.719808 
L 226.464837 283.855657 
L 226.64273 283.813525 
L 226.998516 283.538465 
L 227.176408 284.136163 
L 227.354301 284.168468 
L 227.532194 283.986606 
L 227.710087 284.067105 
L 228.065873 284.02334 
L 228.421659 284.11283 
L 228.599552 284.519819 
L 228.777445 284.623487 
L 228.955337 284.437514 
L 229.13323 284.534305 
L 229.489016 284.298342 
L 229.666909 284.491231 
L 230.022695 284.447735 
L 230.200588 284.684582 
L 230.378481 284.726618 
L 230.556374 283.703305 
L 230.912159 283.606438 
L 231.090052 283.824764 
L 231.445838 283.882285 
L 231.801624 283.906492 
L 231.979517 283.862881 
L 232.15741 283.666187 
L 232.335303 282.743776 
L 232.513196 282.683335 
L 232.691088 282.450293 
L 232.868981 282.612827 
L 233.046874 282.46451 
L 233.224767 281.864631 
L 233.40266 283.296739 
L 233.580553 282.983812 
L 233.936339 283.041833 
L 234.114232 282.977088 
L 234.64791 283.113494 
L 234.825803 283.43472 
L 235.003696 282.891902 
L 235.537375 282.877646 
L 235.715268 282.591002 
L 236.426839 282.870692 
L 236.604732 282.842104 
L 236.960518 282.339746 
L 237.316304 282.405759 
L 237.67209 282.18432 
L 237.849983 282.430466 
L 238.383661 282.423665 
L 238.561554 282.64737 
L 238.739447 282.601838 
L 238.91734 282.214637 
L 239.095233 282.257442 
L 239.273126 281.957041 
L 239.628912 281.962382 
L 239.806804 281.814949 
L 239.984697 279.008639 
L 240.16259 278.713042 
L 240.340483 278.899668 
L 240.518376 278.448069 
L 240.696269 278.352969 
L 241.052055 277.526119 
L 241.229948 277.88308 
L 241.407841 277.366774 
L 241.585733 278.424054 
L 241.763626 278.278695 
L 241.941519 278.310318 
L 242.119412 277.972608 
L 242.297305 278.419596 
L 242.475198 277.803004 
L 243.18677 277.370232 
L 243.364663 277.475707 
L 243.720448 276.567628 
L 243.898341 276.890276 
L 244.076234 277.807 
L 244.254127 277.43344 
L 244.43202 277.482008 
L 244.609913 277.400933 
L 244.787806 277.557089 
L 244.965699 277.521969 
L 245.321484 277.059457 
L 245.67727 275.595804 
L 246.033056 275.928595 
L 246.210949 275.654823 
L 246.744628 273.378959 
L 246.922521 269.919669 
L 247.100413 270.955892 
L 247.278306 267.711047 
L 247.634092 266.236366 
L 247.811985 267.469551 
L 247.989878 269.481979 
L 248.167771 269.855347 
L 248.345664 266.287086 
L 248.523557 267.00435 
L 248.70145 267.213877 
L 248.879342 268.468695 
L 249.235128 267.018836 
L 249.413021 266.756821 
L 249.590914 264.17099 
L 249.768807 264.07247 
L 250.124593 264.483916 
L 250.302486 265.984457 
L 250.480379 264.903393 
L 250.658271 264.899589 
L 250.836164 264.1917 
L 251.19195 268.277074 
L 251.369843 267.853486 
L 251.547736 267.787435 
L 251.725629 267.037933 
L 251.903522 267.295183 
L 252.081415 268.412289 
L 252.259308 266.953054 
L 252.4372 267.348054 
L 252.615093 266.366393 
L 252.792986 266.117328 
L 252.970879 264.366261 
L 253.326665 263.269674 
L 253.504558 261.930629 
L 253.682451 262.896229 
L 254.038237 261.147276 
L 254.394022 256.777371 
L 254.749808 255.436867 
L 255.105594 248.078445 
L 255.283487 254.993644 
L 255.46138 250.223282 
L 255.639273 252.082897 
L 255.817166 256.51186 
L 255.995059 257.122843 
L 256.172951 256.251844 
L 256.350844 251.72025 
L 256.528737 254.887439 
L 256.70663 255.676403 
L 257.062416 253.671237 
L 257.240309 250.458707 
L 257.418202 249.407038 
L 257.773988 254.148235 
L 257.95188 252.414921 
L 258.129773 254.009024 
L 258.307666 258.628148 
L 258.485559 255.990175 
L 258.663452 261.660738 
L 258.841345 260.598079 
L 259.019238 256.892913 
L 259.197131 257.287951 
L 259.375024 256.407461 
L 259.730809 258.103044 
L 259.908702 259.944791 
L 260.086595 260.221945 
L 260.264488 259.826176 
L 260.442381 259.928077 
L 260.620274 261.367677 
L 260.798167 261.152463 
L 260.97606 261.262625 
L 261.153953 260.925261 
L 261.509738 257.78201 
L 261.687631 257.311774 
L 262.043417 255.580074 
L 262.22131 252.476322 
L 262.399203 253.71481 
L 262.577096 251.812237 
L 262.754989 251.675486 
L 262.932882 252.21254 
L 263.110775 254.419702 
L 263.288667 253.326073 
L 263.46656 254.019937 
L 263.822346 259.281359 
L 264.000239 258.185463 
L 264.178132 257.965408 
L 264.356025 258.522251 
L 264.533918 258.126175 
L 264.711811 255.822031 
L 264.889704 256.424138 
L 265.067597 258.849318 
L 265.245489 258.916253 
L 265.423382 257.787235 
L 265.601275 258.793987 
L 265.779168 258.82757 
L 265.957061 257.962181 
L 266.134954 258.685823 
L 266.49074 261.327101 
L 266.668633 260.968065 
L 266.846526 260.880036 
L 267.024418 260.23109 
L 267.380204 256.959271 
L 267.73599 257.126378 
L 267.913883 258.126674 
L 268.091776 257.474462 
L 268.447562 258.141314 
L 268.625455 258.958327 
L 268.803347 258.734353 
L 268.98124 257.732097 
L 269.159133 257.948271 
L 269.337026 257.958146 
L 270.048598 258.741 
L 270.226491 258.286481 
L 270.404384 258.681366 
L 270.582276 259.425335 
L 270.760169 259.219535 
L 270.938062 260.563113 
L 271.115955 264.904161 
L 271.293848 265.370554 
L 271.471741 266.81757 
L 271.649634 266.286317 
L 271.827527 266.166818 
L 272.00542 266.813343 
L 272.183313 265.848896 
L 272.361205 265.790569 
L 272.539098 265.563443 
L 272.894884 266.433943 
L 273.072777 266.463875 
L 273.25067 267.531875 
L 273.428563 266.216693 
L 273.606456 266.301303 
L 273.784349 264.772328 
L 273.962242 264.776247 
L 274.140134 265.994947 
L 274.318027 265.847859 
L 274.49592 265.941038 
L 274.673813 265.672914 
L 275.029599 267.021718 
L 275.207492 266.736341 
L 275.385385 267.207537 
L 275.563278 267.184905 
L 275.741171 266.143533 
L 275.919064 266.176347 
L 276.096956 266.928539 
L 276.274849 269.069534 
L 276.452742 269.214316 
L 276.808528 262.190684 
L 276.986421 261.069697 
L 277.164314 262.348377 
L 277.342207 261.523833 
L 277.5201 262.556406 
L 277.697993 262.620343 
L 278.053778 262.031685 
L 278.231671 262.396792 
L 278.409564 261.582622 
L 278.587457 261.997065 
L 278.76535 261.869689 
L 278.943243 262.404169 
L 279.121136 264.087916 
L 279.299029 263.921271 
L 279.476922 263.046314 
L 279.654814 264.273236 
L 279.832707 263.951587 
L 280.0106 264.101826 
L 280.366386 265.272726 
L 280.722172 265.095053 
L 280.900065 266.355135 
L 281.255851 266.717014 
L 281.611636 269.773503 
L 281.789529 269.628721 
L 281.967422 271.229588 
L 282.145315 270.373305 
L 282.323208 270.245045 
L 282.501101 268.861006 
L 282.678994 269.217698 
L 282.856887 267.963264 
L 283.212672 269.326477 
L 283.390565 269.684206 
L 283.568458 269.733465 
L 283.746351 270.13277 
L 284.102137 268.771247 
L 284.28003 268.934012 
L 284.457923 268.866539 
L 284.813709 270.025528 
L 285.169494 270.146948 
L 285.347387 269.90599 
L 285.52528 270.613494 
L 285.703173 270.446733 
L 286.058959 272.364177 
L 286.236852 269.781419 
L 286.414745 270.294113 
L 286.592638 270.143067 
L 286.770531 270.323546 
L 286.948423 268.897202 
L 287.304209 269.910524 
L 287.482102 270.133269 
L 287.659995 270.126814 
L 288.015781 269.716943 
L 288.193674 269.393066 
L 288.371567 270.029985 
L 288.54946 270.227062 
L 288.727352 270.198744 
L 288.905245 271.087687 
L 289.083138 269.619807 
L 289.438924 269.522901 
L 289.79471 266.395557 
L 289.972603 266.867483 
L 290.150496 267.73099 
L 290.328389 266.321821 
L 290.506281 266.948789 
L 290.684174 266.362897 
L 290.862067 266.626986 
L 291.03996 263.794433 
L 291.217853 263.904057 
L 291.395746 264.257021 
L 291.573639 263.57188 
L 291.751532 263.531496 
L 292.107318 264.624203 
L 292.28521 264.256138 
L 292.463103 264.499439 
L 292.640996 265.540081 
L 292.818889 265.386154 
L 292.996782 265.773508 
L 293.352568 263.589401 
L 293.530461 261.706962 
L 293.708354 262.113798 
L 293.886247 261.258629 
L 294.064139 261.906461 
L 294.242032 261.736165 
L 294.419925 261.980274 
L 294.597818 262.565935 
L 294.775711 262.565935 
L 294.953604 260.826242 
L 295.30939 260.086038 
L 295.487283 259.703411 
L 295.665176 258.72248 
L 295.843068 259.904484 
L 296.020961 258.288402 
L 296.198854 257.985158 
L 296.376747 258.415009 
L 296.55464 257.930481 
L 296.732533 259.714746 
L 296.910426 259.586025 
L 297.088319 260.484151 
L 297.266212 258.652394 
L 297.444105 260.865358 
L 297.621998 260.857135 
L 297.79989 260.512393 
L 297.977783 260.615946 
L 298.155676 259.387295 
L 298.511462 262.001061 
L 298.689355 264.013066 
L 298.867248 263.939292 
L 299.045141 264.294216 
L 299.223034 264.978858 
L 299.400927 263.523926 
L 299.578819 263.523926 
L 299.756712 264.132873 
L 299.934605 264.115351 
L 300.112498 262.930004 
L 300.290391 262.58995 
L 300.468284 263.57845 
L 300.646177 266.880048 
L 301.001963 267.471473 
L 301.179856 267.274779 
L 301.357748 279.211019 
L 301.535641 276.218467 
L 301.713534 277.919775 
L 301.891427 277.219763 
L 302.06932 278.457367 
L 302.247213 277.184528 
L 302.425106 276.98234 
L 302.602999 273.966158 
L 302.780892 273.84612 
L 302.958785 273.986714 
L 303.136677 275.397765 
L 303.492463 271.763338 
L 303.670356 272.032422 
L 303.848249 271.781551 
L 304.026142 273.298 
L 304.204035 273.713519 
L 304.381928 275.1565 
L 304.559821 273.158904 
L 304.737714 273.070567 
L 305.093499 271.607259 
L 305.271392 271.866392 
L 305.449285 271.3668 
L 305.627178 271.728948 
L 305.805071 269.555062 
L 305.982964 270.083971 
L 306.160857 269.471182 
L 306.33875 269.7453 
L 306.516643 271.360845 
L 306.872428 271.198964 
L 307.050321 271.42071 
L 307.228214 271.365801 
L 307.406107 272.319297 
L 307.584 270.442392 
L 307.761893 270.739718 
L 307.939786 269.87721 
L 308.117679 270.374112 
L 308.295572 271.487644 
L 308.473465 271.44046 
L 308.82925 269.038641 
L 309.185036 268.762294 
L 309.540822 267.835734 
L 309.718715 267.933062 
L 309.896608 264.043383 
L 310.074501 264.615365 
L 310.430286 263.289539 
L 310.786072 263.627249 
L 311.141858 262.532698 
L 311.319751 259.336998 
L 311.675537 261.162492 
L 311.85343 264.132412 
L 312.031323 264.65963 
L 312.209215 263.901598 
L 312.565001 260.152243 
L 312.742894 262.022425 
L 312.920787 261.706924 
L 313.09868 260.61683 
L 313.454466 260.169803 
L 313.632359 261.226737 
L 313.810252 262.967736 
L 313.988144 262.546262 
L 314.166037 262.503765 
L 314.34393 264.223592 
L 314.521823 263.574493 
L 314.699716 263.79278 
L 315.055502 261.001802 
L 315.233395 261.552151 
L 315.411288 260.506553 
L 315.589181 261.456629 
L 315.767073 258.56179 
L 315.944966 261.169485 
L 316.300752 260.135913 
L 316.478645 260.792236 
L 317.36811 259.761008 
L 317.546002 262.088399 
L 317.723895 261.421548 
L 317.901788 261.36956 
L 318.079681 261.920678 
L 318.435467 261.167833 
L 318.969146 262.035643 
L 319.147039 261.815549 
L 319.324932 262.094701 
L 319.502824 260.530376 
L 319.680717 260.80092 
L 319.85861 262.126209 
L 320.036503 262.263498 
L 320.214396 262.595483 
L 320.392289 263.172691 
L 320.748075 262.476752 
L 320.925968 262.674176 
L 321.103861 262.280674 
L 321.281753 262.850889 
L 321.459646 262.910677 
L 321.637539 262.684397 
L 321.815432 262.846623 
L 321.993325 261.848286 
L 322.171218 262.204402 
L 322.349111 261.498012 
L 322.527004 262.274295 
L 322.704897 262.084634 
L 322.88279 262.282288 
L 323.060682 262.051973 
L 323.238575 262.27395 
L 323.416468 262.210972 
L 323.772254 262.685588 
L 324.305933 262.364131 
L 324.483826 262.559287 
L 324.839611 261.124029 
L 325.017504 260.83312 
L 325.195397 261.070696 
L 325.551183 259.581567 
L 325.729076 255.341191 
L 325.906969 255.754097 
L 326.084862 255.109608 
L 326.262755 255.0625 
L 326.440648 254.182778 
L 326.61854 252.339148 
L 326.796433 255.205284 
L 326.974326 254.572054 
L 327.152219 254.757719 
L 327.330112 252.62122 
L 327.508005 252.534151 
L 327.685898 253.177141 
L 327.863791 252.554669 
L 328.041684 252.875665 
L 328.219577 252.072715 
L 328.397469 253.996229 
L 328.753255 252.516898 
L 328.931148 252.528618 
L 329.286934 251.992101 
L 329.464827 250.533096 
L 329.820613 252.683775 
L 329.998506 252.177267 
L 330.176399 253.495293 
L 330.354291 252.878047 
L 330.532184 252.994933 
L 330.710077 252.568771 
L 330.88797 254.207677 
L 331.065863 253.708278 
L 331.243756 254.343661 
L 331.421649 253.449376 
L 331.599542 253.653447 
L 331.777435 252.784523 
L 331.955328 252.969766 
L 332.13322 251.956597 
L 332.311113 253.976979 
L 332.489006 258.626035 
L 332.666899 257.548698 
L 332.844792 258.7332 
L 333.200578 257.933516 
L 333.378471 258.879596 
L 333.912149 257.827081 
L 334.090042 257.631118 
L 334.267935 258.07557 
L 334.445828 256.754278 
L 334.979507 255.719707 
L 335.1574 255.7662 
L 335.335293 255.191221 
L 335.513186 255.812847 
L 335.691078 257.69252 
L 335.868971 257.301515 
L 336.046864 258.445557 
L 336.224757 256.532225 
L 336.40265 256.684346 
L 336.758436 256.371573 
L 336.936329 256.686306 
L 337.114222 256.115822 
L 337.292115 256.357433 
L 337.470007 256.967148 
L 337.825793 257.226396 
L 338.181579 256.31655 
L 338.359472 257.026706 
L 338.537365 256.769033 
L 339.071044 254.341125 
L 339.248936 254.057016 
L 339.426829 253.42905 
L 339.604722 253.858632 
L 339.782615 253.846797 
L 339.960508 253.568568 
L 340.138401 254.245448 
L 340.316294 254.095825 
L 340.494187 253.551392 
L 340.849973 251.948105 
L 341.027866 248.466491 
L 341.205758 247.856737 
L 341.383651 248.032451 
L 341.561544 247.325677 
L 341.739437 247.677988 
L 341.91733 247.525828 
L 342.095223 245.316054 
L 342.273116 246.708815 
L 342.806795 244.705686 
L 342.984687 244.90334 
L 343.16258 245.60923 
L 343.340473 243.887289 
L 343.518366 243.379014 
L 343.696259 237.862071 
L 343.874152 237.845241 
L 344.052045 240.74984 
L 344.229938 238.249348 
L 344.407831 238.872089 
L 344.585724 238.916238 
L 345.119402 234.988173 
L 345.475188 236.414363 
L 346.008867 229.381625 
L 346.18676 229.29663 
L 346.364653 225.965715 
L 346.542545 225.918454 
L 346.720438 226.984609 
L 346.898331 227.074407 
L 347.076224 224.101874 
L 347.254117 225.764565 
L 347.43201 231.867707 
L 347.609903 231.916006 
L 347.965689 227.870978 
L 348.143582 222.037689 
L 348.321474 225.561993 
L 348.67726 223.018235 
L 348.855153 226.030883 
L 349.210939 223.31364 
L 349.388832 224.067715 
L 349.566725 227.381954 
L 349.744618 226.47791 
L 350.100403 228.494372 
L 350.456189 224.132767 
L 350.811975 223.075065 
L 351.167761 209.981219 
L 351.345654 208.815699 
L 351.523547 206.052501 
L 351.70144 207.510084 
L 351.879333 210.373069 
L 352.057225 206.225141 
L 352.235118 208.421544 
L 352.413011 206.645732 
L 352.590904 202.887655 
L 352.768797 196.164846 
L 352.94669 196.920381 
L 353.658262 186.407603 
L 353.836154 184.827639 
L 354.014047 174.062299 
L 354.19194 170.967923 
L 354.369833 174.678738 
L 354.725619 156.137613 
L 355.081405 141.498616 
L 355.259298 143.14905 
L 355.792976 167.083085 
L 356.148762 147.307506 
L 356.326655 156.260147 
L 356.504548 159.193142 
L 356.682441 160.239009 
L 356.860334 157.013914 
L 357.21612 161.215099 
L 357.394012 179.432385 
L 357.571905 170.961775 
L 357.749798 174.430095 
L 357.927691 173.749603 
L 358.105584 173.878631 
L 358.283477 172.731516 
L 358.46137 180.887547 
L 358.639263 169.421773 
L 358.817156 165.920984 
L 358.995049 165.90623 
L 359.172941 170.446584 
L 359.350834 168.96172 
L 359.70662 153.002815 
L 359.884513 155.593219 
L 360.240299 146.674314 
L 360.418192 148.192684 
L 360.596085 119.619698 
L 360.773978 118.754078 
L 360.95187 125.33003 
L 361.129763 113.283244 
L 361.485549 116.465496 
L 361.663442 110.566693 
L 361.841335 113.519668 
L 362.019228 108.877066 
L 362.197121 97.510695 
L 362.375014 99.470636 
L 362.552907 82.916156 
L 362.7308 82.590703 
L 362.908692 76.878334 
L 363.264478 109.951675 
L 363.442371 103.248924 
L 363.620264 117.943943 
L 363.97605 120.420573 
L 364.153943 124.42418 
L 364.331836 107.115971 
L 364.509729 111.966601 
L 364.687621 103.814297 
L 364.865514 111.609755 
L 365.043407 110.024873 
L 365.2213 109.947218 
L 365.754979 86.892981 
L 366.110765 75.817289 
L 366.288658 77.779689 
L 366.46655 62.389077 
L 366.822336 83.537782 
L 367.000229 79.243265 
L 367.178122 71.402351 
L 367.356015 76.19423 
L 367.533908 74.621913 
L 367.711801 74.580799 
L 367.889694 77.173009 
L 368.067587 89.492607 
L 368.245479 88.445548 
L 368.601265 100.209264 
L 368.779158 86.151587 
L 368.957051 83.118152 
L 369.134944 83.42639 
L 369.49073 72.105014 
L 369.846516 72.078924 
L 370.024408 70.947716 
L 370.202301 78.45899 
L 370.558087 70.860186 
L 370.73598 74.831863 
L 370.913873 82.797924 
L 371.091766 74.723775 
L 371.269659 74.516323 
L 371.447552 68.094029 
L 371.625445 67.360627 
L 371.803337 67.860641 
L 371.98123 53.568 
L 372.159123 55.817044 
L 372.337016 54.72768 
L 372.692802 66.891007 
L 372.870695 81.629023 
L 373.048588 83.735974 
L 373.226481 80.643711 
L 373.582267 98.995867 
L 373.760159 101.219013 
L 374.115945 109.201828 
L 374.293838 90.062515 
L 374.471731 86.163152 
L 374.649624 86.883068 
L 374.827517 91.878019 
L 375.00541 75.691949 
L 375.183303 75.458023 
L 375.361196 80.249671 
L 375.539088 77.933193 
L 375.716981 93.193778 
L 375.894874 76.934549 
L 376.072767 80.950144 
L 376.25066 77.29174 
L 376.428553 71.341602 
L 376.606446 73.831797 
L 376.784339 83.042955 
L 376.962232 79.713501 
L 377.140125 109.464995 
L 377.318017 106.793823 
L 377.49591 105.94753 
L 377.673803 118.189242 
L 377.851696 119.322525 
L 378.029589 130.25574 
L 378.207482 132.884146 
L 378.385375 155.738539 
L 378.563268 141.060312 
L 378.741161 154.524028 
L 378.919054 153.5713 
L 379.096946 164.229245 
L 379.274839 148.959285 
L 379.452732 150.181519 
L 379.630625 146.894177 
L 379.808518 150.047842 
L 380.164304 164.639884 
L 380.52009 154.408025 
L 380.697983 156.897528 
L 380.875875 153.352513 
L 381.053768 147.191773 
L 381.409554 161.248143 
L 381.587447 160.150019 
L 381.76534 168.992575 
L 381.943233 169.241102 
L 382.121126 154.301129 
L 382.299019 156.736415 
L 382.476912 154.397881 
L 382.654804 161.384472 
L 383.01059 142.053653 
L 383.188483 143.34947 
L 383.366376 150.510546 
L 383.544269 151.497394 
L 383.722162 160.481812 
L 383.900055 161.272005 
L 384.077948 161.010029 
L 384.255841 176.017744 
L 384.611626 168.378595 
L 384.789519 164.671738 
L 384.967412 176.19438 
L 385.145305 174.195055 
L 385.323198 164.652257 
L 385.501091 165.373786 
L 385.678984 160.028867 
L 385.856877 163.104108 
L 386.03477 168.908003 
L 386.212663 167.678506 
L 386.568448 162.097625 
L 386.746341 168.096907 
L 386.924234 166.317714 
L 387.102127 167.746978 
L 387.28002 171.441962 
L 387.457913 167.825825 
L 387.635806 168.989885 
L 387.813699 166.253815 
L 388.169484 172.175288 
L 388.347377 171.683266 
L 388.52527 175.817784 
L 388.703163 177.037137 
L 388.881056 176.655162 
L 389.058949 175.64526 
L 389.414735 183.304159 
L 389.592628 174.359702 
L 389.770521 173.66872 
L 390.837878 144.064275 
L 391.015771 144.051211 
L 391.193664 135.566307 
L 391.371557 137.699195 
L 391.727342 147.171216 
L 391.905235 151.228578 
L 392.616807 126.267734 
L 392.7947 129.410793 
L 392.972593 119.738198 
L 393.150486 122.524297 
L 393.328379 122.512423 
L 393.506271 127.099041 
L 393.684164 113.972573 
L 393.862057 116.745992 
L 394.03995 116.960322 
L 394.395736 126.212249 
L 394.573629 125.715463 
L 394.929415 108.232885 
L 395.107308 109.753445 
L 395.463093 107.480732 
L 395.640986 114.316085 
L 395.818879 109.599479 
L 395.996772 117.320011 
L 396.174665 109.273758 
L 396.530451 110.234669 
L 396.708344 116.889775 
L 396.886237 116.578155 
L 397.06413 110.019571 
L 397.419915 105.514067 
L 397.597808 105.852008 
L 397.953594 95.362131 
L 398.131487 117.910321 
L 398.30938 120.718322 
L 398.487273 119.60283 
L 398.487273 119.60283 
" clip-path="url(#pb7f0a296bd)" style="fill: none; stroke: #1f77b4; stroke-width: 1.5; stroke-linecap: square"/>
   </g>
   <g id="patch_3">
    <path d="M 57.6 307.584 
L 57.6 41.472 
" style="fill: none; stroke: #000000; stroke-width: 0.8; stroke-linejoin: miter; stroke-linecap: square"/>
   </g>
   <g id="patch_4">
    <path d="M 414.72 307.584 
L 414.72 41.472 
" style="fill: none; stroke: #000000; stroke-width: 0.8; stroke-linejoin: miter; stroke-linecap: square"/>
   </g>
   <g id="patch_5">
    <path d="M 57.6 307.584 
L 414.72 307.584 
" style="fill: none; stroke: #000000; stroke-width: 0.8; stroke-linejoin: miter; stroke-linecap: square"/>
   </g>
   <g id="patch_6">
    <path d="M 57.6 41.472 
L 414.72 41.472 
" style="fill: none; stroke: #000000; stroke-width: 0.8; stroke-linejoin: miter; stroke-linecap: square"/>
   </g>
   <g id="legend_1">
    <g id="patch_7">
     <path d="M 64.6 64.150125 
L 124.0625 64.150125 
Q 126.0625 64.150125 126.0625 62.150125 
L 126.0625 48.472 
Q 126.0625 46.472 124.0625 46.472 
L 64.6 46.472 
Q 62.6 46.472 62.6 48.472 
L 62.6 62.150125 
Q 62.6 64.150125 64.6 64.150125 
z
" style="fill: #ffffff; opacity: 0.8; stroke: #cccccc; stroke-linejoin: miter"/>
    </g>
    <g id="line2d_17">
     <path d="M 66.6 54.570438 
L 76.6 54.570438 
L 86.6 54.570438 
" style="fill: none; stroke: #1f77b4; stroke-width: 1.5; stroke-linecap: square"/>
    </g>
    <g id="text_18">
     <!-- Value -->
     <g transform="translate(94.6 58.070438)scale(0.1 -0.1)">
      <use xlink:href="#DejaVuSans-56"/>
      <use xlink:href="#DejaVuSans-61" x="60.658203"/>
      <use xlink:href="#DejaVuSans-6c" x="121.9375"/>
      <use xlink:href="#DejaVuSans-75" x="149.720703"/>
      <use xlink:href="#DejaVuSans-65" x="213.099609"/>
     </g>
    </g>
   </g>
  </g>
 </g>
 <defs>
  <clipPath id="pb7f0a296bd">
   <rect x="57.6" y="41.472" width="357.12" height="266.112"/>
  </clipPath>
 </defs>
</svg>
