<?xml version="1.0" encoding="utf-8" standalone="no"?>
<!DOCTYPE svg PUBLIC "-//W3C//DTD SVG 1.1//EN"
  "http://www.w3.org/Graphics/SVG/1.1/DTD/svg11.dtd">
<svg xmlns:xlink="http://www.w3.org/1999/xlink" width="460.8pt" height="345.6pt" viewBox="0 0 460.8 345.6" xmlns="http://www.w3.org/2000/svg" version="1.1">
 <metadata>
  <rdf:RDF xmlns:dc="http://purl.org/dc/elements/1.1/" xmlns:cc="http://creativecommons.org/ns#" xmlns:rdf="http://www.w3.org/1999/02/22-rdf-syntax-ns#">
   <cc:Work>
    <dc:type rdf:resource="http://purl.org/dc/dcmitype/StillImage"/>
    <dc:date>2022-10-26T23:09:19.167135</dc:date>
    <dc:format>image/svg+xml</dc:format>
    <dc:creator>
     <cc:Agent>
      <dc:title>Matplotlib v3.5.2, https://matplotlib.org/</dc:title>
     </cc:Agent>
    </dc:creator>
   </cc:Work>
  </rdf:RDF>
 </metadata>
 <defs>
  <style type="text/css">*{stroke-linejoin: round; stroke-linecap: butt}</style>
 </defs>
 <g id="figure_1">
  <g id="patch_1">
   <path d="M 0 345.6 
L 460.8 345.6 
L 460.8 0 
L 0 0 
z
" style="fill: #ffffff"/>
  </g>
  <g id="axes_1">
   <g id="patch_2">
    <path d="M 57.6 307.584 
L 414.72 307.584 
L 414.72 41.472 
L 57.6 41.472 
z
" style="fill: #ffffff"/>
   </g>
   <g id="matplotlib.axis_1">
    <g id="xtick_1">
     <g id="line2d_1">
      <defs>
       <path id="m81766cb547" d="M 0 0 
L 0 3.5 
" style="stroke: #000000; stroke-width: 0.8"/>
      </defs>
      <g>
       <use xlink:href="#m81766cb547" x="63.100346" y="307.584" style="stroke: #000000; stroke-width: 0.8"/>
      </g>
     </g>
     <g id="text_1">
      <!-- 1,450 -->
      <g transform="translate(48.786283 322.182437)scale(0.1 -0.1)">
       <defs>
        <path id="DejaVuSans-31" d="M 794 531 
L 1825 531 
L 1825 4091 
L 703 3866 
L 703 4441 
L 1819 4666 
L 2450 4666 
L 2450 531 
L 3481 531 
L 3481 0 
L 794 0 
L 794 531 
z
" transform="scale(0.015625)"/>
        <path id="DejaVuSans-2c" d="M 750 794 
L 1409 794 
L 1409 256 
L 897 -744 
L 494 -744 
L 750 256 
L 750 794 
z
" transform="scale(0.015625)"/>
        <path id="DejaVuSans-34" d="M 2419 4116 
L 825 1625 
L 2419 1625 
L 2419 4116 
z
M 2253 4666 
L 3047 4666 
L 3047 1625 
L 3713 1625 
L 3713 1100 
L 3047 1100 
L 3047 0 
L 2419 0 
L 2419 1100 
L 313 1100 
L 313 1709 
L 2253 4666 
z
" transform="scale(0.015625)"/>
        <path id="DejaVuSans-35" d="M 691 4666 
L 3169 4666 
L 3169 4134 
L 1269 4134 
L 1269 2991 
Q 1406 3038 1543 3061 
Q 1681 3084 1819 3084 
Q 2600 3084 3056 2656 
Q 3513 2228 3513 1497 
Q 3513 744 3044 326 
Q 2575 -91 1722 -91 
Q 1428 -91 1123 -41 
Q 819 9 494 109 
L 494 744 
Q 775 591 1075 516 
Q 1375 441 1709 441 
Q 2250 441 2565 725 
Q 2881 1009 2881 1497 
Q 2881 1984 2565 2268 
Q 2250 2553 1709 2553 
Q 1456 2553 1204 2497 
Q 953 2441 691 2322 
L 691 4666 
z
" transform="scale(0.015625)"/>
        <path id="DejaVuSans-30" d="M 2034 4250 
Q 1547 4250 1301 3770 
Q 1056 3291 1056 2328 
Q 1056 1369 1301 889 
Q 1547 409 2034 409 
Q 2525 409 2770 889 
Q 3016 1369 3016 2328 
Q 3016 3291 2770 3770 
Q 2525 4250 2034 4250 
z
M 2034 4750 
Q 2819 4750 3233 4129 
Q 3647 3509 3647 2328 
Q 3647 1150 3233 529 
Q 2819 -91 2034 -91 
Q 1250 -91 836 529 
Q 422 1150 422 2328 
Q 422 3509 836 4129 
Q 1250 4750 2034 4750 
z
" transform="scale(0.015625)"/>
       </defs>
       <use xlink:href="#DejaVuSans-31"/>
       <use xlink:href="#DejaVuSans-2c" x="63.623047"/>
       <use xlink:href="#DejaVuSans-34" x="95.410156"/>
       <use xlink:href="#DejaVuSans-35" x="159.033203"/>
       <use xlink:href="#DejaVuSans-30" x="222.65625"/>
      </g>
     </g>
    </g>
    <g id="xtick_2">
     <g id="line2d_2">
      <g>
       <use xlink:href="#m81766cb547" x="107.818603" y="307.584" style="stroke: #000000; stroke-width: 0.8"/>
      </g>
     </g>
     <g id="text_2">
      <!-- 1,500 -->
      <g transform="translate(93.50454 322.182437)scale(0.1 -0.1)">
       <use xlink:href="#DejaVuSans-31"/>
       <use xlink:href="#DejaVuSans-2c" x="63.623047"/>
       <use xlink:href="#DejaVuSans-35" x="95.410156"/>
       <use xlink:href="#DejaVuSans-30" x="159.033203"/>
       <use xlink:href="#DejaVuSans-30" x="222.65625"/>
      </g>
     </g>
    </g>
    <g id="xtick_3">
     <g id="line2d_3">
      <g>
       <use xlink:href="#m81766cb547" x="152.53686" y="307.584" style="stroke: #000000; stroke-width: 0.8"/>
      </g>
     </g>
     <g id="text_3">
      <!-- 1,550 -->
      <g transform="translate(138.222797 322.182437)scale(0.1 -0.1)">
       <use xlink:href="#DejaVuSans-31"/>
       <use xlink:href="#DejaVuSans-2c" x="63.623047"/>
       <use xlink:href="#DejaVuSans-35" x="95.410156"/>
       <use xlink:href="#DejaVuSans-35" x="159.033203"/>
       <use xlink:href="#DejaVuSans-30" x="222.65625"/>
      </g>
     </g>
    </g>
    <g id="xtick_4">
     <g id="line2d_4">
      <g>
       <use xlink:href="#m81766cb547" x="197.255116" y="307.584" style="stroke: #000000; stroke-width: 0.8"/>
      </g>
     </g>
     <g id="text_4">
      <!-- 1,600 -->
      <g transform="translate(182.941054 322.182437)scale(0.1 -0.1)">
       <defs>
        <path id="DejaVuSans-36" d="M 2113 2584 
Q 1688 2584 1439 2293 
Q 1191 2003 1191 1497 
Q 1191 994 1439 701 
Q 1688 409 2113 409 
Q 2538 409 2786 701 
Q 3034 994 3034 1497 
Q 3034 2003 2786 2293 
Q 2538 2584 2113 2584 
z
M 3366 4563 
L 3366 3988 
Q 3128 4100 2886 4159 
Q 2644 4219 2406 4219 
Q 1781 4219 1451 3797 
Q 1122 3375 1075 2522 
Q 1259 2794 1537 2939 
Q 1816 3084 2150 3084 
Q 2853 3084 3261 2657 
Q 3669 2231 3669 1497 
Q 3669 778 3244 343 
Q 2819 -91 2113 -91 
Q 1303 -91 875 529 
Q 447 1150 447 2328 
Q 447 3434 972 4092 
Q 1497 4750 2381 4750 
Q 2619 4750 2861 4703 
Q 3103 4656 3366 4563 
z
" transform="scale(0.015625)"/>
       </defs>
       <use xlink:href="#DejaVuSans-31"/>
       <use xlink:href="#DejaVuSans-2c" x="63.623047"/>
       <use xlink:href="#DejaVuSans-36" x="95.410156"/>
       <use xlink:href="#DejaVuSans-30" x="159.033203"/>
       <use xlink:href="#DejaVuSans-30" x="222.65625"/>
      </g>
     </g>
    </g>
    <g id="xtick_5">
     <g id="line2d_5">
      <g>
       <use xlink:href="#m81766cb547" x="241.973373" y="307.584" style="stroke: #000000; stroke-width: 0.8"/>
      </g>
     </g>
     <g id="text_5">
      <!-- 1,650 -->
      <g transform="translate(227.659311 322.182437)scale(0.1 -0.1)">
       <use xlink:href="#DejaVuSans-31"/>
       <use xlink:href="#DejaVuSans-2c" x="63.623047"/>
       <use xlink:href="#DejaVuSans-36" x="95.410156"/>
       <use xlink:href="#DejaVuSans-35" x="159.033203"/>
       <use xlink:href="#DejaVuSans-30" x="222.65625"/>
      </g>
     </g>
    </g>
    <g id="xtick_6">
     <g id="line2d_6">
      <g>
       <use xlink:href="#m81766cb547" x="286.69163" y="307.584" style="stroke: #000000; stroke-width: 0.8"/>
      </g>
     </g>
     <g id="text_6">
      <!-- 1,700 -->
      <g transform="translate(272.377568 322.182437)scale(0.1 -0.1)">
       <defs>
        <path id="DejaVuSans-37" d="M 525 4666 
L 3525 4666 
L 3525 4397 
L 1831 0 
L 1172 0 
L 2766 4134 
L 525 4134 
L 525 4666 
z
" transform="scale(0.015625)"/>
       </defs>
       <use xlink:href="#DejaVuSans-31"/>
       <use xlink:href="#DejaVuSans-2c" x="63.623047"/>
       <use xlink:href="#DejaVuSans-37" x="95.410156"/>
       <use xlink:href="#DejaVuSans-30" x="159.033203"/>
       <use xlink:href="#DejaVuSans-30" x="222.65625"/>
      </g>
     </g>
    </g>
    <g id="xtick_7">
     <g id="line2d_7">
      <g>
       <use xlink:href="#m81766cb547" x="331.409887" y="307.584" style="stroke: #000000; stroke-width: 0.8"/>
      </g>
     </g>
     <g id="text_7">
      <!-- 1,750 -->
      <g transform="translate(317.095825 322.182437)scale(0.1 -0.1)">
       <use xlink:href="#DejaVuSans-31"/>
       <use xlink:href="#DejaVuSans-2c" x="63.623047"/>
       <use xlink:href="#DejaVuSans-37" x="95.410156"/>
       <use xlink:href="#DejaVuSans-35" x="159.033203"/>
       <use xlink:href="#DejaVuSans-30" x="222.65625"/>
      </g>
     </g>
    </g>
    <g id="xtick_8">
     <g id="line2d_8">
      <g>
       <use xlink:href="#m81766cb547" x="376.128144" y="307.584" style="stroke: #000000; stroke-width: 0.8"/>
      </g>
     </g>
     <g id="text_8">
      <!-- 1,800 -->
      <g transform="translate(361.814082 322.182437)scale(0.1 -0.1)">
       <defs>
        <path id="DejaVuSans-38" d="M 2034 2216 
Q 1584 2216 1326 1975 
Q 1069 1734 1069 1313 
Q 1069 891 1326 650 
Q 1584 409 2034 409 
Q 2484 409 2743 651 
Q 3003 894 3003 1313 
Q 3003 1734 2745 1975 
Q 2488 2216 2034 2216 
z
M 1403 2484 
Q 997 2584 770 2862 
Q 544 3141 544 3541 
Q 544 4100 942 4425 
Q 1341 4750 2034 4750 
Q 2731 4750 3128 4425 
Q 3525 4100 3525 3541 
Q 3525 3141 3298 2862 
Q 3072 2584 2669 2484 
Q 3125 2378 3379 2068 
Q 3634 1759 3634 1313 
Q 3634 634 3220 271 
Q 2806 -91 2034 -91 
Q 1263 -91 848 271 
Q 434 634 434 1313 
Q 434 1759 690 2068 
Q 947 2378 1403 2484 
z
M 1172 3481 
Q 1172 3119 1398 2916 
Q 1625 2713 2034 2713 
Q 2441 2713 2670 2916 
Q 2900 3119 2900 3481 
Q 2900 3844 2670 4047 
Q 2441 4250 2034 4250 
Q 1625 4250 1398 4047 
Q 1172 3844 1172 3481 
z
" transform="scale(0.015625)"/>
       </defs>
       <use xlink:href="#DejaVuSans-31"/>
       <use xlink:href="#DejaVuSans-2c" x="63.623047"/>
       <use xlink:href="#DejaVuSans-38" x="95.410156"/>
       <use xlink:href="#DejaVuSans-30" x="159.033203"/>
       <use xlink:href="#DejaVuSans-30" x="222.65625"/>
      </g>
     </g>
    </g>
   </g>
   <g id="matplotlib.axis_2">
    <g id="ytick_1">
     <g id="line2d_9">
      <defs>
       <path id="m75906e85dc" d="M 0 0 
L -3.5 0 
" style="stroke: #000000; stroke-width: 0.8"/>
      </defs>
      <g>
       <use xlink:href="#m75906e85dc" x="57.6" y="296.276862" style="stroke: #000000; stroke-width: 0.8"/>
      </g>
     </g>
     <g id="text_9">
      <!-- 10,000 -->
      <g transform="translate(15.609375 300.076081)scale(0.1 -0.1)">
       <use xlink:href="#DejaVuSans-31"/>
       <use xlink:href="#DejaVuSans-30" x="63.623047"/>
       <use xlink:href="#DejaVuSans-2c" x="127.246094"/>
       <use xlink:href="#DejaVuSans-30" x="159.033203"/>
       <use xlink:href="#DejaVuSans-30" x="222.65625"/>
       <use xlink:href="#DejaVuSans-30" x="286.279297"/>
      </g>
     </g>
    </g>
    <g id="ytick_2">
     <g id="line2d_10">
      <g>
       <use xlink:href="#m75906e85dc" x="57.6" y="250.956836" style="stroke: #000000; stroke-width: 0.8"/>
      </g>
     </g>
     <g id="text_10">
      <!-- 20,000 -->
      <g transform="translate(15.609375 254.756054)scale(0.1 -0.1)">
       <defs>
        <path id="DejaVuSans-32" d="M 1228 531 
L 3431 531 
L 3431 0 
L 469 0 
L 469 531 
Q 828 903 1448 1529 
Q 2069 2156 2228 2338 
Q 2531 2678 2651 2914 
Q 2772 3150 2772 3378 
Q 2772 3750 2511 3984 
Q 2250 4219 1831 4219 
Q 1534 4219 1204 4116 
Q 875 4013 500 3803 
L 500 4441 
Q 881 4594 1212 4672 
Q 1544 4750 1819 4750 
Q 2544 4750 2975 4387 
Q 3406 4025 3406 3419 
Q 3406 3131 3298 2873 
Q 3191 2616 2906 2266 
Q 2828 2175 2409 1742 
Q 1991 1309 1228 531 
z
" transform="scale(0.015625)"/>
       </defs>
       <use xlink:href="#DejaVuSans-32"/>
       <use xlink:href="#DejaVuSans-30" x="63.623047"/>
       <use xlink:href="#DejaVuSans-2c" x="127.246094"/>
       <use xlink:href="#DejaVuSans-30" x="159.033203"/>
       <use xlink:href="#DejaVuSans-30" x="222.65625"/>
       <use xlink:href="#DejaVuSans-30" x="286.279297"/>
      </g>
     </g>
    </g>
    <g id="ytick_3">
     <g id="line2d_11">
      <g>
       <use xlink:href="#m75906e85dc" x="57.6" y="205.63681" style="stroke: #000000; stroke-width: 0.8"/>
      </g>
     </g>
     <g id="text_11">
      <!-- 30,000 -->
      <g transform="translate(15.609375 209.436028)scale(0.1 -0.1)">
       <defs>
        <path id="DejaVuSans-33" d="M 2597 2516 
Q 3050 2419 3304 2112 
Q 3559 1806 3559 1356 
Q 3559 666 3084 287 
Q 2609 -91 1734 -91 
Q 1441 -91 1130 -33 
Q 819 25 488 141 
L 488 750 
Q 750 597 1062 519 
Q 1375 441 1716 441 
Q 2309 441 2620 675 
Q 2931 909 2931 1356 
Q 2931 1769 2642 2001 
Q 2353 2234 1838 2234 
L 1294 2234 
L 1294 2753 
L 1863 2753 
Q 2328 2753 2575 2939 
Q 2822 3125 2822 3475 
Q 2822 3834 2567 4026 
Q 2313 4219 1838 4219 
Q 1578 4219 1281 4162 
Q 984 4106 628 3988 
L 628 4550 
Q 988 4650 1302 4700 
Q 1616 4750 1894 4750 
Q 2613 4750 3031 4423 
Q 3450 4097 3450 3541 
Q 3450 3153 3228 2886 
Q 3006 2619 2597 2516 
z
" transform="scale(0.015625)"/>
       </defs>
       <use xlink:href="#DejaVuSans-33"/>
       <use xlink:href="#DejaVuSans-30" x="63.623047"/>
       <use xlink:href="#DejaVuSans-2c" x="127.246094"/>
       <use xlink:href="#DejaVuSans-30" x="159.033203"/>
       <use xlink:href="#DejaVuSans-30" x="222.65625"/>
       <use xlink:href="#DejaVuSans-30" x="286.279297"/>
      </g>
     </g>
    </g>
    <g id="ytick_4">
     <g id="line2d_12">
      <g>
       <use xlink:href="#m75906e85dc" x="57.6" y="160.316784" style="stroke: #000000; stroke-width: 0.8"/>
      </g>
     </g>
     <g id="text_12">
      <!-- 40,000 -->
      <g transform="translate(15.609375 164.116002)scale(0.1 -0.1)">
       <use xlink:href="#DejaVuSans-34"/>
       <use xlink:href="#DejaVuSans-30" x="63.623047"/>
       <use xlink:href="#DejaVuSans-2c" x="127.246094"/>
       <use xlink:href="#DejaVuSans-30" x="159.033203"/>
       <use xlink:href="#DejaVuSans-30" x="222.65625"/>
       <use xlink:href="#DejaVuSans-30" x="286.279297"/>
      </g>
     </g>
    </g>
    <g id="ytick_5">
     <g id="line2d_13">
      <g>
       <use xlink:href="#m75906e85dc" x="57.6" y="114.996757" style="stroke: #000000; stroke-width: 0.8"/>
      </g>
     </g>
     <g id="text_13">
      <!-- 50,000 -->
      <g transform="translate(15.609375 118.795976)scale(0.1 -0.1)">
       <use xlink:href="#DejaVuSans-35"/>
       <use xlink:href="#DejaVuSans-30" x="63.623047"/>
       <use xlink:href="#DejaVuSans-2c" x="127.246094"/>
       <use xlink:href="#DejaVuSans-30" x="159.033203"/>
       <use xlink:href="#DejaVuSans-30" x="222.65625"/>
       <use xlink:href="#DejaVuSans-30" x="286.279297"/>
      </g>
     </g>
    </g>
    <g id="ytick_6">
     <g id="line2d_14">
      <g>
       <use xlink:href="#m75906e85dc" x="57.6" y="69.676731" style="stroke: #000000; stroke-width: 0.8"/>
      </g>
     </g>
     <g id="text_14">
      <!-- 60,000 -->
      <g transform="translate(15.609375 73.47595)scale(0.1 -0.1)">
       <use xlink:href="#DejaVuSans-36"/>
       <use xlink:href="#DejaVuSans-30" x="63.623047"/>
       <use xlink:href="#DejaVuSans-2c" x="127.246094"/>
       <use xlink:href="#DejaVuSans-30" x="159.033203"/>
       <use xlink:href="#DejaVuSans-30" x="222.65625"/>
       <use xlink:href="#DejaVuSans-30" x="286.279297"/>
      </g>
     </g>
    </g>
    <g id="text_15">
     <!-- Bitcoin Value -->
     <g transform="translate(9.529687 206.994406)rotate(-90)scale(0.1 -0.1)">
      <defs>
       <path id="DejaVuSans-42" d="M 1259 2228 
L 1259 519 
L 2272 519 
Q 2781 519 3026 730 
Q 3272 941 3272 1375 
Q 3272 1813 3026 2020 
Q 2781 2228 2272 2228 
L 1259 2228 
z
M 1259 4147 
L 1259 2741 
L 2194 2741 
Q 2656 2741 2882 2914 
Q 3109 3088 3109 3444 
Q 3109 3797 2882 3972 
Q 2656 4147 2194 4147 
L 1259 4147 
z
M 628 4666 
L 2241 4666 
Q 2963 4666 3353 4366 
Q 3744 4066 3744 3513 
Q 3744 3084 3544 2831 
Q 3344 2578 2956 2516 
Q 3422 2416 3680 2098 
Q 3938 1781 3938 1306 
Q 3938 681 3513 340 
Q 3088 0 2303 0 
L 628 0 
L 628 4666 
z
" transform="scale(0.015625)"/>
       <path id="DejaVuSans-69" d="M 603 3500 
L 1178 3500 
L 1178 0 
L 603 0 
L 603 3500 
z
M 603 4863 
L 1178 4863 
L 1178 4134 
L 603 4134 
L 603 4863 
z
" transform="scale(0.015625)"/>
       <path id="DejaVuSans-74" d="M 1172 4494 
L 1172 3500 
L 2356 3500 
L 2356 3053 
L 1172 3053 
L 1172 1153 
Q 1172 725 1289 603 
Q 1406 481 1766 481 
L 2356 481 
L 2356 0 
L 1766 0 
Q 1100 0 847 248 
Q 594 497 594 1153 
L 594 3053 
L 172 3053 
L 172 3500 
L 594 3500 
L 594 4494 
L 1172 4494 
z
" transform="scale(0.015625)"/>
       <path id="DejaVuSans-63" d="M 3122 3366 
L 3122 2828 
Q 2878 2963 2633 3030 
Q 2388 3097 2138 3097 
Q 1578 3097 1268 2742 
Q 959 2388 959 1747 
Q 959 1106 1268 751 
Q 1578 397 2138 397 
Q 2388 397 2633 464 
Q 2878 531 3122 666 
L 3122 134 
Q 2881 22 2623 -34 
Q 2366 -91 2075 -91 
Q 1284 -91 818 406 
Q 353 903 353 1747 
Q 353 2603 823 3093 
Q 1294 3584 2113 3584 
Q 2378 3584 2631 3529 
Q 2884 3475 3122 3366 
z
" transform="scale(0.015625)"/>
       <path id="DejaVuSans-6f" d="M 1959 3097 
Q 1497 3097 1228 2736 
Q 959 2375 959 1747 
Q 959 1119 1226 758 
Q 1494 397 1959 397 
Q 2419 397 2687 759 
Q 2956 1122 2956 1747 
Q 2956 2369 2687 2733 
Q 2419 3097 1959 3097 
z
M 1959 3584 
Q 2709 3584 3137 3096 
Q 3566 2609 3566 1747 
Q 3566 888 3137 398 
Q 2709 -91 1959 -91 
Q 1206 -91 779 398 
Q 353 888 353 1747 
Q 353 2609 779 3096 
Q 1206 3584 1959 3584 
z
" transform="scale(0.015625)"/>
       <path id="DejaVuSans-6e" d="M 3513 2113 
L 3513 0 
L 2938 0 
L 2938 2094 
Q 2938 2591 2744 2837 
Q 2550 3084 2163 3084 
Q 1697 3084 1428 2787 
Q 1159 2491 1159 1978 
L 1159 0 
L 581 0 
L 581 3500 
L 1159 3500 
L 1159 2956 
Q 1366 3272 1645 3428 
Q 1925 3584 2291 3584 
Q 2894 3584 3203 3211 
Q 3513 2838 3513 2113 
z
" transform="scale(0.015625)"/>
       <path id="DejaVuSans-20" transform="scale(0.015625)"/>
       <path id="DejaVuSans-56" d="M 1831 0 
L 50 4666 
L 709 4666 
L 2188 738 
L 3669 4666 
L 4325 4666 
L 2547 0 
L 1831 0 
z
" transform="scale(0.015625)"/>
       <path id="DejaVuSans-61" d="M 2194 1759 
Q 1497 1759 1228 1600 
Q 959 1441 959 1056 
Q 959 750 1161 570 
Q 1363 391 1709 391 
Q 2188 391 2477 730 
Q 2766 1069 2766 1631 
L 2766 1759 
L 2194 1759 
z
M 3341 1997 
L 3341 0 
L 2766 0 
L 2766 531 
Q 2569 213 2275 61 
Q 1981 -91 1556 -91 
Q 1019 -91 701 211 
Q 384 513 384 1019 
Q 384 1609 779 1909 
Q 1175 2209 1959 2209 
L 2766 2209 
L 2766 2266 
Q 2766 2663 2505 2880 
Q 2244 3097 1772 3097 
Q 1472 3097 1187 3025 
Q 903 2953 641 2809 
L 641 3341 
Q 956 3463 1253 3523 
Q 1550 3584 1831 3584 
Q 2591 3584 2966 3190 
Q 3341 2797 3341 1997 
z
" transform="scale(0.015625)"/>
       <path id="DejaVuSans-6c" d="M 603 4863 
L 1178 4863 
L 1178 0 
L 603 0 
L 603 4863 
z
" transform="scale(0.015625)"/>
       <path id="DejaVuSans-75" d="M 544 1381 
L 544 3500 
L 1119 3500 
L 1119 1403 
Q 1119 906 1312 657 
Q 1506 409 1894 409 
Q 2359 409 2629 706 
Q 2900 1003 2900 1516 
L 2900 3500 
L 3475 3500 
L 3475 0 
L 2900 0 
L 2900 538 
Q 2691 219 2414 64 
Q 2138 -91 1772 -91 
Q 1169 -91 856 284 
Q 544 659 544 1381 
z
M 1991 3584 
L 1991 3584 
z
" transform="scale(0.015625)"/>
       <path id="DejaVuSans-65" d="M 3597 1894 
L 3597 1613 
L 953 1613 
Q 991 1019 1311 708 
Q 1631 397 2203 397 
Q 2534 397 2845 478 
Q 3156 559 3463 722 
L 3463 178 
Q 3153 47 2828 -22 
Q 2503 -91 2169 -91 
Q 1331 -91 842 396 
Q 353 884 353 1716 
Q 353 2575 817 3079 
Q 1281 3584 2069 3584 
Q 2775 3584 3186 3129 
Q 3597 2675 3597 1894 
z
M 3022 2063 
Q 3016 2534 2758 2815 
Q 2500 3097 2075 3097 
Q 1594 3097 1305 2825 
Q 1016 2553 972 2059 
L 3022 2063 
z
" transform="scale(0.015625)"/>
      </defs>
      <use xlink:href="#DejaVuSans-42"/>
      <use xlink:href="#DejaVuSans-69" x="68.603516"/>
      <use xlink:href="#DejaVuSans-74" x="96.386719"/>
      <use xlink:href="#DejaVuSans-63" x="135.595703"/>
      <use xlink:href="#DejaVuSans-6f" x="190.576172"/>
      <use xlink:href="#DejaVuSans-69" x="251.757812"/>
      <use xlink:href="#DejaVuSans-6e" x="279.541016"/>
      <use xlink:href="#DejaVuSans-20" x="342.919922"/>
      <use xlink:href="#DejaVuSans-56" x="374.707031"/>
      <use xlink:href="#DejaVuSans-61" x="435.365234"/>
      <use xlink:href="#DejaVuSans-6c" x="496.644531"/>
      <use xlink:href="#DejaVuSans-75" x="524.427734"/>
      <use xlink:href="#DejaVuSans-65" x="587.806641"/>
     </g>
    </g>
   </g>
   <g id="line2d_15">
    <path d="M 73.832727 295.488 
L 74.727092 294.865309 
L 75.621458 294.491586 
L 76.515823 294.516064 
L 78.304553 293.495387 
L 79.198918 292.421907 
L 80.093283 292.020222 
L 81.882014 291.671263 
L 82.776379 291.777069 
L 84.565109 293.739452 
L 85.459474 294.954012 
L 86.353839 294.389953 
L 87.248204 294.063466 
L 88.142569 293.118977 
L 91.72003 292.803252 
L 92.614395 292.948411 
L 93.50876 293.478992 
L 94.403125 293.875756 
L 95.297491 293.773333 
L 96.191856 293.385446 
L 97.086221 293.269587 
L 97.980586 293.271995 
L 98.874951 293.032677 
L 99.769316 292.217087 
L 100.663681 291.129315 
L 102.452412 289.619271 
L 103.346777 289.475156 
L 104.241142 289.448908 
L 107.818603 290.098067 
L 108.712968 289.355609 
L 109.607333 288.386884 
L 111.396063 283.99807 
L 112.290428 282.291589 
L 113.184793 281.932227 
L 114.079159 282.045256 
L 114.973524 282.000721 
L 115.867889 281.284002 
L 116.762254 280.996235 
L 117.656619 280.468466 
L 118.550984 280.714078 
L 119.445349 279.846445 
L 120.339715 279.386613 
L 121.23408 279.41931 
L 122.128445 279.140672 
L 123.02281 278.533415 
L 123.917175 275.034432 
L 124.81154 272.397968 
L 125.705905 271.294654 
L 126.60027 271.705051 
L 127.494636 272.375494 
L 128.389001 271.675292 
L 129.283366 271.520824 
L 131.072096 268.36442 
L 131.966461 267.716097 
L 132.860826 268.364312 
L 133.755192 267.871012 
L 134.649557 265.190942 
L 135.543922 262.097149 
L 137.332652 258.849948 
L 138.227017 257.46474 
L 139.121382 256.595607 
L 140.015748 257.397323 
L 140.910113 256.896942 
L 141.804478 256.544877 
L 142.698843 258.787985 
L 143.593208 262.468215 
L 144.487573 264.319011 
L 145.381938 262.339672 
L 146.276304 257.707778 
L 148.065034 253.976054 
L 148.959399 254.480328 
L 149.853764 254.697701 
L 151.642494 255.466446 
L 152.53686 254.69124 
L 155.219955 259.299132 
L 156.11432 259.694564 
L 157.008685 259.158223 
L 157.90305 257.52216 
L 158.797415 255.232145 
L 159.691781 254.063839 
L 160.586146 250.227677 
L 162.374876 237.837189 
L 163.269241 233.890778 
L 164.163606 233.338414 
L 165.057971 234.546094 
L 165.952337 235.171637 
L 166.846702 236.072809 
L 168.635432 233.559614 
L 169.529797 228.085217 
L 171.318527 219.809615 
L 172.212893 218.538025 
L 173.107258 214.427637 
L 174.895988 208.421051 
L 175.790353 203.239908 
L 176.684718 196.78361 
L 177.579083 192.555001 
L 178.473449 190.043056 
L 179.367814 184.056282 
L 181.156544 160.839511 
L 182.050909 155.905231 
L 182.945274 159.236847 
L 183.839639 169.095386 
L 184.734005 180.7205 
L 185.62837 182.90894 
L 186.522735 176.828294 
L 187.4171 171.620943 
L 188.311465 173.675966 
L 189.20583 179.325628 
L 190.100195 179.26798 
L 190.99456 179.092813 
L 191.888926 179.561421 
L 192.783291 189.966018 
L 194.572021 200.561958 
L 195.466386 197.299823 
L 196.360751 198.25732 
L 197.255116 197.062168 
L 198.149482 199.770783 
L 199.043847 197.323293 
L 199.938212 193.906236 
L 200.832577 187.113056 
L 201.726942 187.621391 
L 202.621307 189.249041 
L 203.515672 187.389443 
L 204.410038 179.634993 
L 205.304403 173.726686 
L 206.198768 169.563143 
L 207.093133 167.209586 
L 207.987498 164.188536 
L 209.776228 138.795294 
L 210.670594 129.124882 
L 211.564959 127.531586 
L 212.459324 127.042763 
L 213.353689 123.966154 
L 214.248054 123.875589 
L 215.142419 123.992465 
L 216.036784 121.535096 
L 217.825515 109.757121 
L 218.71988 98.560181 
L 219.614245 92.316567 
L 220.50861 82.620287 
L 221.402975 86.740593 
L 224.086071 126.15833 
L 224.980436 130.178389 
L 225.874801 137.799759 
L 226.769166 139.65789 
L 227.663531 132.858784 
L 228.557896 127.731085 
L 229.452261 117.397508 
L 230.346627 119.507873 
L 231.240992 118.369008 
L 232.135357 121.559973 
L 233.029722 117.095719 
L 233.924087 111.459541 
L 234.818452 101.512193 
L 236.607183 84.335906 
L 237.501548 80.743019 
L 238.395913 72.514015 
L 239.290278 71.179817 
L 240.184643 74.748406 
L 241.079008 83.515713 
L 241.973373 84.692924 
L 242.867739 81.4863 
L 243.762104 79.506255 
L 244.656469 81.071906 
L 245.550834 81.56088 
L 247.339564 94.013643 
L 248.233929 102.69352 
L 249.128295 107.210862 
L 250.02266 105.661081 
L 250.917025 99.251911 
L 251.81139 90.916007 
L 254.494485 76.078925 
L 255.38885 74.525522 
L 256.283216 74.728462 
L 257.177581 78.451852 
L 258.071946 79.796282 
L 258.966311 80.125571 
L 259.860676 78.642043 
L 260.755041 82.620272 
L 261.649406 84.398535 
L 262.543772 84.173174 
L 263.438137 77.224311 
L 264.332502 73.792807 
L 265.226867 70.913867 
L 266.121232 64.55235 
L 267.909962 53.752779 
L 268.804328 58.270803 
L 269.698693 63.832439 
L 270.593058 76.551039 
L 271.487423 86.705075 
L 272.381788 92.914905 
L 273.276153 96.726079 
L 274.170518 102.686686 
L 275.064884 111.203712 
L 275.959249 116.506086 
L 276.853614 119.971858 
L 277.747979 113.905829 
L 278.642344 104.603521 
L 279.536709 93.777378 
L 280.431074 94.309907 
L 282.219805 84.959597 
L 283.11417 80.004018 
L 284.008535 81.908452 
L 284.9029 90.920742 
L 285.797265 89.724572 
L 286.69163 91.333049 
L 287.585995 83.977978 
L 288.480361 81.911087 
L 289.374726 78.544962 
L 290.269091 81.080333 
L 291.163456 85.121762 
L 292.057821 101.2988 
L 293.846551 124.040372 
L 294.740917 127.106751 
L 295.635282 131.857129 
L 296.529647 141.759555 
L 297.424012 147.035742 
L 298.318377 162.342036 
L 299.212742 165.678249 
L 300.107107 174.717511 
L 301.001473 172.258314 
L 301.895838 181.632139 
L 302.790203 178.0244 
L 303.684568 175.459683 
L 304.578933 166.620944 
L 305.473298 166.624319 
L 306.367663 171.502553 
L 307.262029 179.32026 
L 308.156394 184.234677 
L 309.050759 181.214801 
L 311.733854 170.691043 
L 312.628219 170.002186 
L 313.522585 173.459052 
L 315.311315 185.799201 
L 316.20568 189.382083 
L 317.100045 186.573192 
L 317.99441 180.685346 
L 318.888775 173.517096 
L 319.78314 176.492758 
L 320.677506 172.382612 
L 321.571871 167.029068 
L 322.466236 158.866887 
L 323.360601 160.797525 
L 324.254966 165.875621 
L 325.149331 173.92555 
L 326.043696 178.962217 
L 326.938062 183.33554 
L 327.832427 190.361835 
L 328.726792 195.275025 
L 329.621157 198.020256 
L 330.515522 191.919138 
L 331.409887 192.631896 
L 332.304252 194.740774 
L 333.198618 194.605057 
L 334.092983 189.278276 
L 334.987348 182.496939 
L 335.881713 182.143832 
L 336.776078 183.96988 
L 337.670443 187.669015 
L 338.564808 188.336869 
L 339.459174 185.489541 
L 340.353539 185.875459 
L 341.247904 186.708015 
L 342.142269 189.352309 
L 343.036634 190.614825 
L 344.825364 191.791974 
L 345.71973 189.34069 
L 346.614095 190.382293 
L 347.50846 191.608508 
L 349.29719 196.445213 
L 351.08592 200.733849 
L 351.980285 200.413998 
L 352.874651 201.217993 
L 353.769016 203.898246 
L 354.663381 203.159063 
L 355.557746 200.376027 
L 356.452111 193.461014 
L 357.346476 189.763988 
L 358.240841 184.55649 
L 359.135207 178.328468 
L 360.029572 169.744793 
L 360.923937 162.247108 
L 362.712667 154.458219 
L 363.607032 152.487658 
L 364.501397 153.244991 
L 366.290128 166.224393 
L 367.184493 166.969954 
L 368.078858 164.023222 
L 369.867588 147.207251 
L 370.761953 141.973142 
L 371.656319 136.03744 
L 372.550684 134.890434 
L 373.445049 132.320793 
L 374.339414 136.590907 
L 375.233779 133.420317 
L 376.128144 131.373101 
L 377.022509 126.99091 
L 377.916875 130.568257 
L 378.81124 135.216512 
L 379.705605 139.244869 
L 380.59997 137.986534 
L 381.494335 129.774727 
L 382.3887 122.625744 
L 383.283065 117.995356 
L 384.177431 117.914428 
L 385.071796 120.188244 
L 385.966161 121.207966 
L 386.860526 126.208068 
L 387.754891 124.281858 
L 388.649256 124.671179 
L 389.543621 121.203919 
L 390.437986 124.649473 
L 391.332352 127.613523 
L 392.226717 127.433186 
L 393.121082 123.453096 
L 394.015447 118.257288 
L 394.909812 116.600976 
L 396.698542 107.967887 
L 397.592908 113.532945 
L 398.487273 123.93005 
L 398.487273 123.93005 
" clip-path="url(#p01f47d6c6e)" style="fill: none; stroke: #1f77b4; stroke-width: 1.5; stroke-linecap: square"/>
   </g>
   <g id="line2d_16">
    <path d="M 73.832727 294.484727 
L 74.727092 294.253595 
L 75.621458 294.777811 
L 76.515823 293.219392 
L 77.410188 292.71643 
L 78.304553 291.978575 
L 80.093283 292.053987 
L 80.987648 291.375818 
L 81.882014 292.109006 
L 82.776379 294.326016 
L 83.670744 293.864839 
L 84.565109 295.214198 
L 85.459474 292.957487 
L 86.353839 293.136909 
L 88.142569 292.768004 
L 89.036935 293.13922 
L 89.9313 292.466354 
L 90.825665 292.751326 
L 91.72003 293.470464 
L 93.50876 293.776239 
L 95.297491 292.703106 
L 96.191856 293.540711 
L 97.086221 293.236794 
L 97.980586 292.092464 
L 98.874951 291.458482 
L 99.769316 290.373158 
L 100.663681 290.038062 
L 101.558047 289.297396 
L 102.452412 289.804074 
L 103.346777 289.790116 
L 104.241142 289.461953 
L 105.135507 290.260311 
L 106.029872 290.083835 
L 106.924237 289.441695 
L 107.818603 288.308876 
L 108.712968 287.550672 
L 109.607333 283.444224 
L 110.501698 282.725041 
L 111.396063 282.932289 
L 112.290428 282.098673 
L 113.184793 282.514212 
L 114.079159 282.334745 
L 114.973524 279.72839 
L 115.867889 281.371105 
L 116.762254 280.602206 
L 117.656619 280.121541 
L 118.550984 279.008482 
L 119.445349 279.241608 
L 120.339715 280.074182 
L 121.23408 278.04321 
L 122.128445 277.443717 
L 123.02281 270.936668 
L 123.917175 270.916818 
L 124.81154 274.342694 
L 125.705905 271.393448 
L 126.60027 272.12795 
L 127.494636 272.180023 
L 128.389001 270.405245 
L 129.283366 267.745322 
L 130.177731 267.547002 
L 131.072096 268.672117 
L 131.966461 269.229145 
L 132.860826 265.798464 
L 133.755192 261.472351 
L 134.649557 260.934266 
L 135.543922 260.834018 
L 136.438287 256.905316 
L 137.332652 256.849572 
L 138.227017 258.107067 
L 139.121382 258.21298 
L 140.015748 254.706977 
L 140.910113 256.668065 
L 141.804478 263.866517 
L 142.698843 263.923484 
L 143.593208 261.233514 
L 144.487573 259.152509 
L 145.381938 252.27234 
L 146.276304 256.429138 
L 147.170669 254.46021 
L 148.065034 253.428862 
L 148.959399 256.982178 
L 149.853764 254.786106 
L 150.748129 253.777282 
L 151.642494 254.666688 
L 152.53686 258.575721 
L 153.431225 257.509432 
L 154.32559 258.897992 
L 155.219955 259.887781 
L 156.11432 256.379649 
L 157.008685 254.743415 
L 157.90305 254.235332 
L 158.797415 253.49589 
L 159.691781 244.705029 
L 160.586146 238.05214 
L 161.480511 236.677447 
L 162.374876 233.418348 
L 163.269241 235.137518 
L 164.163606 238.514313 
L 165.057971 233.621971 
L 165.952337 236.212554 
L 166.846702 234.118044 
L 167.741067 229.685519 
L 168.635432 221.756191 
L 169.529797 222.647319 
L 170.424162 219.066538 
L 171.318527 217.527108 
L 172.212893 210.818747 
L 173.107258 210.24785 
L 174.001623 208.384336 
L 174.895988 195.686979 
L 175.790353 192.037267 
L 176.684718 196.414048 
L 177.579083 187.297291 
L 179.367814 162.646052 
L 180.262179 157.279209 
L 181.156544 159.22584 
L 182.050909 168.2927 
L 182.945274 180.507127 
L 183.839639 187.455231 
L 184.734005 172.131125 
L 185.62837 164.1306 
L 186.522735 174.689939 
L 187.4171 178.149307 
L 188.311465 179.382873 
L 189.20583 175.578982 
L 190.100195 178.353565 
L 190.99456 180.534138 
L 191.888926 202.020815 
L 192.783291 192.030016 
L 193.677656 196.120782 
L 194.572021 195.318165 
L 195.466386 195.470349 
L 196.360751 194.117365 
L 197.255116 203.73713 
L 198.149482 190.213634 
L 199.043847 186.084572 
L 199.938212 186.067169 
L 200.832577 191.422365 
L 201.726942 189.671018 
L 203.515672 170.848025 
L 204.410038 173.903319 
L 205.304403 168.118127 
L 206.198768 163.383771 
L 207.093133 165.174637 
L 207.987498 131.473759 
L 208.881863 130.45279 
L 209.776228 138.208904 
L 210.670594 124.000124 
L 211.564959 126.456379 
L 212.459324 127.753484 
L 213.353689 120.796044 
L 214.248054 124.278979 
L 215.142419 118.803186 
L 216.036784 105.396934 
L 216.93115 107.708617 
L 217.825515 88.183164 
L 218.71988 87.799303 
L 219.614245 81.061756 
L 220.50861 96.309498 
L 221.402975 120.070652 
L 222.29734 112.164981 
L 223.191705 129.497262 
L 224.086071 131.582482 
L 224.980436 132.418365 
L 225.874801 137.140485 
L 226.769166 116.726034 
L 227.663531 122.447188 
L 228.557896 112.83182 
L 229.452261 122.026301 
L 230.346627 120.156986 
L 231.240992 120.065394 
L 232.135357 109.695674 
L 233.029722 104.576188 
L 233.924087 92.873696 
L 234.818452 87.817295 
L 235.712817 79.810289 
L 236.607183 82.124874 
L 237.501548 63.972164 
L 238.395913 73.603848 
L 239.290278 88.916351 
L 240.184643 83.851113 
L 241.079008 74.603018 
L 241.973373 80.254879 
L 242.867739 78.400383 
L 243.762104 78.351891 
L 244.656469 81.409316 
L 245.550834 95.939868 
L 246.445199 94.704897 
L 247.339564 103.629453 
L 248.233929 108.579804 
L 249.128295 91.999246 
L 250.02266 88.421411 
L 250.917025 88.784969 
L 251.81139 80.428137 
L 252.705755 75.431786 
L 254.494485 75.401013 
L 255.38885 74.066792 
L 256.283216 82.926086 
L 257.177581 77.804651 
L 258.071946 73.963553 
L 258.966311 78.648012 
L 259.860676 88.043714 
L 260.755041 78.520527 
L 261.649406 78.275844 
L 262.543772 70.700964 
L 263.438137 69.835941 
L 264.332502 70.42569 
L 265.226867 53.568 
L 266.121232 56.220672 
L 267.015597 54.935804 
L 267.909962 63.078226 
L 268.804328 69.282039 
L 269.698693 86.665034 
L 270.593058 89.150112 
L 271.487423 85.502892 
L 272.381788 97.735266 
L 273.276153 107.148643 
L 274.170518 109.770769 
L 275.959249 119.186231 
L 276.853614 96.612054 
L 277.747979 92.012887 
L 278.642344 92.862003 
L 279.536709 98.75338 
L 280.431074 79.662455 
L 281.32544 79.386547 
L 282.219805 85.038135 
L 283.11417 82.305927 
L 284.008535 100.305274 
L 284.9029 81.12806 
L 285.797265 85.86432 
L 286.69163 81.549355 
L 287.585995 74.531367 
L 288.480361 77.468467 
L 289.374726 88.33272 
L 290.269091 84.40574 
L 291.163456 119.496628 
L 292.057821 116.346071 
L 292.952186 115.347897 
L 293.846551 129.786585 
L 294.740917 131.123254 
L 295.635282 144.018614 
L 296.529647 147.118731 
L 297.424012 174.07472 
L 298.318377 156.762243 
L 299.212742 172.642244 
L 300.107107 171.518534 
L 301.001473 184.089222 
L 301.895838 166.078817 
L 302.790203 167.520402 
L 303.684568 163.643092 
L 304.578933 167.362733 
L 305.473298 179.851437 
L 306.367663 184.573557 
L 307.262029 179.874233 
L 308.156394 172.505423 
L 309.050759 175.441708 
L 309.945124 171.260482 
L 310.839489 163.994096 
L 311.733854 174.43166 
L 312.628219 180.573113 
L 313.522585 179.277912 
L 314.41695 189.70741 
L 315.311315 190.00054 
L 316.20568 172.379343 
L 317.100045 175.251681 
L 317.99441 172.493459 
L 318.888775 180.733908 
L 319.78314 164.545958 
L 320.677506 157.933857 
L 321.571871 159.462229 
L 322.466236 167.908477 
L 323.360601 169.072431 
L 324.254966 179.66925 
L 325.149331 180.601257 
L 326.043696 180.292265 
L 326.938062 197.993361 
L 327.832427 194.544325 
L 328.726792 188.983241 
L 329.621157 184.611127 
L 330.515522 198.201697 
L 331.409887 195.84356 
L 332.304252 184.58815 
L 333.198618 185.43917 
L 334.092983 179.135018 
L 334.987348 182.762161 
L 335.881713 189.60766 
L 336.776078 188.15751 
L 337.670443 184.38634 
L 338.564808 181.575048 
L 339.459174 188.651 
L 340.353539 186.552501 
L 341.247904 188.23827 
L 342.142269 192.59638 
L 343.036634 188.331267 
L 343.930999 189.704237 
L 344.825364 186.477134 
L 345.71973 191.323612 
L 346.614095 193.461313 
L 347.50846 192.88099 
L 348.402825 197.757515 
L 349.29719 199.195701 
L 350.191555 198.745175 
L 351.08592 197.554028 
L 352.874651 206.587442 
L 353.769016 196.037756 
L 354.663381 195.222766 
L 355.557746 189.404853 
L 356.452111 186.24283 
L 357.346476 181.321709 
L 359.135207 163.00902 
L 360.029572 160.305318 
L 360.923937 160.289909 
L 361.818302 150.28225 
L 362.712667 152.797919 
L 363.607032 160.314699 
L 364.501397 163.96985 
L 365.395763 168.755372 
L 366.290128 161.44915 
L 367.184493 156.319557 
L 368.973223 139.314894 
L 369.867588 143.022027 
L 370.761953 131.613526 
L 371.656319 134.899636 
L 372.550684 134.885632 
L 373.445049 140.295393 
L 374.339414 124.813166 
L 375.233779 128.08432 
L 376.128144 128.337115 
L 377.022509 133.203851 
L 377.916875 139.249452 
L 378.81124 138.66351 
L 379.705605 129.795332 
L 380.59997 118.043396 
L 381.494335 119.836846 
L 382.3887 118.007457 
L 383.283065 117.156257 
L 384.177431 125.218327 
L 385.071796 119.655248 
L 385.966161 128.761356 
L 386.860526 119.27107 
L 387.754891 119.992611 
L 388.649256 120.404434 
L 389.543621 128.253907 
L 390.437986 127.886362 
L 391.332352 120.150732 
L 392.226717 118.037686 
L 393.121082 114.836642 
L 394.015447 115.235231 
L 394.909812 106.979373 
L 395.804177 102.862774 
L 396.698542 129.457607 
L 397.592908 132.76955 
L 398.487273 131.453864 
L 398.487273 131.453864 
" clip-path="url(#p01f47d6c6e)" style="fill: none; stroke: #ff7f0e; stroke-width: 1.5; stroke-linecap: square"/>
   </g>
   <g id="patch_3">
    <path d="M 57.6 307.584 
L 57.6 41.472 
" style="fill: none; stroke: #000000; stroke-width: 0.8; stroke-linejoin: miter; stroke-linecap: square"/>
   </g>
   <g id="patch_4">
    <path d="M 414.72 307.584 
L 414.72 41.472 
" style="fill: none; stroke: #000000; stroke-width: 0.8; stroke-linejoin: miter; stroke-linecap: square"/>
   </g>
   <g id="patch_5">
    <path d="M 57.6 307.584 
L 414.72 307.584 
" style="fill: none; stroke: #000000; stroke-width: 0.8; stroke-linejoin: miter; stroke-linecap: square"/>
   </g>
   <g id="patch_6">
    <path d="M 57.6 41.472 
L 414.72 41.472 
" style="fill: none; stroke: #000000; stroke-width: 0.8; stroke-linejoin: miter; stroke-linecap: square"/>
   </g>
   <g id="legend_1">
    <g id="patch_7">
     <path d="M 295.97 79.3845 
L 407.72 79.3845 
Q 409.72 79.3845 409.72 77.3845 
L 409.72 48.472 
Q 409.72 46.472 407.72 46.472 
L 295.97 46.472 
Q 293.97 46.472 293.97 48.472 
L 293.97 77.3845 
Q 293.97 79.3845 295.97 79.3845 
z
" style="fill: #ffffff; opacity: 0.8; stroke: #cccccc; stroke-linejoin: miter"/>
    </g>
    <g id="line2d_17">
     <path d="M 297.97 54.570438 
L 307.97 54.570438 
L 317.97 54.570438 
" style="fill: none; stroke: #1f77b4; stroke-width: 1.5; stroke-linecap: square"/>
    </g>
    <g id="text_16">
     <!-- predicted_value -->
     <g transform="translate(325.97 58.070438)scale(0.1 -0.1)">
      <defs>
       <path id="DejaVuSans-70" d="M 1159 525 
L 1159 -1331 
L 581 -1331 
L 581 3500 
L 1159 3500 
L 1159 2969 
Q 1341 3281 1617 3432 
Q 1894 3584 2278 3584 
Q 2916 3584 3314 3078 
Q 3713 2572 3713 1747 
Q 3713 922 3314 415 
Q 2916 -91 2278 -91 
Q 1894 -91 1617 61 
Q 1341 213 1159 525 
z
M 3116 1747 
Q 3116 2381 2855 2742 
Q 2594 3103 2138 3103 
Q 1681 3103 1420 2742 
Q 1159 2381 1159 1747 
Q 1159 1113 1420 752 
Q 1681 391 2138 391 
Q 2594 391 2855 752 
Q 3116 1113 3116 1747 
z
" transform="scale(0.015625)"/>
       <path id="DejaVuSans-72" d="M 2631 2963 
Q 2534 3019 2420 3045 
Q 2306 3072 2169 3072 
Q 1681 3072 1420 2755 
Q 1159 2438 1159 1844 
L 1159 0 
L 581 0 
L 581 3500 
L 1159 3500 
L 1159 2956 
Q 1341 3275 1631 3429 
Q 1922 3584 2338 3584 
Q 2397 3584 2469 3576 
Q 2541 3569 2628 3553 
L 2631 2963 
z
" transform="scale(0.015625)"/>
       <path id="DejaVuSans-64" d="M 2906 2969 
L 2906 4863 
L 3481 4863 
L 3481 0 
L 2906 0 
L 2906 525 
Q 2725 213 2448 61 
Q 2172 -91 1784 -91 
Q 1150 -91 751 415 
Q 353 922 353 1747 
Q 353 2572 751 3078 
Q 1150 3584 1784 3584 
Q 2172 3584 2448 3432 
Q 2725 3281 2906 2969 
z
M 947 1747 
Q 947 1113 1208 752 
Q 1469 391 1925 391 
Q 2381 391 2643 752 
Q 2906 1113 2906 1747 
Q 2906 2381 2643 2742 
Q 2381 3103 1925 3103 
Q 1469 3103 1208 2742 
Q 947 2381 947 1747 
z
" transform="scale(0.015625)"/>
       <path id="DejaVuSans-5f" d="M 3263 -1063 
L 3263 -1509 
L -63 -1509 
L -63 -1063 
L 3263 -1063 
z
" transform="scale(0.015625)"/>
       <path id="DejaVuSans-76" d="M 191 3500 
L 800 3500 
L 1894 563 
L 2988 3500 
L 3597 3500 
L 2284 0 
L 1503 0 
L 191 3500 
z
" transform="scale(0.015625)"/>
      </defs>
      <use xlink:href="#DejaVuSans-70"/>
      <use xlink:href="#DejaVuSans-72" x="63.476562"/>
      <use xlink:href="#DejaVuSans-65" x="102.339844"/>
      <use xlink:href="#DejaVuSans-64" x="163.863281"/>
      <use xlink:href="#DejaVuSans-69" x="227.339844"/>
      <use xlink:href="#DejaVuSans-63" x="255.123047"/>
      <use xlink:href="#DejaVuSans-74" x="310.103516"/>
      <use xlink:href="#DejaVuSans-65" x="349.3125"/>
      <use xlink:href="#DejaVuSans-64" x="410.835938"/>
      <use xlink:href="#DejaVuSans-5f" x="474.3125"/>
      <use xlink:href="#DejaVuSans-76" x="524.3125"/>
      <use xlink:href="#DejaVuSans-61" x="583.492188"/>
      <use xlink:href="#DejaVuSans-6c" x="644.771484"/>
      <use xlink:href="#DejaVuSans-75" x="672.554688"/>
      <use xlink:href="#DejaVuSans-65" x="735.933594"/>
     </g>
    </g>
    <g id="line2d_18">
     <path d="M 297.97 69.526688 
L 307.97 69.526688 
L 317.97 69.526688 
" style="fill: none; stroke: #ff7f0e; stroke-width: 1.5; stroke-linecap: square"/>
    </g>
    <g id="text_17">
     <!-- actual_value -->
     <g transform="translate(325.97 73.026688)scale(0.1 -0.1)">
      <use xlink:href="#DejaVuSans-61"/>
      <use xlink:href="#DejaVuSans-63" x="61.279297"/>
      <use xlink:href="#DejaVuSans-74" x="116.259766"/>
      <use xlink:href="#DejaVuSans-75" x="155.46875"/>
      <use xlink:href="#DejaVuSans-61" x="218.847656"/>
      <use xlink:href="#DejaVuSans-6c" x="280.126953"/>
      <use xlink:href="#DejaVuSans-5f" x="307.910156"/>
      <use xlink:href="#DejaVuSans-76" x="357.910156"/>
      <use xlink:href="#DejaVuSans-61" x="417.089844"/>
      <use xlink:href="#DejaVuSans-6c" x="478.369141"/>
      <use xlink:href="#DejaVuSans-75" x="506.152344"/>
      <use xlink:href="#DejaVuSans-65" x="569.53125"/>
     </g>
    </g>
   </g>
  </g>
 </g>
 <defs>
  <clipPath id="p01f47d6c6e">
   <rect x="57.6" y="41.472" width="357.12" height="266.112"/>
  </clipPath>
 </defs>
</svg>
