<?xml version="1.0" encoding="utf-8" standalone="no"?>
<!DOCTYPE svg PUBLIC "-//W3C//DTD SVG 1.1//EN"
  "http://www.w3.org/Graphics/SVG/1.1/DTD/svg11.dtd">
<svg xmlns:xlink="http://www.w3.org/1999/xlink" width="460.8pt" height="345.6pt" viewBox="0 0 460.8 345.6" xmlns="http://www.w3.org/2000/svg" version="1.1">
 <metadata>
  <rdf:RDF xmlns:dc="http://purl.org/dc/elements/1.1/" xmlns:cc="http://creativecommons.org/ns#" xmlns:rdf="http://www.w3.org/1999/02/22-rdf-syntax-ns#">
   <cc:Work>
    <dc:type rdf:resource="http://purl.org/dc/dcmitype/StillImage"/>
    <dc:date>2022-10-26T23:59:15.609800</dc:date>
    <dc:format>image/svg+xml</dc:format>
    <dc:creator>
     <cc:Agent>
      <dc:title>Matplotlib v3.5.2, https://matplotlib.org/</dc:title>
     </cc:Agent>
    </dc:creator>
   </cc:Work>
  </rdf:RDF>
 </metadata>
 <defs>
  <style type="text/css">*{stroke-linejoin: round; stroke-linecap: butt}</style>
 </defs>
 <g id="figure_1">
  <g id="patch_1">
   <path d="M 0 345.6 
L 460.8 345.6 
L 460.8 0 
L 0 0 
z
" style="fill: #ffffff"/>
  </g>
  <g id="axes_1">
   <g id="patch_2">
    <path d="M 57.6 307.584 
L 414.72 307.584 
L 414.72 41.472 
L 57.6 41.472 
z
" style="fill: #ffffff"/>
   </g>
   <g id="matplotlib.axis_1">
    <g id="xtick_1">
     <g id="line2d_1">
      <defs>
       <path id="m5bc4a80d41" d="M 0 0 
L 0 3.5 
" style="stroke: #000000; stroke-width: 0.8"/>
      </defs>
      <g>
       <use xlink:href="#m5bc4a80d41" x="103.110191" y="307.584" style="stroke: #000000; stroke-width: 0.8"/>
      </g>
     </g>
     <g id="text_1">
      <!-- 800 -->
      <g transform="translate(93.566441 322.182437)scale(0.1 -0.1)">
       <defs>
        <path id="DejaVuSans-38" d="M 2034 2216 
Q 1584 2216 1326 1975 
Q 1069 1734 1069 1313 
Q 1069 891 1326 650 
Q 1584 409 2034 409 
Q 2484 409 2743 651 
Q 3003 894 3003 1313 
Q 3003 1734 2745 1975 
Q 2488 2216 2034 2216 
z
M 1403 2484 
Q 997 2584 770 2862 
Q 544 3141 544 3541 
Q 544 4100 942 4425 
Q 1341 4750 2034 4750 
Q 2731 4750 3128 4425 
Q 3525 4100 3525 3541 
Q 3525 3141 3298 2862 
Q 3072 2584 2669 2484 
Q 3125 2378 3379 2068 
Q 3634 1759 3634 1313 
Q 3634 634 3220 271 
Q 2806 -91 2034 -91 
Q 1263 -91 848 271 
Q 434 634 434 1313 
Q 434 1759 690 2068 
Q 947 2378 1403 2484 
z
M 1172 3481 
Q 1172 3119 1398 2916 
Q 1625 2713 2034 2713 
Q 2441 2713 2670 2916 
Q 2900 3119 2900 3481 
Q 2900 3844 2670 4047 
Q 2441 4250 2034 4250 
Q 1625 4250 1398 4047 
Q 1172 3844 1172 3481 
z
" transform="scale(0.015625)"/>
        <path id="DejaVuSans-30" d="M 2034 4250 
Q 1547 4250 1301 3770 
Q 1056 3291 1056 2328 
Q 1056 1369 1301 889 
Q 1547 409 2034 409 
Q 2525 409 2770 889 
Q 3016 1369 3016 2328 
Q 3016 3291 2770 3770 
Q 2525 4250 2034 4250 
z
M 2034 4750 
Q 2819 4750 3233 4129 
Q 3647 3509 3647 2328 
Q 3647 1150 3233 529 
Q 2819 -91 2034 -91 
Q 1250 -91 836 529 
Q 422 1150 422 2328 
Q 422 3509 836 4129 
Q 1250 4750 2034 4750 
z
" transform="scale(0.015625)"/>
       </defs>
       <use xlink:href="#DejaVuSans-38"/>
       <use xlink:href="#DejaVuSans-30" x="63.623047"/>
       <use xlink:href="#DejaVuSans-30" x="127.246094"/>
      </g>
     </g>
    </g>
    <g id="xtick_2">
     <g id="line2d_2">
      <g>
       <use xlink:href="#m5bc4a80d41" x="168.171222" y="307.584" style="stroke: #000000; stroke-width: 0.8"/>
      </g>
     </g>
     <g id="text_2">
      <!-- 900 -->
      <g transform="translate(158.627472 322.182437)scale(0.1 -0.1)">
       <defs>
        <path id="DejaVuSans-39" d="M 703 97 
L 703 672 
Q 941 559 1184 500 
Q 1428 441 1663 441 
Q 2288 441 2617 861 
Q 2947 1281 2994 2138 
Q 2813 1869 2534 1725 
Q 2256 1581 1919 1581 
Q 1219 1581 811 2004 
Q 403 2428 403 3163 
Q 403 3881 828 4315 
Q 1253 4750 1959 4750 
Q 2769 4750 3195 4129 
Q 3622 3509 3622 2328 
Q 3622 1225 3098 567 
Q 2575 -91 1691 -91 
Q 1453 -91 1209 -44 
Q 966 3 703 97 
z
M 1959 2075 
Q 2384 2075 2632 2365 
Q 2881 2656 2881 3163 
Q 2881 3666 2632 3958 
Q 2384 4250 1959 4250 
Q 1534 4250 1286 3958 
Q 1038 3666 1038 3163 
Q 1038 2656 1286 2365 
Q 1534 2075 1959 2075 
z
" transform="scale(0.015625)"/>
       </defs>
       <use xlink:href="#DejaVuSans-39"/>
       <use xlink:href="#DejaVuSans-30" x="63.623047"/>
       <use xlink:href="#DejaVuSans-30" x="127.246094"/>
      </g>
     </g>
    </g>
    <g id="xtick_3">
     <g id="line2d_3">
      <g>
       <use xlink:href="#m5bc4a80d41" x="233.232254" y="307.584" style="stroke: #000000; stroke-width: 0.8"/>
      </g>
     </g>
     <g id="text_3">
      <!-- 1,000 -->
      <g transform="translate(218.918191 322.182437)scale(0.1 -0.1)">
       <defs>
        <path id="DejaVuSans-31" d="M 794 531 
L 1825 531 
L 1825 4091 
L 703 3866 
L 703 4441 
L 1819 4666 
L 2450 4666 
L 2450 531 
L 3481 531 
L 3481 0 
L 794 0 
L 794 531 
z
" transform="scale(0.015625)"/>
        <path id="DejaVuSans-2c" d="M 750 794 
L 1409 794 
L 1409 256 
L 897 -744 
L 494 -744 
L 750 256 
L 750 794 
z
" transform="scale(0.015625)"/>
       </defs>
       <use xlink:href="#DejaVuSans-31"/>
       <use xlink:href="#DejaVuSans-2c" x="63.623047"/>
       <use xlink:href="#DejaVuSans-30" x="95.410156"/>
       <use xlink:href="#DejaVuSans-30" x="159.033203"/>
       <use xlink:href="#DejaVuSans-30" x="222.65625"/>
      </g>
     </g>
    </g>
    <g id="xtick_4">
     <g id="line2d_4">
      <g>
       <use xlink:href="#m5bc4a80d41" x="298.293285" y="307.584" style="stroke: #000000; stroke-width: 0.8"/>
      </g>
     </g>
     <g id="text_4">
      <!-- 1,100 -->
      <g transform="translate(283.979222 322.182437)scale(0.1 -0.1)">
       <use xlink:href="#DejaVuSans-31"/>
       <use xlink:href="#DejaVuSans-2c" x="63.623047"/>
       <use xlink:href="#DejaVuSans-31" x="95.410156"/>
       <use xlink:href="#DejaVuSans-30" x="159.033203"/>
       <use xlink:href="#DejaVuSans-30" x="222.65625"/>
      </g>
     </g>
    </g>
    <g id="xtick_5">
     <g id="line2d_5">
      <g>
       <use xlink:href="#m5bc4a80d41" x="363.354316" y="307.584" style="stroke: #000000; stroke-width: 0.8"/>
      </g>
     </g>
     <g id="text_5">
      <!-- 1,200 -->
      <g transform="translate(349.040253 322.182437)scale(0.1 -0.1)">
       <defs>
        <path id="DejaVuSans-32" d="M 1228 531 
L 3431 531 
L 3431 0 
L 469 0 
L 469 531 
Q 828 903 1448 1529 
Q 2069 2156 2228 2338 
Q 2531 2678 2651 2914 
Q 2772 3150 2772 3378 
Q 2772 3750 2511 3984 
Q 2250 4219 1831 4219 
Q 1534 4219 1204 4116 
Q 875 4013 500 3803 
L 500 4441 
Q 881 4594 1212 4672 
Q 1544 4750 1819 4750 
Q 2544 4750 2975 4387 
Q 3406 4025 3406 3419 
Q 3406 3131 3298 2873 
Q 3191 2616 2906 2266 
Q 2828 2175 2409 1742 
Q 1991 1309 1228 531 
z
" transform="scale(0.015625)"/>
       </defs>
       <use xlink:href="#DejaVuSans-31"/>
       <use xlink:href="#DejaVuSans-2c" x="63.623047"/>
       <use xlink:href="#DejaVuSans-32" x="95.410156"/>
       <use xlink:href="#DejaVuSans-30" x="159.033203"/>
       <use xlink:href="#DejaVuSans-30" x="222.65625"/>
      </g>
     </g>
    </g>
    <g id="text_6">
     <!-- Date -->
     <g transform="translate(224.209219 335.860562)scale(0.1 -0.1)">
      <defs>
       <path id="DejaVuSans-44" d="M 1259 4147 
L 1259 519 
L 2022 519 
Q 2988 519 3436 956 
Q 3884 1394 3884 2338 
Q 3884 3275 3436 3711 
Q 2988 4147 2022 4147 
L 1259 4147 
z
M 628 4666 
L 1925 4666 
Q 3281 4666 3915 4102 
Q 4550 3538 4550 2338 
Q 4550 1131 3912 565 
Q 3275 0 1925 0 
L 628 0 
L 628 4666 
z
" transform="scale(0.015625)"/>
       <path id="DejaVuSans-61" d="M 2194 1759 
Q 1497 1759 1228 1600 
Q 959 1441 959 1056 
Q 959 750 1161 570 
Q 1363 391 1709 391 
Q 2188 391 2477 730 
Q 2766 1069 2766 1631 
L 2766 1759 
L 2194 1759 
z
M 3341 1997 
L 3341 0 
L 2766 0 
L 2766 531 
Q 2569 213 2275 61 
Q 1981 -91 1556 -91 
Q 1019 -91 701 211 
Q 384 513 384 1019 
Q 384 1609 779 1909 
Q 1175 2209 1959 2209 
L 2766 2209 
L 2766 2266 
Q 2766 2663 2505 2880 
Q 2244 3097 1772 3097 
Q 1472 3097 1187 3025 
Q 903 2953 641 2809 
L 641 3341 
Q 956 3463 1253 3523 
Q 1550 3584 1831 3584 
Q 2591 3584 2966 3190 
Q 3341 2797 3341 1997 
z
" transform="scale(0.015625)"/>
       <path id="DejaVuSans-74" d="M 1172 4494 
L 1172 3500 
L 2356 3500 
L 2356 3053 
L 1172 3053 
L 1172 1153 
Q 1172 725 1289 603 
Q 1406 481 1766 481 
L 2356 481 
L 2356 0 
L 1766 0 
Q 1100 0 847 248 
Q 594 497 594 1153 
L 594 3053 
L 172 3053 
L 172 3500 
L 594 3500 
L 594 4494 
L 1172 4494 
z
" transform="scale(0.015625)"/>
       <path id="DejaVuSans-65" d="M 3597 1894 
L 3597 1613 
L 953 1613 
Q 991 1019 1311 708 
Q 1631 397 2203 397 
Q 2534 397 2845 478 
Q 3156 559 3463 722 
L 3463 178 
Q 3153 47 2828 -22 
Q 2503 -91 2169 -91 
Q 1331 -91 842 396 
Q 353 884 353 1716 
Q 353 2575 817 3079 
Q 1281 3584 2069 3584 
Q 2775 3584 3186 3129 
Q 3597 2675 3597 1894 
z
M 3022 2063 
Q 3016 2534 2758 2815 
Q 2500 3097 2075 3097 
Q 1594 3097 1305 2825 
Q 1016 2553 972 2059 
L 3022 2063 
z
" transform="scale(0.015625)"/>
      </defs>
      <use xlink:href="#DejaVuSans-44"/>
      <use xlink:href="#DejaVuSans-61" x="77.001953"/>
      <use xlink:href="#DejaVuSans-74" x="138.28125"/>
      <use xlink:href="#DejaVuSans-65" x="177.490234"/>
     </g>
    </g>
   </g>
   <g id="matplotlib.axis_2">
    <g id="ytick_1">
     <g id="line2d_6">
      <defs>
       <path id="m55299f5afb" d="M 0 0 
L -3.5 0 
" style="stroke: #000000; stroke-width: 0.8"/>
      </defs>
      <g>
       <use xlink:href="#m55299f5afb" x="57.6" y="276.629174" style="stroke: #000000; stroke-width: 0.8"/>
      </g>
     </g>
     <g id="text_7">
      <!-- 1,500 -->
      <g transform="translate(21.971875 280.428393)scale(0.1 -0.1)">
       <defs>
        <path id="DejaVuSans-35" d="M 691 4666 
L 3169 4666 
L 3169 4134 
L 1269 4134 
L 1269 2991 
Q 1406 3038 1543 3061 
Q 1681 3084 1819 3084 
Q 2600 3084 3056 2656 
Q 3513 2228 3513 1497 
Q 3513 744 3044 326 
Q 2575 -91 1722 -91 
Q 1428 -91 1123 -41 
Q 819 9 494 109 
L 494 744 
Q 775 591 1075 516 
Q 1375 441 1709 441 
Q 2250 441 2565 725 
Q 2881 1009 2881 1497 
Q 2881 1984 2565 2268 
Q 2250 2553 1709 2553 
Q 1456 2553 1204 2497 
Q 953 2441 691 2322 
L 691 4666 
z
" transform="scale(0.015625)"/>
       </defs>
       <use xlink:href="#DejaVuSans-31"/>
       <use xlink:href="#DejaVuSans-2c" x="63.623047"/>
       <use xlink:href="#DejaVuSans-35" x="95.410156"/>
       <use xlink:href="#DejaVuSans-30" x="159.033203"/>
       <use xlink:href="#DejaVuSans-30" x="222.65625"/>
      </g>
     </g>
    </g>
    <g id="ytick_2">
     <g id="line2d_7">
      <g>
       <use xlink:href="#m55299f5afb" x="57.6" y="237.298984" style="stroke: #000000; stroke-width: 0.8"/>
      </g>
     </g>
     <g id="text_8">
      <!-- 1,600 -->
      <g transform="translate(21.971875 241.098202)scale(0.1 -0.1)">
       <defs>
        <path id="DejaVuSans-36" d="M 2113 2584 
Q 1688 2584 1439 2293 
Q 1191 2003 1191 1497 
Q 1191 994 1439 701 
Q 1688 409 2113 409 
Q 2538 409 2786 701 
Q 3034 994 3034 1497 
Q 3034 2003 2786 2293 
Q 2538 2584 2113 2584 
z
M 3366 4563 
L 3366 3988 
Q 3128 4100 2886 4159 
Q 2644 4219 2406 4219 
Q 1781 4219 1451 3797 
Q 1122 3375 1075 2522 
Q 1259 2794 1537 2939 
Q 1816 3084 2150 3084 
Q 2853 3084 3261 2657 
Q 3669 2231 3669 1497 
Q 3669 778 3244 343 
Q 2819 -91 2113 -91 
Q 1303 -91 875 529 
Q 447 1150 447 2328 
Q 447 3434 972 4092 
Q 1497 4750 2381 4750 
Q 2619 4750 2861 4703 
Q 3103 4656 3366 4563 
z
" transform="scale(0.015625)"/>
       </defs>
       <use xlink:href="#DejaVuSans-31"/>
       <use xlink:href="#DejaVuSans-2c" x="63.623047"/>
       <use xlink:href="#DejaVuSans-36" x="95.410156"/>
       <use xlink:href="#DejaVuSans-30" x="159.033203"/>
       <use xlink:href="#DejaVuSans-30" x="222.65625"/>
      </g>
     </g>
    </g>
    <g id="ytick_3">
     <g id="line2d_8">
      <g>
       <use xlink:href="#m55299f5afb" x="57.6" y="197.968793" style="stroke: #000000; stroke-width: 0.8"/>
      </g>
     </g>
     <g id="text_9">
      <!-- 1,700 -->
      <g transform="translate(21.971875 201.768012)scale(0.1 -0.1)">
       <defs>
        <path id="DejaVuSans-37" d="M 525 4666 
L 3525 4666 
L 3525 4397 
L 1831 0 
L 1172 0 
L 2766 4134 
L 525 4134 
L 525 4666 
z
" transform="scale(0.015625)"/>
       </defs>
       <use xlink:href="#DejaVuSans-31"/>
       <use xlink:href="#DejaVuSans-2c" x="63.623047"/>
       <use xlink:href="#DejaVuSans-37" x="95.410156"/>
       <use xlink:href="#DejaVuSans-30" x="159.033203"/>
       <use xlink:href="#DejaVuSans-30" x="222.65625"/>
      </g>
     </g>
    </g>
    <g id="ytick_4">
     <g id="line2d_9">
      <g>
       <use xlink:href="#m55299f5afb" x="57.6" y="158.638603" style="stroke: #000000; stroke-width: 0.8"/>
      </g>
     </g>
     <g id="text_10">
      <!-- 1,800 -->
      <g transform="translate(21.971875 162.437822)scale(0.1 -0.1)">
       <use xlink:href="#DejaVuSans-31"/>
       <use xlink:href="#DejaVuSans-2c" x="63.623047"/>
       <use xlink:href="#DejaVuSans-38" x="95.410156"/>
       <use xlink:href="#DejaVuSans-30" x="159.033203"/>
       <use xlink:href="#DejaVuSans-30" x="222.65625"/>
      </g>
     </g>
    </g>
    <g id="ytick_5">
     <g id="line2d_10">
      <g>
       <use xlink:href="#m55299f5afb" x="57.6" y="119.308413" style="stroke: #000000; stroke-width: 0.8"/>
      </g>
     </g>
     <g id="text_11">
      <!-- 1,900 -->
      <g transform="translate(21.971875 123.107632)scale(0.1 -0.1)">
       <use xlink:href="#DejaVuSans-31"/>
       <use xlink:href="#DejaVuSans-2c" x="63.623047"/>
       <use xlink:href="#DejaVuSans-39" x="95.410156"/>
       <use xlink:href="#DejaVuSans-30" x="159.033203"/>
       <use xlink:href="#DejaVuSans-30" x="222.65625"/>
      </g>
     </g>
    </g>
    <g id="ytick_6">
     <g id="line2d_11">
      <g>
       <use xlink:href="#m55299f5afb" x="57.6" y="79.978223" style="stroke: #000000; stroke-width: 0.8"/>
      </g>
     </g>
     <g id="text_12">
      <!-- 2,000 -->
      <g transform="translate(21.971875 83.777441)scale(0.1 -0.1)">
       <use xlink:href="#DejaVuSans-32"/>
       <use xlink:href="#DejaVuSans-2c" x="63.623047"/>
       <use xlink:href="#DejaVuSans-30" x="95.410156"/>
       <use xlink:href="#DejaVuSans-30" x="159.033203"/>
       <use xlink:href="#DejaVuSans-30" x="222.65625"/>
      </g>
     </g>
    </g>
    <g id="text_13">
     <!-- USD (PM) -->
     <g transform="translate(15.892187 198.031125)rotate(-90)scale(0.1 -0.1)">
      <defs>
       <path id="DejaVuSans-55" d="M 556 4666 
L 1191 4666 
L 1191 1831 
Q 1191 1081 1462 751 
Q 1734 422 2344 422 
Q 2950 422 3222 751 
Q 3494 1081 3494 1831 
L 3494 4666 
L 4128 4666 
L 4128 1753 
Q 4128 841 3676 375 
Q 3225 -91 2344 -91 
Q 1459 -91 1007 375 
Q 556 841 556 1753 
L 556 4666 
z
" transform="scale(0.015625)"/>
       <path id="DejaVuSans-53" d="M 3425 4513 
L 3425 3897 
Q 3066 4069 2747 4153 
Q 2428 4238 2131 4238 
Q 1616 4238 1336 4038 
Q 1056 3838 1056 3469 
Q 1056 3159 1242 3001 
Q 1428 2844 1947 2747 
L 2328 2669 
Q 3034 2534 3370 2195 
Q 3706 1856 3706 1288 
Q 3706 609 3251 259 
Q 2797 -91 1919 -91 
Q 1588 -91 1214 -16 
Q 841 59 441 206 
L 441 856 
Q 825 641 1194 531 
Q 1563 422 1919 422 
Q 2459 422 2753 634 
Q 3047 847 3047 1241 
Q 3047 1584 2836 1778 
Q 2625 1972 2144 2069 
L 1759 2144 
Q 1053 2284 737 2584 
Q 422 2884 422 3419 
Q 422 4038 858 4394 
Q 1294 4750 2059 4750 
Q 2388 4750 2728 4690 
Q 3069 4631 3425 4513 
z
" transform="scale(0.015625)"/>
       <path id="DejaVuSans-20" transform="scale(0.015625)"/>
       <path id="DejaVuSans-28" d="M 1984 4856 
Q 1566 4138 1362 3434 
Q 1159 2731 1159 2009 
Q 1159 1288 1364 580 
Q 1569 -128 1984 -844 
L 1484 -844 
Q 1016 -109 783 600 
Q 550 1309 550 2009 
Q 550 2706 781 3412 
Q 1013 4119 1484 4856 
L 1984 4856 
z
" transform="scale(0.015625)"/>
       <path id="DejaVuSans-50" d="M 1259 4147 
L 1259 2394 
L 2053 2394 
Q 2494 2394 2734 2622 
Q 2975 2850 2975 3272 
Q 2975 3691 2734 3919 
Q 2494 4147 2053 4147 
L 1259 4147 
z
M 628 4666 
L 2053 4666 
Q 2838 4666 3239 4311 
Q 3641 3956 3641 3272 
Q 3641 2581 3239 2228 
Q 2838 1875 2053 1875 
L 1259 1875 
L 1259 0 
L 628 0 
L 628 4666 
z
" transform="scale(0.015625)"/>
       <path id="DejaVuSans-4d" d="M 628 4666 
L 1569 4666 
L 2759 1491 
L 3956 4666 
L 4897 4666 
L 4897 0 
L 4281 0 
L 4281 4097 
L 3078 897 
L 2444 897 
L 1241 4097 
L 1241 0 
L 628 0 
L 628 4666 
z
" transform="scale(0.015625)"/>
       <path id="DejaVuSans-29" d="M 513 4856 
L 1013 4856 
Q 1481 4119 1714 3412 
Q 1947 2706 1947 2009 
Q 1947 1309 1714 600 
Q 1481 -109 1013 -844 
L 513 -844 
Q 928 -128 1133 580 
Q 1338 1288 1338 2009 
Q 1338 2731 1133 3434 
Q 928 4138 513 4856 
z
" transform="scale(0.015625)"/>
      </defs>
      <use xlink:href="#DejaVuSans-55"/>
      <use xlink:href="#DejaVuSans-53" x="73.193359"/>
      <use xlink:href="#DejaVuSans-44" x="136.669922"/>
      <use xlink:href="#DejaVuSans-20" x="213.671875"/>
      <use xlink:href="#DejaVuSans-28" x="245.458984"/>
      <use xlink:href="#DejaVuSans-50" x="284.472656"/>
      <use xlink:href="#DejaVuSans-4d" x="344.775391"/>
      <use xlink:href="#DejaVuSans-29" x="431.054688"/>
     </g>
    </g>
   </g>
   <g id="line2d_12">
    <path d="M 73.832727 277.730419 
L 74.483338 275.80324 
L 75.133948 275.252617 
L 75.784558 276.353862 
L 76.435169 275.8819 
L 77.085779 267.937202 
L 77.736389 268.50749 
L 78.386999 265.321744 
L 79.03761 274.112042 
L 79.68822 280.601523 
L 80.33883 282.410712 
L 80.989441 287.071339 
L 81.640051 279.539608 
L 82.290661 269.903711 
L 82.941272 276.96348 
L 83.591882 276.137546 
L 84.242492 274.328358 
L 84.893103 273.777735 
L 85.543713 278.674344 
L 86.194323 284.829518 
L 86.844934 280.326212 
L 88.146154 282.489372 
L 88.796764 279.519943 
L 89.447375 280.562193 
L 90.097985 279.913245 
L 90.748595 282.391047 
L 91.399206 278.811999 
L 92.049816 277.986065 
L 92.700426 271.339263 
L 93.351037 279.618268 
L 94.001647 281.840424 
L 94.652257 279.736259 
L 95.302868 272.322518 
L 95.953478 273.168117 
L 96.604088 272.912471 
L 97.254698 280.97516 
L 97.905309 282.115735 
L 98.555919 282.823679 
L 99.206529 290.729047 
L 99.85714 292.872542 
L 100.50775 295.488 
L 101.15836 291.220674 
L 101.808971 289.745792 
L 102.459581 289.647467 
L 103.760802 289.037849 
L 104.411412 287.759618 
L 105.062022 289.588471 
L 105.712633 290.611056 
L 106.363243 292.990533 
L 107.013853 294.465415 
L 107.664463 294.583406 
L 108.315074 294.465415 
L 108.965684 292.302255 
L 109.616294 291.908953 
L 110.266905 285.557127 
L 110.917515 286.422391 
L 111.568125 286.088085 
L 112.218736 292.498906 
L 112.869346 291.692637 
L 113.519956 290.414405 
L 114.170567 289.686797 
L 114.821177 289.293495 
L 115.471787 289.765457 
L 116.122398 285.321146 
L 117.423618 286.835358 
L 119.375449 283.669278 
L 120.026059 272.106202 
L 120.67667 270.827971 
L 121.32728 265.970692 
L 122.628501 247.878805 
L 123.279111 249.94364 
L 123.929721 248.331102 
L 124.580332 256.669102 
L 125.230942 255.548192 
L 125.881552 257.003409 
L 126.532163 258.891258 
L 127.182773 257.357381 
L 127.833383 255.174555 
L 129.134604 252.972064 
L 129.785214 256.452786 
L 131.086435 251.890484 
L 131.737045 251.339861 
L 132.387655 245.125691 
L 133.038266 247.524833 
L 133.688876 247.741149 
L 134.339486 245.8533 
L 134.990097 243.513154 
L 135.640707 247.229857 
L 136.291317 253.680008 
L 136.941927 255.666182 
L 138.243148 248.055791 
L 138.893758 247.839475 
L 139.544369 248.90139 
L 140.194979 251.575843 
L 140.845589 247.111866 
L 141.4962 244.614399 
L 142.14681 244.85038 
L 142.79742 241.290998 
L 144.098641 229.826247 
L 145.399862 209.118902 
L 146.050472 217.515898 
L 146.701082 223.572747 
L 147.351692 216.847285 
L 148.002303 233.42496 
L 148.652913 237.436639 
L 149.303523 231.202804 
L 149.954134 220.839299 
L 150.604744 213.85819 
L 151.255354 204.399279 
L 151.905965 208.784596 
L 152.556575 215.392068 
L 153.207185 216.159006 
L 153.857796 248.822729 
L 154.508406 251.929814 
L 155.159016 281.466787 
L 155.809627 262.391645 
L 156.460237 277.337117 
L 157.110847 286.756698 
L 157.761457 278.831664 
L 158.412068 266.639305 
L 159.062678 235.037498 
L 159.713288 235.155488 
L 160.363899 223.612077 
L 161.014509 230.494861 
L 161.665119 230.101559 
L 162.31573 233.778932 
L 162.96634 246.521913 
L 163.61695 230.691512 
L 164.267561 232.146729 
L 164.918171 218.302502 
L 165.568781 217.928865 
L 166.219392 218.499153 
L 166.870002 205.579185 
L 167.520612 181.489444 
L 168.171222 190.633713 
L 168.821833 186.366387 
L 169.472443 200.898893 
L 170.123053 203.39636 
L 170.773664 205.028563 
L 172.074884 183.711599 
L 172.725495 191.715293 
L 173.376105 192.08893 
L 174.026715 201.292194 
L 174.677326 196.651232 
L 175.327936 196.887213 
L 175.978546 203.376695 
L 176.629156 194.389746 
L 177.930377 201.31186 
L 178.580987 196.375921 
L 179.231598 196.887213 
L 179.882208 197.024869 
L 180.532818 194.665057 
L 181.183429 185.540453 
L 181.834039 184.065571 
L 182.484649 184.321217 
L 183.13526 183.042986 
L 183.78587 178.972311 
L 184.43648 188.175576 
L 185.087091 184.773515 
L 185.737701 190.00443 
L 186.388311 200.092624 
L 187.038921 191.145005 
L 187.689532 186.681029 
L 188.340142 185.933755 
L 188.990752 181.391118 
L 189.641363 195.864628 
L 190.291973 197.949128 
L 190.942583 204.47794 
L 191.593194 201.764157 
L 192.243804 192.659218 
L 192.894414 189.296486 
L 193.545025 182.924996 
L 194.195635 184.79318 
L 194.846245 193.858788 
L 195.496856 190.161751 
L 196.147466 188.391892 
L 196.798076 190.299406 
L 197.448686 184.301552 
L 198.099297 173.643071 
L 198.749907 170.870292 
L 199.400517 171.991203 
L 200.701738 179.247623 
L 201.352348 169.808377 
L 202.002959 171.184934 
L 202.653569 170.024693 
L 203.304179 167.507561 
L 203.95479 169.297085 
L 204.6054 163.397556 
L 205.25601 162.748608 
L 205.906621 154.272952 
L 206.557231 153.87965 
L 207.207841 157.419367 
L 207.858451 155.688839 
L 208.509062 157.89133 
L 209.810282 155.610179 
L 210.460893 155.747834 
L 211.111503 152.483428 
L 211.762113 141.903607 
L 212.412724 138.029583 
L 213.713944 118.482479 
L 214.364555 104.893898 
L 215.015165 103.222365 
L 215.665775 99.289346 
L 216.966996 93.783119 
L 217.617606 96.280587 
L 218.268216 88.670195 
L 218.918827 61.040736 
L 219.569437 53.568 
L 220.220047 67.726868 
L 220.870658 62.476288 
L 221.521268 103.713993 
L 222.171878 106.762082 
L 222.822489 101.904804 
L 223.473099 101.708153 
L 224.123709 90.656369 
L 224.77432 76.536831 
L 225.42493 87.450959 
L 226.07554 108.630266 
L 226.72615 109.731512 
L 227.376761 102.022794 
L 228.027371 114.923097 
L 228.677981 106.349115 
L 229.328592 109.928163 
L 229.979202 96.752549 
L 230.629812 90.85302 
L 231.280423 100.803558 
L 231.931033 103.399351 
L 232.581643 108.964573 
L 233.232254 108.118974 
L 233.882864 115.001757 
L 234.533474 100.744563 
L 235.184085 93.252162 
L 235.834695 100.665903 
L 236.485305 96.221591 
L 237.135915 99.898964 
L 237.786526 95.002355 
L 238.437136 105.051219 
L 239.087746 99.309011 
L 239.738357 115.63104 
L 240.388967 116.948602 
L 241.039577 129.770244 
L 241.690188 134.352211 
L 242.340798 135.15848 
L 242.991408 133.349291 
L 243.642019 125.620908 
L 244.292629 124.460668 
L 244.943239 118.521809 
L 245.59385 118.108842 
L 246.24446 115.532715 
L 246.89507 114.038167 
L 247.54568 125.404592 
L 248.196291 124.244352 
L 248.846901 110.164144 
L 249.497511 109.279214 
L 250.148122 122.730139 
L 250.798732 115.355729 
L 251.449342 122.494158 
L 252.099953 117.322238 
L 252.750563 117.105922 
L 253.401173 119.937696 
L 254.051784 109.810172 
L 254.702394 118.934776 
L 255.353004 117.872861 
L 256.003615 119.918031 
L 256.654225 117.066592 
L 257.304835 131.127135 
L 257.955445 130.989479 
L 258.606056 126.446842 
L 259.256666 123.280762 
L 259.907276 116.044007 
L 260.557887 119.249418 
L 261.208497 104.185955 
L 261.859107 103.261695 
L 262.509718 132.169385 
L 263.160328 127.685743 
L 263.810938 134.666852 
L 265.112159 122.88746 
L 265.762769 124.97196 
L 266.413379 123.615069 
L 267.06399 128.708328 
L 267.7146 136.082739 
L 268.36521 128.865649 
L 269.666431 158.795924 
L 270.317041 154.626924 
L 270.967652 155.728169 
L 271.618262 166.779953 
L 272.268872 173.367759 
L 272.919483 154.410608 
L 273.570093 149.74998 
L 274.871314 141.726621 
L 275.521924 135.060154 
L 276.172534 131.835079 
L 276.823144 142.218249 
L 277.473755 141.195664 
L 278.124365 142.119923 
L 278.774975 146.387249 
L 279.425586 138.717862 
L 280.076196 138.206569 
L 280.726806 122.946456 
L 281.377417 127.272776 
L 282.028027 127.174451 
L 282.678637 128.315026 
L 283.329248 129.14096 
L 283.979858 129.416272 
L 284.630468 124.185357 
L 285.281079 102.317771 
L 285.931689 103.438681 
L 286.582299 106.742417 
L 287.232909 111.403045 
L 287.88352 133.899914 
L 288.53413 140.055088 
L 289.18474 142.4149 
L 289.835351 135.492786 
L 290.485961 142.218249 
L 291.136571 143.299829 
L 291.787182 145.639975 
L 292.437792 144.991027 
L 293.088402 136.377715 
L 293.739013 134.214555 
L 294.389623 137.911593 
L 295.040233 136.27939 
L 295.690844 136.377715 
L 296.341454 141.726621 
L 297.642674 133.545942 
L 298.293285 133.880248 
L 298.943895 145.62031 
L 299.594505 144.696051 
L 300.245116 164.18416 
L 300.895726 157.478363 
L 301.546336 144.774711 
L 302.196947 143.063848 
L 302.847557 141.864277 
L 303.498167 142.867197 
L 304.148778 152.208117 
L 304.799388 151.83448 
L 305.449998 160.900089 
L 306.100608 166.22933 
L 306.751219 169.198759 
L 307.401829 164.066169 
L 308.052439 155.708504 
L 308.70305 158.776259 
L 309.35366 163.358226 
L 310.00427 166.642297 
L 310.654881 181.115807 
L 311.305491 184.537533 
L 311.956101 188.588543 
L 312.606712 193.485152 
L 313.257322 193.20984 
L 313.907932 199.443675 
L 314.558543 203.062053 
L 315.209153 191.321991 
L 315.859763 191.597303 
L 316.510373 188.431222 
L 317.160984 196.080944 
L 317.811594 188.667203 
L 318.462204 184.203227 
L 319.112815 186.307392 
L 319.763425 187.782274 
L 320.414035 184.124566 
L 321.064646 183.75093 
L 321.715256 187.664284 
L 322.365866 185.973085 
L 323.016477 183.298632 
L 323.667087 185.461793 
L 324.968308 204.281289 
L 325.618918 201.488845 
L 326.269528 187.723279 
L 326.920138 180.407863 
L 327.570749 183.003656 
L 328.221359 176.140538 
L 328.871969 181.764755 
L 329.52258 185.048826 
L 330.17319 179.109967 
L 330.8238 183.986911 
L 331.474411 175.471925 
L 332.125021 168.687467 
L 332.775631 168.667802 
L 333.426242 167.35024 
L 334.076852 159.346547 
L 334.727462 163.456551 
L 335.378073 165.796698 
L 336.028683 169.120099 
L 336.679293 164.872438 
L 337.329903 169.572396 
L 337.980514 173.328429 
L 338.631124 171.36192 
L 339.281734 159.523532 
L 339.932345 165.619712 
L 340.582955 153.466683 
L 341.233565 144.263419 
L 341.884176 142.729541 
L 342.534786 147.193518 
L 343.185396 146.564235 
L 343.836007 150.064622 
L 345.137227 137.518291 
L 345.787837 132.385701 
L 346.438448 123.85105 
L 347.089058 127.843064 
L 347.739668 128.786989 
L 348.390279 127.115456 
L 349.040889 124.421338 
L 349.691499 119.406738 
L 350.34211 122.671144 
L 350.99272 119.328078 
L 351.64333 119.564059 
L 352.293941 118.226833 
L 352.944551 132.464362 
L 353.595161 123.005451 
L 354.245772 123.870715 
L 354.896382 122.002531 
L 355.546992 121.432243 
L 356.197602 123.77239 
L 356.848213 126.761484 
L 357.498823 132.837998 
L 358.149433 133.034649 
L 358.800044 134.745513 
L 359.450654 167.015934 
L 360.101264 169.218424 
L 360.751875 168.451486 
L 361.402485 168.451486 
L 362.053095 161.942339 
L 362.703706 164.597127 
L 363.354316 163.889184 
L 364.004926 166.386651 
L 364.655537 176.160203 
L 365.306147 173.131778 
L 365.956757 165.914688 
L 367.257978 162.040665 
L 367.908588 154.764579 
L 368.559198 156.809749 
L 369.209809 155.610179 
L 369.860419 156.278792 
L 370.511029 161.627698 
L 371.16164 153.191372 
L 371.81225 149.513999 
L 373.113471 149.081367 
L 373.764081 152.778405 
L 374.414691 149.572994 
L 375.065302 157.793004 
L 375.715912 158.854919 
L 376.366522 158.795924 
L 377.017132 158.559943 
L 377.667743 158.500947 
L 378.318353 159.97583 
L 378.968963 147.114857 
L 379.619574 148.511079 
L 380.270184 154.135296 
L 380.920794 153.663334 
L 381.571405 147.193518 
L 382.222015 158.343627 
L 382.872625 173.230104 
L 383.523236 182.689014 
L 384.173846 188.785194 
L 384.824456 180.82083 
L 385.475066 179.326283 
L 386.125677 168.923448 
L 386.776287 164.007174 
L 387.426897 162.787938 
L 388.077508 165.14775 
L 388.728118 165.698372 
L 389.378728 166.878278 
L 390.029339 157.851999 
L 390.679949 155.315202 
L 391.330559 163.082915 
L 391.98117 163.908849 
L 392.63178 159.228556 
L 393.28239 152.79807 
L 393.933001 153.997641 
L 394.583611 153.702664 
L 395.234221 149.317348 
L 395.884831 150.143282 
L 397.186052 164.14483 
L 397.836662 163.259901 
L 398.487273 160.762433 
L 398.487273 160.762433 
" clip-path="url(#pd51333089c)" style="fill: none; stroke: #1f77b4; stroke-width: 1.5; stroke-linecap: square"/>
   </g>
   <g id="line2d_13">
    <path d="M 389.378728 166.878278 
L 390.029339 157.851999 
L 390.679949 155.315202 
L 391.330559 163.082915 
L 391.98117 163.908849 
L 392.63178 159.228556 
L 393.28239 152.79807 
L 393.933001 153.997641 
L 394.583611 153.702664 
L 395.234221 149.317348 
L 395.884831 150.143282 
L 396.535442 157.793004 
L 397.186052 164.14483 
L 397.836662 163.259901 
L 398.487273 160.762433 
" clip-path="url(#pd51333089c)" style="fill: none; stroke: #ff7f0e; stroke-width: 1.5; stroke-linecap: square"/>
   </g>
   <g id="patch_3">
    <path d="M 57.6 307.584 
L 57.6 41.472 
" style="fill: none; stroke: #000000; stroke-width: 0.8; stroke-linejoin: miter; stroke-linecap: square"/>
   </g>
   <g id="patch_4">
    <path d="M 414.72 307.584 
L 414.72 41.472 
" style="fill: none; stroke: #000000; stroke-width: 0.8; stroke-linejoin: miter; stroke-linecap: square"/>
   </g>
   <g id="patch_5">
    <path d="M 57.6 307.584 
L 414.72 307.584 
" style="fill: none; stroke: #000000; stroke-width: 0.8; stroke-linejoin: miter; stroke-linecap: square"/>
   </g>
   <g id="patch_6">
    <path d="M 57.6 41.472 
L 414.72 41.472 
" style="fill: none; stroke: #000000; stroke-width: 0.8; stroke-linejoin: miter; stroke-linecap: square"/>
   </g>
   <g id="legend_1">
    <g id="patch_7">
     <path d="M 307.32625 302.584 
L 407.72 302.584 
Q 409.72 302.584 409.72 300.584 
L 409.72 271.949625 
Q 409.72 269.949625 407.72 269.949625 
L 307.32625 269.949625 
Q 305.32625 269.949625 305.32625 271.949625 
L 305.32625 300.584 
Q 305.32625 302.584 307.32625 302.584 
z
" style="fill: #ffffff; opacity: 0.8; stroke: #cccccc; stroke-linejoin: miter"/>
    </g>
    <g id="line2d_14">
     <path d="M 309.32625 278.048062 
L 319.32625 278.048062 
L 329.32625 278.048062 
" style="fill: none; stroke: #1f77b4; stroke-width: 1.5; stroke-linecap: square"/>
    </g>
    <g id="text_14">
     <!-- USD (PM) -->
     <g transform="translate(337.32625 281.548062)scale(0.1 -0.1)">
      <use xlink:href="#DejaVuSans-55"/>
      <use xlink:href="#DejaVuSans-53" x="73.193359"/>
      <use xlink:href="#DejaVuSans-44" x="136.669922"/>
      <use xlink:href="#DejaVuSans-20" x="213.671875"/>
      <use xlink:href="#DejaVuSans-28" x="245.458984"/>
      <use xlink:href="#DejaVuSans-50" x="284.472656"/>
      <use xlink:href="#DejaVuSans-4d" x="344.775391"/>
      <use xlink:href="#DejaVuSans-29" x="431.054688"/>
     </g>
    </g>
    <g id="line2d_15">
     <path d="M 309.32625 292.726187 
L 319.32625 292.726187 
L 329.32625 292.726187 
" style="fill: none; stroke: #ff7f0e; stroke-width: 1.5; stroke-linecap: square"/>
    </g>
    <g id="text_15">
     <!-- USD (PM)_pre -->
     <g transform="translate(337.32625 296.226187)scale(0.1 -0.1)">
      <defs>
       <path id="DejaVuSans-5f" d="M 3263 -1063 
L 3263 -1509 
L -63 -1509 
L -63 -1063 
L 3263 -1063 
z
" transform="scale(0.015625)"/>
       <path id="DejaVuSans-70" d="M 1159 525 
L 1159 -1331 
L 581 -1331 
L 581 3500 
L 1159 3500 
L 1159 2969 
Q 1341 3281 1617 3432 
Q 1894 3584 2278 3584 
Q 2916 3584 3314 3078 
Q 3713 2572 3713 1747 
Q 3713 922 3314 415 
Q 2916 -91 2278 -91 
Q 1894 -91 1617 61 
Q 1341 213 1159 525 
z
M 3116 1747 
Q 3116 2381 2855 2742 
Q 2594 3103 2138 3103 
Q 1681 3103 1420 2742 
Q 1159 2381 1159 1747 
Q 1159 1113 1420 752 
Q 1681 391 2138 391 
Q 2594 391 2855 752 
Q 3116 1113 3116 1747 
z
" transform="scale(0.015625)"/>
       <path id="DejaVuSans-72" d="M 2631 2963 
Q 2534 3019 2420 3045 
Q 2306 3072 2169 3072 
Q 1681 3072 1420 2755 
Q 1159 2438 1159 1844 
L 1159 0 
L 581 0 
L 581 3500 
L 1159 3500 
L 1159 2956 
Q 1341 3275 1631 3429 
Q 1922 3584 2338 3584 
Q 2397 3584 2469 3576 
Q 2541 3569 2628 3553 
L 2631 2963 
z
" transform="scale(0.015625)"/>
      </defs>
      <use xlink:href="#DejaVuSans-55"/>
      <use xlink:href="#DejaVuSans-53" x="73.193359"/>
      <use xlink:href="#DejaVuSans-44" x="136.669922"/>
      <use xlink:href="#DejaVuSans-20" x="213.671875"/>
      <use xlink:href="#DejaVuSans-28" x="245.458984"/>
      <use xlink:href="#DejaVuSans-50" x="284.472656"/>
      <use xlink:href="#DejaVuSans-4d" x="344.775391"/>
      <use xlink:href="#DejaVuSans-29" x="431.054688"/>
      <use xlink:href="#DejaVuSans-5f" x="470.068359"/>
      <use xlink:href="#DejaVuSans-70" x="520.068359"/>
      <use xlink:href="#DejaVuSans-72" x="583.544922"/>
      <use xlink:href="#DejaVuSans-65" x="622.408203"/>
     </g>
    </g>
   </g>
  </g>
 </g>
 <defs>
  <clipPath id="pd51333089c">
   <rect x="57.6" y="41.472" width="357.12" height="266.112"/>
  </clipPath>
 </defs>
</svg>
