<?xml version="1.0" encoding="utf-8" standalone="no"?>
<!DOCTYPE svg PUBLIC "-//W3C//DTD SVG 1.1//EN"
  "http://www.w3.org/Graphics/SVG/1.1/DTD/svg11.dtd">
<svg xmlns:xlink="http://www.w3.org/1999/xlink" width="460.8pt" height="345.6pt" viewBox="0 0 460.8 345.6" xmlns="http://www.w3.org/2000/svg" version="1.1">
 <metadata>
  <rdf:RDF xmlns:dc="http://purl.org/dc/elements/1.1/" xmlns:cc="http://creativecommons.org/ns#" xmlns:rdf="http://www.w3.org/1999/02/22-rdf-syntax-ns#">
   <cc:Work>
    <dc:type rdf:resource="http://purl.org/dc/dcmitype/StillImage"/>
    <dc:date>2022-10-26T23:05:58.621460</dc:date>
    <dc:format>image/svg+xml</dc:format>
    <dc:creator>
     <cc:Agent>
      <dc:title>Matplotlib v3.5.2, https://matplotlib.org/</dc:title>
     </cc:Agent>
    </dc:creator>
   </cc:Work>
  </rdf:RDF>
 </metadata>
 <defs>
  <style type="text/css">*{stroke-linejoin: round; stroke-linecap: butt}</style>
 </defs>
 <g id="figure_1">
  <g id="patch_1">
   <path d="M 0 345.6 
L 460.8 345.6 
L 460.8 0 
L 0 0 
z
" style="fill: #ffffff"/>
  </g>
  <g id="axes_1">
   <g id="patch_2">
    <path d="M 57.6 307.584 
L 414.72 307.584 
L 414.72 41.472 
L 57.6 41.472 
z
" style="fill: #ffffff"/>
   </g>
   <g id="matplotlib.axis_1">
    <g id="xtick_1">
     <g id="line2d_1">
      <defs>
       <path id="mc331e28827" d="M 0 0 
L 0 3.5 
" style="stroke: #000000; stroke-width: 0.8"/>
      </defs>
      <g>
       <use xlink:href="#mc331e28827" x="73.832727" y="307.584" style="stroke: #000000; stroke-width: 0.8"/>
      </g>
     </g>
     <g id="text_1">
      <!-- 0 -->
      <g transform="translate(70.651477 322.182437)scale(0.1 -0.1)">
       <defs>
        <path id="DejaVuSans-30" d="M 2034 4250 
Q 1547 4250 1301 3770 
Q 1056 3291 1056 2328 
Q 1056 1369 1301 889 
Q 1547 409 2034 409 
Q 2525 409 2770 889 
Q 3016 1369 3016 2328 
Q 3016 3291 2770 3770 
Q 2525 4250 2034 4250 
z
M 2034 4750 
Q 2819 4750 3233 4129 
Q 3647 3509 3647 2328 
Q 3647 1150 3233 529 
Q 2819 -91 2034 -91 
Q 1250 -91 836 529 
Q 422 1150 422 2328 
Q 422 3509 836 4129 
Q 1250 4750 2034 4750 
z
" transform="scale(0.015625)"/>
       </defs>
       <use xlink:href="#DejaVuSans-30"/>
      </g>
     </g>
    </g>
    <g id="xtick_2">
     <g id="line2d_2">
      <g>
       <use xlink:href="#mc331e28827" x="125.202117" y="307.584" style="stroke: #000000; stroke-width: 0.8"/>
      </g>
     </g>
     <g id="text_2">
      <!-- 200 -->
      <g transform="translate(115.658367 322.182437)scale(0.1 -0.1)">
       <defs>
        <path id="DejaVuSans-32" d="M 1228 531 
L 3431 531 
L 3431 0 
L 469 0 
L 469 531 
Q 828 903 1448 1529 
Q 2069 2156 2228 2338 
Q 2531 2678 2651 2914 
Q 2772 3150 2772 3378 
Q 2772 3750 2511 3984 
Q 2250 4219 1831 4219 
Q 1534 4219 1204 4116 
Q 875 4013 500 3803 
L 500 4441 
Q 881 4594 1212 4672 
Q 1544 4750 1819 4750 
Q 2544 4750 2975 4387 
Q 3406 4025 3406 3419 
Q 3406 3131 3298 2873 
Q 3191 2616 2906 2266 
Q 2828 2175 2409 1742 
Q 1991 1309 1228 531 
z
" transform="scale(0.015625)"/>
       </defs>
       <use xlink:href="#DejaVuSans-32"/>
       <use xlink:href="#DejaVuSans-30" x="63.623047"/>
       <use xlink:href="#DejaVuSans-30" x="127.246094"/>
      </g>
     </g>
    </g>
    <g id="xtick_3">
     <g id="line2d_3">
      <g>
       <use xlink:href="#mc331e28827" x="176.571507" y="307.584" style="stroke: #000000; stroke-width: 0.8"/>
      </g>
     </g>
     <g id="text_3">
      <!-- 400 -->
      <g transform="translate(167.027757 322.182437)scale(0.1 -0.1)">
       <defs>
        <path id="DejaVuSans-34" d="M 2419 4116 
L 825 1625 
L 2419 1625 
L 2419 4116 
z
M 2253 4666 
L 3047 4666 
L 3047 1625 
L 3713 1625 
L 3713 1100 
L 3047 1100 
L 3047 0 
L 2419 0 
L 2419 1100 
L 313 1100 
L 313 1709 
L 2253 4666 
z
" transform="scale(0.015625)"/>
       </defs>
       <use xlink:href="#DejaVuSans-34"/>
       <use xlink:href="#DejaVuSans-30" x="63.623047"/>
       <use xlink:href="#DejaVuSans-30" x="127.246094"/>
      </g>
     </g>
    </g>
    <g id="xtick_4">
     <g id="line2d_4">
      <g>
       <use xlink:href="#mc331e28827" x="227.940898" y="307.584" style="stroke: #000000; stroke-width: 0.8"/>
      </g>
     </g>
     <g id="text_4">
      <!-- 600 -->
      <g transform="translate(218.397148 322.182437)scale(0.1 -0.1)">
       <defs>
        <path id="DejaVuSans-36" d="M 2113 2584 
Q 1688 2584 1439 2293 
Q 1191 2003 1191 1497 
Q 1191 994 1439 701 
Q 1688 409 2113 409 
Q 2538 409 2786 701 
Q 3034 994 3034 1497 
Q 3034 2003 2786 2293 
Q 2538 2584 2113 2584 
z
M 3366 4563 
L 3366 3988 
Q 3128 4100 2886 4159 
Q 2644 4219 2406 4219 
Q 1781 4219 1451 3797 
Q 1122 3375 1075 2522 
Q 1259 2794 1537 2939 
Q 1816 3084 2150 3084 
Q 2853 3084 3261 2657 
Q 3669 2231 3669 1497 
Q 3669 778 3244 343 
Q 2819 -91 2113 -91 
Q 1303 -91 875 529 
Q 447 1150 447 2328 
Q 447 3434 972 4092 
Q 1497 4750 2381 4750 
Q 2619 4750 2861 4703 
Q 3103 4656 3366 4563 
z
" transform="scale(0.015625)"/>
       </defs>
       <use xlink:href="#DejaVuSans-36"/>
       <use xlink:href="#DejaVuSans-30" x="63.623047"/>
       <use xlink:href="#DejaVuSans-30" x="127.246094"/>
      </g>
     </g>
    </g>
    <g id="xtick_5">
     <g id="line2d_5">
      <g>
       <use xlink:href="#mc331e28827" x="279.310288" y="307.584" style="stroke: #000000; stroke-width: 0.8"/>
      </g>
     </g>
     <g id="text_5">
      <!-- 800 -->
      <g transform="translate(269.766538 322.182437)scale(0.1 -0.1)">
       <defs>
        <path id="DejaVuSans-38" d="M 2034 2216 
Q 1584 2216 1326 1975 
Q 1069 1734 1069 1313 
Q 1069 891 1326 650 
Q 1584 409 2034 409 
Q 2484 409 2743 651 
Q 3003 894 3003 1313 
Q 3003 1734 2745 1975 
Q 2488 2216 2034 2216 
z
M 1403 2484 
Q 997 2584 770 2862 
Q 544 3141 544 3541 
Q 544 4100 942 4425 
Q 1341 4750 2034 4750 
Q 2731 4750 3128 4425 
Q 3525 4100 3525 3541 
Q 3525 3141 3298 2862 
Q 3072 2584 2669 2484 
Q 3125 2378 3379 2068 
Q 3634 1759 3634 1313 
Q 3634 634 3220 271 
Q 2806 -91 2034 -91 
Q 1263 -91 848 271 
Q 434 634 434 1313 
Q 434 1759 690 2068 
Q 947 2378 1403 2484 
z
M 1172 3481 
Q 1172 3119 1398 2916 
Q 1625 2713 2034 2713 
Q 2441 2713 2670 2916 
Q 2900 3119 2900 3481 
Q 2900 3844 2670 4047 
Q 2441 4250 2034 4250 
Q 1625 4250 1398 4047 
Q 1172 3844 1172 3481 
z
" transform="scale(0.015625)"/>
       </defs>
       <use xlink:href="#DejaVuSans-38"/>
       <use xlink:href="#DejaVuSans-30" x="63.623047"/>
       <use xlink:href="#DejaVuSans-30" x="127.246094"/>
      </g>
     </g>
    </g>
    <g id="xtick_6">
     <g id="line2d_6">
      <g>
       <use xlink:href="#mc331e28827" x="330.679678" y="307.584" style="stroke: #000000; stroke-width: 0.8"/>
      </g>
     </g>
     <g id="text_6">
      <!-- 1,000 -->
      <g transform="translate(316.365615 322.182437)scale(0.1 -0.1)">
       <defs>
        <path id="DejaVuSans-31" d="M 794 531 
L 1825 531 
L 1825 4091 
L 703 3866 
L 703 4441 
L 1819 4666 
L 2450 4666 
L 2450 531 
L 3481 531 
L 3481 0 
L 794 0 
L 794 531 
z
" transform="scale(0.015625)"/>
        <path id="DejaVuSans-2c" d="M 750 794 
L 1409 794 
L 1409 256 
L 897 -744 
L 494 -744 
L 750 256 
L 750 794 
z
" transform="scale(0.015625)"/>
       </defs>
       <use xlink:href="#DejaVuSans-31"/>
       <use xlink:href="#DejaVuSans-2c" x="63.623047"/>
       <use xlink:href="#DejaVuSans-30" x="95.410156"/>
       <use xlink:href="#DejaVuSans-30" x="159.033203"/>
       <use xlink:href="#DejaVuSans-30" x="222.65625"/>
      </g>
     </g>
    </g>
    <g id="xtick_7">
     <g id="line2d_7">
      <g>
       <use xlink:href="#mc331e28827" x="382.049068" y="307.584" style="stroke: #000000; stroke-width: 0.8"/>
      </g>
     </g>
     <g id="text_7">
      <!-- 1,200 -->
      <g transform="translate(367.735005 322.182437)scale(0.1 -0.1)">
       <use xlink:href="#DejaVuSans-31"/>
       <use xlink:href="#DejaVuSans-2c" x="63.623047"/>
       <use xlink:href="#DejaVuSans-32" x="95.410156"/>
       <use xlink:href="#DejaVuSans-30" x="159.033203"/>
       <use xlink:href="#DejaVuSans-30" x="222.65625"/>
      </g>
     </g>
    </g>
    <g id="text_8">
     <!-- Data -->
     <g transform="translate(224.221719 335.860562)scale(0.1 -0.1)">
      <defs>
       <path id="DejaVuSans-44" d="M 1259 4147 
L 1259 519 
L 2022 519 
Q 2988 519 3436 956 
Q 3884 1394 3884 2338 
Q 3884 3275 3436 3711 
Q 2988 4147 2022 4147 
L 1259 4147 
z
M 628 4666 
L 1925 4666 
Q 3281 4666 3915 4102 
Q 4550 3538 4550 2338 
Q 4550 1131 3912 565 
Q 3275 0 1925 0 
L 628 0 
L 628 4666 
z
" transform="scale(0.015625)"/>
       <path id="DejaVuSans-61" d="M 2194 1759 
Q 1497 1759 1228 1600 
Q 959 1441 959 1056 
Q 959 750 1161 570 
Q 1363 391 1709 391 
Q 2188 391 2477 730 
Q 2766 1069 2766 1631 
L 2766 1759 
L 2194 1759 
z
M 3341 1997 
L 3341 0 
L 2766 0 
L 2766 531 
Q 2569 213 2275 61 
Q 1981 -91 1556 -91 
Q 1019 -91 701 211 
Q 384 513 384 1019 
Q 384 1609 779 1909 
Q 1175 2209 1959 2209 
L 2766 2209 
L 2766 2266 
Q 2766 2663 2505 2880 
Q 2244 3097 1772 3097 
Q 1472 3097 1187 3025 
Q 903 2953 641 2809 
L 641 3341 
Q 956 3463 1253 3523 
Q 1550 3584 1831 3584 
Q 2591 3584 2966 3190 
Q 3341 2797 3341 1997 
z
" transform="scale(0.015625)"/>
       <path id="DejaVuSans-74" d="M 1172 4494 
L 1172 3500 
L 2356 3500 
L 2356 3053 
L 1172 3053 
L 1172 1153 
Q 1172 725 1289 603 
Q 1406 481 1766 481 
L 2356 481 
L 2356 0 
L 1766 0 
Q 1100 0 847 248 
Q 594 497 594 1153 
L 594 3053 
L 172 3053 
L 172 3500 
L 594 3500 
L 594 4494 
L 1172 4494 
z
" transform="scale(0.015625)"/>
      </defs>
      <use xlink:href="#DejaVuSans-44"/>
      <use xlink:href="#DejaVuSans-61" x="77.001953"/>
      <use xlink:href="#DejaVuSans-74" x="138.28125"/>
      <use xlink:href="#DejaVuSans-61" x="177.490234"/>
     </g>
    </g>
   </g>
   <g id="matplotlib.axis_2">
    <g id="ytick_1">
     <g id="line2d_8">
      <defs>
       <path id="m63b9d6975c" d="M 0 0 
L -3.5 0 
" style="stroke: #000000; stroke-width: 0.8"/>
      </defs>
      <g>
       <use xlink:href="#m63b9d6975c" x="57.6" y="276.395477" style="stroke: #000000; stroke-width: 0.8"/>
      </g>
     </g>
     <g id="text_9">
      <!-- 1,200 -->
      <g transform="translate(21.971875 280.194696)scale(0.1 -0.1)">
       <use xlink:href="#DejaVuSans-31"/>
       <use xlink:href="#DejaVuSans-2c" x="63.623047"/>
       <use xlink:href="#DejaVuSans-32" x="95.410156"/>
       <use xlink:href="#DejaVuSans-30" x="159.033203"/>
       <use xlink:href="#DejaVuSans-30" x="222.65625"/>
      </g>
     </g>
    </g>
    <g id="ytick_2">
     <g id="line2d_9">
      <g>
       <use xlink:href="#m63b9d6975c" x="57.6" y="225.002413" style="stroke: #000000; stroke-width: 0.8"/>
      </g>
     </g>
     <g id="text_10">
      <!-- 1,400 -->
      <g transform="translate(21.971875 228.801632)scale(0.1 -0.1)">
       <use xlink:href="#DejaVuSans-31"/>
       <use xlink:href="#DejaVuSans-2c" x="63.623047"/>
       <use xlink:href="#DejaVuSans-34" x="95.410156"/>
       <use xlink:href="#DejaVuSans-30" x="159.033203"/>
       <use xlink:href="#DejaVuSans-30" x="222.65625"/>
      </g>
     </g>
    </g>
    <g id="ytick_3">
     <g id="line2d_10">
      <g>
       <use xlink:href="#m63b9d6975c" x="57.6" y="173.609349" style="stroke: #000000; stroke-width: 0.8"/>
      </g>
     </g>
     <g id="text_11">
      <!-- 1,600 -->
      <g transform="translate(21.971875 177.408568)scale(0.1 -0.1)">
       <use xlink:href="#DejaVuSans-31"/>
       <use xlink:href="#DejaVuSans-2c" x="63.623047"/>
       <use xlink:href="#DejaVuSans-36" x="95.410156"/>
       <use xlink:href="#DejaVuSans-30" x="159.033203"/>
       <use xlink:href="#DejaVuSans-30" x="222.65625"/>
      </g>
     </g>
    </g>
    <g id="ytick_4">
     <g id="line2d_11">
      <g>
       <use xlink:href="#m63b9d6975c" x="57.6" y="122.216285" style="stroke: #000000; stroke-width: 0.8"/>
      </g>
     </g>
     <g id="text_12">
      <!-- 1,800 -->
      <g transform="translate(21.971875 126.015504)scale(0.1 -0.1)">
       <use xlink:href="#DejaVuSans-31"/>
       <use xlink:href="#DejaVuSans-2c" x="63.623047"/>
       <use xlink:href="#DejaVuSans-38" x="95.410156"/>
       <use xlink:href="#DejaVuSans-30" x="159.033203"/>
       <use xlink:href="#DejaVuSans-30" x="222.65625"/>
      </g>
     </g>
    </g>
    <g id="ytick_5">
     <g id="line2d_12">
      <g>
       <use xlink:href="#m63b9d6975c" x="57.6" y="70.823221" style="stroke: #000000; stroke-width: 0.8"/>
      </g>
     </g>
     <g id="text_13">
      <!-- 2,000 -->
      <g transform="translate(21.971875 74.62244)scale(0.1 -0.1)">
       <use xlink:href="#DejaVuSans-32"/>
       <use xlink:href="#DejaVuSans-2c" x="63.623047"/>
       <use xlink:href="#DejaVuSans-30" x="95.410156"/>
       <use xlink:href="#DejaVuSans-30" x="159.033203"/>
       <use xlink:href="#DejaVuSans-30" x="222.65625"/>
      </g>
     </g>
    </g>
    <g id="text_14">
     <!-- Gold Prices -->
     <g transform="translate(15.892187 202.416281)rotate(-90)scale(0.1 -0.1)">
      <defs>
       <path id="DejaVuSans-47" d="M 3809 666 
L 3809 1919 
L 2778 1919 
L 2778 2438 
L 4434 2438 
L 4434 434 
Q 4069 175 3628 42 
Q 3188 -91 2688 -91 
Q 1594 -91 976 548 
Q 359 1188 359 2328 
Q 359 3472 976 4111 
Q 1594 4750 2688 4750 
Q 3144 4750 3555 4637 
Q 3966 4525 4313 4306 
L 4313 3634 
Q 3963 3931 3569 4081 
Q 3175 4231 2741 4231 
Q 1884 4231 1454 3753 
Q 1025 3275 1025 2328 
Q 1025 1384 1454 906 
Q 1884 428 2741 428 
Q 3075 428 3337 486 
Q 3600 544 3809 666 
z
" transform="scale(0.015625)"/>
       <path id="DejaVuSans-6f" d="M 1959 3097 
Q 1497 3097 1228 2736 
Q 959 2375 959 1747 
Q 959 1119 1226 758 
Q 1494 397 1959 397 
Q 2419 397 2687 759 
Q 2956 1122 2956 1747 
Q 2956 2369 2687 2733 
Q 2419 3097 1959 3097 
z
M 1959 3584 
Q 2709 3584 3137 3096 
Q 3566 2609 3566 1747 
Q 3566 888 3137 398 
Q 2709 -91 1959 -91 
Q 1206 -91 779 398 
Q 353 888 353 1747 
Q 353 2609 779 3096 
Q 1206 3584 1959 3584 
z
" transform="scale(0.015625)"/>
       <path id="DejaVuSans-6c" d="M 603 4863 
L 1178 4863 
L 1178 0 
L 603 0 
L 603 4863 
z
" transform="scale(0.015625)"/>
       <path id="DejaVuSans-64" d="M 2906 2969 
L 2906 4863 
L 3481 4863 
L 3481 0 
L 2906 0 
L 2906 525 
Q 2725 213 2448 61 
Q 2172 -91 1784 -91 
Q 1150 -91 751 415 
Q 353 922 353 1747 
Q 353 2572 751 3078 
Q 1150 3584 1784 3584 
Q 2172 3584 2448 3432 
Q 2725 3281 2906 2969 
z
M 947 1747 
Q 947 1113 1208 752 
Q 1469 391 1925 391 
Q 2381 391 2643 752 
Q 2906 1113 2906 1747 
Q 2906 2381 2643 2742 
Q 2381 3103 1925 3103 
Q 1469 3103 1208 2742 
Q 947 2381 947 1747 
z
" transform="scale(0.015625)"/>
       <path id="DejaVuSans-20" transform="scale(0.015625)"/>
       <path id="DejaVuSans-50" d="M 1259 4147 
L 1259 2394 
L 2053 2394 
Q 2494 2394 2734 2622 
Q 2975 2850 2975 3272 
Q 2975 3691 2734 3919 
Q 2494 4147 2053 4147 
L 1259 4147 
z
M 628 4666 
L 2053 4666 
Q 2838 4666 3239 4311 
Q 3641 3956 3641 3272 
Q 3641 2581 3239 2228 
Q 2838 1875 2053 1875 
L 1259 1875 
L 1259 0 
L 628 0 
L 628 4666 
z
" transform="scale(0.015625)"/>
       <path id="DejaVuSans-72" d="M 2631 2963 
Q 2534 3019 2420 3045 
Q 2306 3072 2169 3072 
Q 1681 3072 1420 2755 
Q 1159 2438 1159 1844 
L 1159 0 
L 581 0 
L 581 3500 
L 1159 3500 
L 1159 2956 
Q 1341 3275 1631 3429 
Q 1922 3584 2338 3584 
Q 2397 3584 2469 3576 
Q 2541 3569 2628 3553 
L 2631 2963 
z
" transform="scale(0.015625)"/>
       <path id="DejaVuSans-69" d="M 603 3500 
L 1178 3500 
L 1178 0 
L 603 0 
L 603 3500 
z
M 603 4863 
L 1178 4863 
L 1178 4134 
L 603 4134 
L 603 4863 
z
" transform="scale(0.015625)"/>
       <path id="DejaVuSans-63" d="M 3122 3366 
L 3122 2828 
Q 2878 2963 2633 3030 
Q 2388 3097 2138 3097 
Q 1578 3097 1268 2742 
Q 959 2388 959 1747 
Q 959 1106 1268 751 
Q 1578 397 2138 397 
Q 2388 397 2633 464 
Q 2878 531 3122 666 
L 3122 134 
Q 2881 22 2623 -34 
Q 2366 -91 2075 -91 
Q 1284 -91 818 406 
Q 353 903 353 1747 
Q 353 2603 823 3093 
Q 1294 3584 2113 3584 
Q 2378 3584 2631 3529 
Q 2884 3475 3122 3366 
z
" transform="scale(0.015625)"/>
       <path id="DejaVuSans-65" d="M 3597 1894 
L 3597 1613 
L 953 1613 
Q 991 1019 1311 708 
Q 1631 397 2203 397 
Q 2534 397 2845 478 
Q 3156 559 3463 722 
L 3463 178 
Q 3153 47 2828 -22 
Q 2503 -91 2169 -91 
Q 1331 -91 842 396 
Q 353 884 353 1716 
Q 353 2575 817 3079 
Q 1281 3584 2069 3584 
Q 2775 3584 3186 3129 
Q 3597 2675 3597 1894 
z
M 3022 2063 
Q 3016 2534 2758 2815 
Q 2500 3097 2075 3097 
Q 1594 3097 1305 2825 
Q 1016 2553 972 2059 
L 3022 2063 
z
" transform="scale(0.015625)"/>
       <path id="DejaVuSans-73" d="M 2834 3397 
L 2834 2853 
Q 2591 2978 2328 3040 
Q 2066 3103 1784 3103 
Q 1356 3103 1142 2972 
Q 928 2841 928 2578 
Q 928 2378 1081 2264 
Q 1234 2150 1697 2047 
L 1894 2003 
Q 2506 1872 2764 1633 
Q 3022 1394 3022 966 
Q 3022 478 2636 193 
Q 2250 -91 1575 -91 
Q 1294 -91 989 -36 
Q 684 19 347 128 
L 347 722 
Q 666 556 975 473 
Q 1284 391 1588 391 
Q 1994 391 2212 530 
Q 2431 669 2431 922 
Q 2431 1156 2273 1281 
Q 2116 1406 1581 1522 
L 1381 1569 
Q 847 1681 609 1914 
Q 372 2147 372 2553 
Q 372 3047 722 3315 
Q 1072 3584 1716 3584 
Q 2034 3584 2315 3537 
Q 2597 3491 2834 3397 
z
" transform="scale(0.015625)"/>
      </defs>
      <use xlink:href="#DejaVuSans-47"/>
      <use xlink:href="#DejaVuSans-6f" x="77.490234"/>
      <use xlink:href="#DejaVuSans-6c" x="138.671875"/>
      <use xlink:href="#DejaVuSans-64" x="166.455078"/>
      <use xlink:href="#DejaVuSans-20" x="229.931641"/>
      <use xlink:href="#DejaVuSans-50" x="261.71875"/>
      <use xlink:href="#DejaVuSans-72" x="320.271484"/>
      <use xlink:href="#DejaVuSans-69" x="361.384766"/>
      <use xlink:href="#DejaVuSans-63" x="389.167969"/>
      <use xlink:href="#DejaVuSans-65" x="444.148438"/>
      <use xlink:href="#DejaVuSans-73" x="505.671875"/>
     </g>
    </g>
   </g>
   <g id="line2d_13">
    <path d="M 73.832727 244.377598 
L 74.089574 244.621715 
L 74.346421 245.109949 
L 74.603268 247.923719 
L 74.860115 248.553284 
L 75.116962 246.88301 
L 75.373809 247.152823 
L 75.887503 240.651601 
L 76.14435 240.767235 
L 76.401197 240.291849 
L 76.658044 243.760881 
L 77.171738 246.047873 
L 77.428585 244.917225 
L 77.685432 247.281306 
L 77.942278 254.990266 
L 78.455972 262.390867 
L 78.712819 261.298764 
L 78.969666 261.10604 
L 79.226513 262.66068 
L 79.48336 261.876936 
L 79.740207 260.707744 
L 79.997054 263.097521 
L 80.510748 261.440095 
L 80.767595 258.652021 
L 81.024442 257.983912 
L 81.281289 259.422917 
L 81.538136 259.5514 
L 81.794983 258.562084 
L 82.05183 258.279422 
L 82.308677 259.371524 
L 82.565524 257.637008 
L 82.822371 257.893974 
L 83.336064 249.735325 
L 83.592911 250.441979 
L 83.849758 249.979442 
L 84.106605 255.054507 
L 84.620299 255.4785 
L 84.877146 259.050318 
L 85.39084 272.900748 
L 85.647687 269.470261 
L 85.904534 268.892089 
L 86.161381 269.521654 
L 86.418228 273.568858 
L 86.675075 272.733721 
L 86.931922 273.247652 
L 87.188769 280.160019 
L 87.445616 279.967295 
L 87.702463 279.55615 
L 88.216157 279.85166 
L 88.473003 282.023017 
L 88.72985 286.198704 
L 88.986697 283.205058 
L 89.243544 286.108766 
L 89.500391 283.462023 
L 89.757238 282.138652 
L 90.527779 287.676254 
L 90.784626 287.046689 
L 91.041473 286.095918 
L 91.29832 295.166793 
L 91.812014 292.777016 
L 92.068861 295.488 
L 92.325708 293.445126 
L 92.582555 294.036146 
L 93.096249 293.201009 
L 93.353096 290.297301 
L 93.866789 288.986777 
L 94.380483 282.382769 
L 94.63733 282.601189 
L 94.894177 281.920231 
L 95.151024 279.093613 
L 95.407871 281.907383 
L 95.664718 275.097802 
L 95.921565 278.875192 
L 96.435259 272.271183 
L 96.692106 272.605238 
L 96.948953 277.41049 
L 97.2058 276.254146 
L 97.462647 273.093472 
L 97.719494 272.078459 
L 97.976341 277.680303 
L 98.490035 280.288501 
L 98.746881 278.245627 
L 99.003728 273.106321 
L 99.260575 275.457553 
L 99.517422 270.755088 
L 99.774269 272.489604 
L 100.031116 269.521654 
L 100.287963 268.429552 
L 100.54481 265.577237 
L 100.801657 266.939153 
L 101.315351 270.677998 
L 101.572198 268.493793 
L 101.829045 270.125523 
L 102.085892 265.975533 
L 102.342739 265.615782 
L 102.856433 267.864228 
L 103.11328 266.977698 
L 103.370127 264.086838 
L 103.88382 261.69706 
L 104.140667 262.108205 
L 104.397514 266.014078 
L 104.654361 266.605098 
L 104.911208 269.585896 
L 105.168055 268.4424 
L 105.424902 272.117004 
L 105.681749 274.031396 
L 105.938596 274.712354 
L 106.195443 275.714519 
L 106.45229 275.316222 
L 106.709137 275.213436 
L 106.965984 276.703835 
L 107.222831 268.853545 
L 107.479678 268.789303 
L 107.736525 268.0698 
L 108.250219 263.791328 
L 108.507066 264.189624 
L 108.763913 264.189624 
L 109.020759 261.607123 
L 109.277606 261.684212 
L 109.534453 263.264549 
L 109.7913 263.855569 
L 110.048147 264.870582 
L 110.304994 264.253865 
L 110.561841 261.581426 
L 110.818688 264.626465 
L 111.075535 262.904797 
L 111.332382 259.320131 
L 111.589229 263.534363 
L 111.846076 262.802011 
L 112.102923 257.302954 
L 112.35977 254.771845 
L 112.616617 256.108065 
L 112.873464 256.082368 
L 113.130311 255.298624 
L 113.387158 255.362865 
L 113.644005 258.562084 
L 113.900852 258.973228 
L 114.157699 260.502172 
L 114.414545 260.258055 
L 114.671392 259.320131 
L 114.928239 262.14675 
L 115.185086 263.470121 
L 115.441933 269.084813 
L 115.69878 269.1876 
L 115.955627 268.73791 
L 116.212474 271.153384 
L 116.469321 270.498123 
L 116.726168 270.44673 
L 116.983015 268.365311 
L 117.239862 267.838532 
L 117.496709 267.607263 
L 117.753556 261.645667 
L 118.010403 262.031115 
L 118.26725 263.03328 
L 118.524097 261.273068 
L 118.780944 260.926165 
L 119.037791 262.891949 
L 119.294638 261.761302 
L 119.551484 259.679883 
L 119.808331 260.283751 
L 120.065178 259.384373 
L 120.322025 259.731276 
L 120.578872 257.135926 
L 120.835719 255.851099 
L 121.092566 252.369219 
L 121.349413 253.011633 
L 121.60626 257.611312 
L 121.863107 259.294435 
L 122.119954 259.33298 
L 122.376801 260.463627 
L 122.633648 256.994595 
L 122.890495 262.378019 
L 123.147342 262.159598 
L 123.661036 265.55154 
L 123.917883 265.474451 
L 124.431577 262.082508 
L 124.688423 264.767796 
L 124.94527 263.662845 
L 125.202117 264.061141 
L 125.458964 265.217485 
L 125.715811 265.538692 
L 125.972658 268.879241 
L 126.486352 271.179081 
L 126.743199 269.99704 
L 127.000046 272.37397 
L 127.256893 273.337589 
L 127.51374 273.55601 
L 127.770587 271.564529 
L 128.027434 271.538832 
L 128.284281 268.609428 
L 128.541128 267.632959 
L 128.797975 265.92414 
L 129.054822 265.564389 
L 129.311669 266.450919 
L 129.825362 262.121053 
L 130.082209 262.416563 
L 130.339056 264.035445 
L 130.595903 260.694896 
L 131.366444 258.163787 
L 131.880138 258.896139 
L 132.136985 261.568578 
L 132.393832 261.491488 
L 132.650679 260.51502 
L 132.907526 258.138091 
L 133.164373 254.707604 
L 133.42122 254.270763 
L 133.678067 255.247231 
L 133.934914 258.330815 
L 134.191761 257.70125 
L 134.705455 251.778199 
L 134.962301 252.523399 
L 135.219148 254.758997 
L 135.732842 253.525563 
L 135.989689 254.476335 
L 136.246536 245.906542 
L 136.503383 248.51474 
L 136.76023 247.679602 
L 137.017077 245.456852 
L 137.273924 242.193393 
L 137.787618 240.972807 
L 138.044465 239.520953 
L 138.301312 238.814299 
L 138.815006 243.889364 
L 139.071853 243.61955 
L 139.585547 244.827287 
L 139.842394 247.589664 
L 140.099241 248.232078 
L 140.356087 247.795237 
L 140.612934 252.728971 
L 140.869781 252.035164 
L 141.126628 252.420612 
L 141.383475 250.686097 
L 141.640322 255.18299 
L 141.897169 254.977417 
L 142.154016 255.041659 
L 142.410863 257.457133 
L 142.66771 258.086698 
L 142.924557 257.315802 
L 143.181404 257.25156 
L 143.438251 260.51502 
L 143.951945 252.908847 
L 144.208792 253.461322 
L 144.465639 253.204357 
L 144.722486 250.801731 
L 144.979333 249.850959 
L 145.23618 254.617666 
L 145.493026 255.786858 
L 145.749873 254.193673 
L 146.263567 257.148774 
L 146.520414 256.750478 
L 147.034108 257.444284 
L 147.290955 259.320131 
L 147.547802 257.893974 
L 147.804649 258.36936 
L 148.061496 256.596299 
L 148.318343 256.043823 
L 148.57519 259.127407 
L 149.088884 256.968899 
L 149.345731 254.81039 
L 149.602578 254.604818 
L 149.859425 254.7333 
L 150.116272 256.36503 
L 150.373119 257.225864 
L 150.629965 255.272928 
L 150.886812 255.838251 
L 151.143659 254.720452 
L 151.400506 254.245066 
L 151.657353 254.990266 
L 152.171047 253.17866 
L 152.427894 253.140115 
L 152.684741 252.009468 
L 152.941588 252.793212 
L 153.198435 254.848935 
L 153.968976 257.521374 
L 154.225823 259.358676 
L 154.48267 260.026786 
L 154.739517 262.262384 
L 155.510058 265.885595 
L 155.766904 265.435906 
L 156.023751 263.290245 
L 156.280598 262.36517 
L 156.537445 260.823378 
L 156.794292 260.88762 
L 157.051139 259.808365 
L 157.307986 259.808365 
L 157.82168 255.99243 
L 158.592221 247.602513 
L 158.849068 246.870162 
L 159.105915 246.972948 
L 159.619609 245.572487 
L 159.876456 247.872326 
L 160.133303 245.62388 
L 160.646997 243.812274 
L 160.903843 240.613056 
L 161.16069 242.000669 
L 161.417537 241.538131 
L 161.674384 242.424662 
L 161.931231 241.718007 
L 162.188078 242.321875 
L 162.444925 242.116303 
L 162.701772 236.899907 
L 162.958619 236.578701 
L 163.215466 237.041238 
L 163.472313 239.431016 
L 163.72916 239.161202 
L 163.986007 239.122657 
L 164.242854 240.073429 
L 164.499701 242.694475 
L 164.756548 242.06491 
L 165.013395 242.630234 
L 165.783936 247.075734 
L 166.040783 244.968618 
L 166.297629 244.184874 
L 166.554476 241.383952 
L 166.811323 237.221114 
L 167.06817 237.311052 
L 167.581864 240.458877 
L 167.838711 242.861503 
L 168.095558 243.413978 
L 168.352405 243.516764 
L 168.609252 242.090607 
L 169.379793 248.707464 
L 169.63664 244.968618 
L 169.893487 245.456852 
L 170.150334 242.630234 
L 170.407181 243.144164 
L 170.664028 245.302673 
L 170.920875 245.405459 
L 171.177722 245.778059 
L 171.434568 244.852984 
L 171.691415 244.647412 
L 171.948262 245.880845 
L 172.205109 248.103595 
L 172.461956 247.512575 
L 172.718803 247.872326 
L 173.232497 243.208406 
L 173.489344 238.724361 
L 173.746191 237.233962 
L 174.516732 244.570322 
L 174.773579 242.103455 
L 175.030426 241.114138 
L 175.287273 243.581005 
L 175.54412 242.681627 
L 175.800967 242.488903 
L 176.057814 240.690146 
L 176.314661 237.657955 
L 176.571507 240.073429 
L 176.828354 239.46956 
L 177.085201 238.017706 
L 177.342048 239.880705 
L 177.598895 237.478079 
L 177.855742 238.21043 
L 178.369436 244.454688 
L 178.626283 243.285495 
L 178.88313 245.135646 
L 179.139977 245.379763 
L 179.396824 245.17419 
L 179.910518 248.874491 
L 180.167365 249.61969 
L 180.424212 246.831617 
L 180.681059 248.283471 
L 180.937906 249.002974 
L 181.4516 245.867997 
L 181.708446 244.441839 
L 181.965293 245.598183 
L 182.22214 251.983771 
L 182.478987 252.947391 
L 182.992681 253.705439 
L 183.249528 253.692591 
L 183.506375 252.484854 
L 183.763222 253.525563 
L 184.020069 249.452663 
L 184.276916 249.799566 
L 184.533763 251.855289 
L 185.047457 249.32418 
L 185.304304 252.086558 
L 185.561151 251.868137 
L 185.817998 252.741819 
L 186.074845 250.673248 
L 186.331692 251.405599 
L 186.845386 250.801731 
L 187.102232 251.045848 
L 187.359079 251.688261 
L 187.615926 249.99229 
L 187.872773 254.489183 
L 188.12962 255.439955 
L 188.386467 256.827568 
L 188.643314 257.32865 
L 188.900161 259.397221 
L 189.157008 258.626325 
L 189.413855 258.741959 
L 189.927549 262.36517 
L 190.184396 263.148915 
L 190.441243 263.431576 
L 190.69809 264.112534 
L 191.211784 262.095357 
L 191.725478 262.172446 
L 191.982325 260.450779 
L 192.239171 262.51935 
L 192.496018 263.187459 
L 193.009712 265.680023 
L 193.266559 265.834202 
L 194.0371 271.885735 
L 194.293947 269.007724 
L 194.550794 269.984192 
L 195.064488 268.301069 
L 195.578182 270.241157 
L 195.835029 270.279702 
L 196.60557 272.425363 
L 196.862417 272.206942 
L 197.119264 273.915761 
L 197.37611 273.221955 
L 197.632957 273.941458 
L 197.889804 272.708024 
L 198.146651 272.695176 
L 198.403498 276.305539 
L 198.660345 277.166373 
L 198.917192 281.020853 
L 199.430886 281.945928 
L 200.201427 277.256311 
L 200.458274 278.361261 
L 200.715121 276.986497 
L 200.971968 273.247652 
L 201.485662 277.089283 
L 201.742509 275.765912 
L 201.999356 276.382628 
L 202.256203 278.746709 
L 202.513049 277.243462 
L 202.769896 275.072105 
L 203.026743 276.678139 
L 203.28359 277.269159 
L 203.540437 279.003675 
L 203.797284 277.526124 
L 204.054131 273.877217 
L 204.310978 275.894394 
L 204.567825 275.907243 
L 204.824672 276.344084 
L 205.081519 275.547491 
L 205.338366 274.249816 
L 205.595213 276.729532 
L 205.85206 275.688822 
L 206.108907 275.907243 
L 206.622601 280.14717 
L 207.136295 279.132157 
L 207.393142 275.18774 
L 207.649988 276.087118 
L 207.906835 275.508946 
L 208.163682 275.419009 
L 208.420529 279.748874 
L 208.677376 280.108626 
L 208.934223 279.324881 
L 209.447917 271.320412 
L 209.704764 268.699365 
L 209.961611 268.506641 
L 210.218458 268.930634 
L 210.475305 270.485274 
L 210.732152 269.238993 
L 210.988999 270.66515 
L 211.245846 267.157574 
L 211.502693 268.545186 
L 211.75954 268.480945 
L 212.016387 267.697201 
L 212.273234 268.480945 
L 212.530081 269.868558 
L 212.786928 272.553845 
L 213.043774 268.391007 
L 213.300621 268.14689 
L 213.557468 268.108345 
L 213.814315 268.275373 
L 214.071162 268.699365 
L 214.328009 270.189764 
L 214.584856 273.466072 
L 215.09855 275.85585 
L 215.355397 275.560339 
L 215.869091 270.639454 
L 216.125938 270.845026 
L 216.382785 270.485274 
L 216.639632 269.688682 
L 216.896479 269.444565 
L 217.153326 270.318247 
L 217.410173 270.382488 
L 217.66702 270.947812 
L 217.923867 272.990686 
L 218.180713 269.650137 
L 218.43756 271.885735 
L 218.951254 266.039774 
L 219.208101 267.170422 
L 219.464948 265.461602 
L 219.721795 265.268878 
L 219.978642 264.7421 
L 220.235489 264.754948 
L 220.492336 264.639313 
L 220.749183 265.410209 
L 221.00603 267.311753 
L 222.033418 261.041799 
L 222.290265 261.452943 
L 222.803959 258.921835 
L 223.060806 256.095217 
L 223.574499 255.093052 
L 223.831346 253.152964 
L 224.088193 255.863948 
L 224.34504 252.703274 
L 224.601887 254.180825 
L 224.858734 253.628349 
L 225.115581 252.780364 
L 225.372428 253.538412 
L 225.629275 252.561943 
L 225.886122 252.137951 
L 226.399816 253.088722 
L 226.91351 255.953886 
L 227.170357 255.298624 
L 227.427204 255.889644 
L 227.684051 254.88748 
L 228.197745 250.146469 
L 228.711438 247.949416 
L 228.968285 244.724501 
L 229.481979 247.576816 
L 229.738826 247.050037 
L 230.25252 248.129292 
L 230.509367 246.88301 
L 230.766214 249.054367 
L 231.279908 247.409789 
L 231.536755 247.756692 
L 231.793602 246.446169 
L 232.564143 239.456712 
L 232.82099 242.668779 
L 233.077837 243.234102 
L 233.334684 242.720172 
L 233.59153 244.261964 
L 233.848377 244.827287 
L 234.105224 245.778059 
L 234.362071 247.628209 
L 234.618918 254.450638 
L 234.875765 254.861783 
L 235.132612 254.335004 
L 235.389459 254.476335 
L 235.646306 251.534082 
L 235.903153 252.561943 
L 236.16 251.456993 
L 236.416847 248.913036 
L 236.673694 251.84244 
L 236.930541 249.799566 
L 237.444235 248.720312 
L 237.701082 249.748173 
L 237.957929 248.232078 
L 238.214776 247.795237 
L 238.471623 245.675273 
L 238.72847 246.51041 
L 238.985316 248.206381 
L 239.242163 251.945227 
L 239.49901 251.880985 
L 239.755857 252.369219 
L 240.012704 253.191508 
L 240.269551 253.152964 
L 240.526398 255.02881 
L 240.783245 253.666894 
L 241.040092 250.698945 
L 241.553786 249.298484 
L 242.581174 256.776175 
L 243.094868 256.943202 
L 243.351715 258.536387 
L 243.608562 257.983912 
L 243.865409 255.632679 
L 244.122255 254.758997 
L 244.379102 255.966734 
L 244.635949 255.247231 
L 244.892796 254.861783 
L 245.149643 258.163787 
L 245.40649 256.210851 
L 245.663337 255.529893 
L 245.920184 254.502032 
L 246.433878 254.013797 
L 246.690725 251.829592 
L 246.947572 251.110089 
L 247.204419 250.930214 
L 247.461266 252.831757 
L 247.718113 255.632679 
L 248.231807 258.112394 
L 248.488654 257.431436 
L 248.745501 254.900328 
L 249.002348 255.195838 
L 249.259194 256.275092 
L 249.516041 255.414258 
L 249.772888 255.594134 
L 250.029735 251.84244 
L 250.286582 246.304838 
L 250.543429 244.467536 
L 250.800276 241.69231 
L 251.057123 241.576676 
L 251.31397 240.253305 
L 251.570817 243.349737 
L 251.827664 244.454688 
L 252.084511 242.386117 
L 252.341358 241.47389 
L 252.598205 237.529472 
L 252.855052 240.086277 
L 253.111899 240.073429 
L 253.368746 239.379622 
L 253.625593 230.270202 
L 253.88244 225.734764 
L 254.139287 223.537711 
L 254.396133 216.933702 
L 254.65298 223.9874 
L 254.909827 224.36 
L 255.166674 222.689725 
L 255.423521 227.54637 
L 255.680368 227.302252 
L 255.937215 221.533381 
L 256.194062 221.17363 
L 256.450909 227.918969 
L 256.707756 224.976716 
L 256.964603 227.17377 
L 257.22145 222.869601 
L 257.478297 221.46914 
L 257.735144 223.049476 
L 257.991991 221.816043 
L 258.248838 222.471304 
L 258.505685 222.342822 
L 258.762532 220.518368 
L 259.019379 214.80089 
L 259.276226 217.871625 
L 259.533072 218.436949 
L 259.789919 218.077198 
L 260.046766 220.865271 
L 260.303613 219.76032 
L 260.56046 220.107224 
L 260.817307 218.347011 
L 261.074154 217.923018 
L 261.331001 223.255049 
L 261.844695 208.235426 
L 262.101542 208.235426 
L 262.358389 197.751241 
L 262.615236 200.397984 
L 262.872083 199.896901 
L 263.12893 198.098144 
L 263.385777 199.717025 
L 263.642624 195.90109 
L 263.899471 195.284374 
L 264.156318 195.38716 
L 264.413165 200.179563 
L 264.670012 198.136689 
L 265.183705 198.779102 
L 265.440552 198.329413 
L 265.697399 190.838874 
L 266.211093 188.975875 
L 266.46794 192.008066 
L 266.724787 192.637631 
L 267.238481 187.45978 
L 267.495328 191.82819 
L 267.752175 193.215803 
L 268.265869 199.75557 
L 268.522716 201.708507 
L 268.779563 195.400008 
L 269.03641 198.509288 
L 269.293257 200.025384 
L 269.550104 198.766254 
L 269.806951 198.406502 
L 270.063797 199.126005 
L 270.320644 198.817647 
L 270.577491 193.626947 
L 270.834338 193.999547 
L 271.091185 191.918128 
L 271.604879 201.901231 
L 271.861726 203.083271 
L 272.118573 206.12831 
L 272.632267 194.911774 
L 272.889114 199.524301 
L 273.145961 198.984674 
L 273.402808 197.802634 
L 273.659655 197.442882 
L 274.173349 204.663608 
L 274.430196 201.721355 
L 274.94389 203.134664 
L 275.200736 201.194576 
L 275.457583 201.875534 
L 275.71443 201.451541 
L 275.971277 203.070423 
L 276.228124 200.732038 
L 276.484971 200.192411 
L 276.741818 195.849697 
L 276.998665 201.258817 
L 277.255512 202.710671 
L 277.512359 201.335907 
L 277.769206 196.492111 
L 278.026053 197.044586 
L 278.2829 196.877559 
L 278.539747 202.145348 
L 279.053441 203.353085 
L 279.310288 208.518088 
L 279.823982 211.627368 
L 280.080829 208.839294 
L 280.337675 207.875674 
L 280.594522 207.811433 
L 281.108216 207.413137 
L 281.365063 206.577999 
L 282.392451 210.959258 
L 282.649298 211.036348 
L 282.906145 210.959258 
L 283.162992 209.545949 
L 283.419839 209.288984 
L 283.676686 205.138994 
L 283.933533 205.704317 
L 284.19038 205.485897 
L 284.447227 209.674432 
L 284.704074 209.147653 
L 285.217768 207.83713 
L 285.474614 207.580164 
L 285.731461 207.888523 
L 285.988308 204.984814 
L 286.502002 205.974131 
L 287.272543 203.90556 
L 287.786237 196.35078 
L 288.043084 195.515642 
L 288.556778 192.342121 
L 289.070472 180.521716 
L 289.327319 181.870784 
L 289.584166 180.817226 
L 289.841013 186.264891 
L 290.09786 185.53254 
L 290.611554 187.716745 
L 291.638941 183.849417 
L 291.895788 186.12356 
L 292.409482 183.142762 
L 292.666329 182.783011 
L 292.923176 178.722959 
L 293.180023 180.290447 
L 293.43687 180.431778 
L 293.950564 177.669401 
L 294.207411 180.097723 
L 294.464258 184.311955 
L 294.721105 185.609629 
L 295.234799 180.63735 
L 295.491646 180.49602 
L 295.748493 181.189826 
L 296.005339 182.93719 
L 296.262186 180.020634 
L 296.519033 178.388904 
L 296.77588 178.543083 
L 297.032727 176.217547 
L 297.546421 168.727008 
L 298.060115 155.197784 
L 298.573809 164.641259 
L 298.830656 160.247152 
L 299.087503 171.078241 
L 299.34435 173.699287 
L 299.601197 169.626387 
L 300.371738 152.1142 
L 300.628585 154.979363 
L 300.885432 159.296381 
L 301.142278 159.797463 
L 301.399125 181.138433 
L 301.655972 183.168459 
L 301.912819 202.466554 
L 302.169666 190.003736 
L 302.68336 205.922738 
L 302.940207 200.744887 
L 303.197054 192.778962 
L 303.453901 172.131798 
L 303.710748 172.208888 
L 303.967595 164.666956 
L 304.224442 169.163849 
L 304.481289 168.906884 
L 304.738136 171.309509 
L 304.994983 179.635186 
L 305.25183 169.292332 
L 305.508677 170.243103 
L 305.765524 161.197924 
L 306.022371 160.953807 
L 306.279217 161.326407 
L 306.536064 152.885096 
L 306.792911 137.14597 
L 307.049758 143.120414 
L 307.306605 140.33234 
L 307.563452 149.827209 
L 308.077146 152.525345 
L 308.59084 138.597824 
L 308.847687 143.827068 
L 309.104534 144.071186 
L 309.361381 150.084174 
L 309.618228 147.051983 
L 309.875075 147.206162 
L 310.131922 151.44609 
L 310.388769 145.574433 
L 310.902463 150.097022 
L 311.15931 146.872107 
L 311.416157 147.206162 
L 311.673003 147.2961 
L 311.92985 145.754308 
L 312.186697 139.792713 
L 312.443544 138.829093 
L 312.700391 138.99612 
L 312.957238 138.160983 
L 313.214085 135.501392 
L 313.470932 141.514381 
L 313.727779 139.291631 
L 313.984626 142.709269 
L 314.241473 149.30043 
L 314.49832 143.454469 
L 314.755167 140.537912 
L 315.012014 140.049678 
L 315.268861 137.081729 
L 315.525708 146.538053 
L 315.782555 147.899969 
L 316.039402 152.165593 
L 316.296249 150.392532 
L 316.553096 144.443785 
L 316.809942 142.246732 
L 317.066789 138.083894 
L 317.323636 139.304479 
L 317.580483 145.227529 
L 317.83733 142.812055 
L 318.094177 141.655712 
L 318.351024 142.901993 
L 318.607871 138.983272 
L 318.864718 132.019512 
L 319.121565 130.207907 
L 319.378412 130.940258 
L 319.892106 135.681268 
L 320.148953 129.5141 
L 320.4058 130.413479 
L 320.662647 129.655431 
L 320.919494 128.010853 
L 321.176341 129.180045 
L 321.433188 125.325565 
L 321.690035 124.901573 
L 321.946881 119.36397 
L 322.203728 119.107005 
L 322.460575 121.419693 
L 322.717422 120.289045 
L 322.974269 121.728051 
L 323.487963 120.237652 
L 323.74481 120.32759 
L 324.001657 118.194778 
L 324.258504 111.282411 
L 324.515351 108.751302 
L 325.285892 87.101974 
L 325.542739 86.009872 
L 326.056433 81.705702 
L 326.31328 79.842704 
L 326.570127 81.474434 
L 326.826974 76.502155 
L 327.08382 58.450341 
L 327.340667 53.568 
L 327.597514 62.818752 
L 327.854361 59.388264 
L 328.111208 86.331078 
L 328.368055 88.322559 
L 328.624902 85.149038 
L 328.881749 85.020555 
L 329.395443 68.574775 
L 329.65229 75.705562 
L 329.909137 89.543145 
L 330.165984 90.262648 
L 330.422831 85.226127 
L 330.679678 93.65459 
L 330.936525 88.052746 
L 331.193372 90.39113 
L 331.450219 81.782792 
L 331.707066 77.928312 
L 331.963913 84.429535 
L 332.220759 86.125506 
L 332.477606 89.761565 
L 332.734453 89.20909 
L 332.9913 93.705983 
L 333.248147 84.39099 
L 333.504994 79.495801 
L 333.761841 84.339597 
L 334.018688 81.435889 
L 334.275535 83.838515 
L 334.532382 80.639296 
L 334.789229 87.20476 
L 335.046076 83.453067 
L 335.302923 94.117127 
L 335.55977 94.977961 
L 335.816617 103.355031 
L 336.073464 106.348677 
L 336.330311 106.875456 
L 336.587158 105.693415 
L 336.844005 100.644047 
L 337.100852 99.885999 
L 337.357699 96.005823 
L 337.614545 95.736009 
L 338.128239 93.076418 
L 338.385086 100.502716 
L 338.641933 99.744668 
L 338.89878 90.545309 
L 339.155627 89.967138 
L 339.412474 98.755351 
L 339.669321 93.937252 
L 339.926168 98.601172 
L 340.183015 95.222078 
L 340.439862 95.080747 
L 340.696709 96.930898 
L 340.953556 90.314041 
L 341.210403 96.275636 
L 341.46725 95.58183 
L 341.724097 96.918049 
L 341.980944 95.055051 
L 342.237791 104.241561 
L 342.494638 104.151623 
L 343.265178 94.386941 
L 343.522025 96.481208 
L 343.778872 86.639437 
L 344.035719 86.035568 
L 344.292566 104.922519 
L 344.549413 101.993114 
L 344.80626 106.554249 
L 345.319954 98.858138 
L 345.576801 100.220054 
L 345.833648 99.333523 
L 346.090495 102.661224 
L 346.347342 107.479324 
L 346.604189 102.76401 
L 347.117883 122.319071 
L 347.37473 119.595239 
L 347.631577 120.314742 
L 348.14527 131.839636 
L 348.402117 119.453908 
L 349.686352 104.704099 
L 349.943199 111.487983 
L 350.200046 110.819873 
L 350.456893 111.423742 
L 350.71374 114.211815 
L 350.970587 109.200992 
L 351.227434 108.866937 
L 351.484281 98.896682 
L 351.741128 101.723301 
L 351.997975 101.65906 
L 352.511669 102.943886 
L 353.025362 103.123762 
L 353.282209 99.706123 
L 353.795903 85.418851 
L 354.05275 86.151203 
L 354.566444 91.35475 
L 354.823291 106.053166 
L 355.080138 110.074674 
L 355.336985 111.616466 
L 355.593832 107.093876 
L 355.850679 111.487983 
L 356.107526 112.194638 
L 356.364373 113.723581 
L 356.62122 113.299589 
L 356.878067 107.672048 
L 357.134914 106.258739 
L 357.391761 108.674213 
L 357.648608 107.607807 
L 357.905455 107.672048 
L 358.162301 111.166776 
L 358.675995 105.821898 
L 358.932842 106.040318 
L 359.189689 113.710733 
L 359.446536 113.106865 
L 359.703383 125.839496 
L 359.96023 121.458237 
L 360.217077 113.158258 
L 360.730771 111.256714 
L 360.987618 111.911976 
L 361.244465 118.014902 
L 361.501312 117.770785 
L 362.015006 127.175716 
L 362.271853 129.115804 
L 362.5287 125.762407 
L 362.785547 120.301893 
L 363.042394 122.306223 
L 363.556087 127.445529 
L 363.812934 136.901853 
L 364.326628 141.784194 
L 364.583475 144.983412 
L 364.840322 144.803537 
L 365.354016 151.240518 
L 365.610863 143.570103 
L 365.86771 143.749979 
L 366.124557 141.681408 
L 366.381404 146.679384 
L 366.895098 138.919031 
L 367.408792 141.257415 
L 367.665639 138.867638 
L 367.922486 138.623521 
L 368.179333 141.180326 
L 368.43618 140.075375 
L 368.693026 138.328011 
L 368.949873 139.74132 
L 369.463567 152.03711 
L 369.720414 150.212657 
L 369.977261 141.21887 
L 370.234108 136.439316 
L 370.490955 138.135287 
L 370.747802 133.651242 
L 371.261496 139.471506 
L 371.518343 135.59133 
L 371.77519 138.7777 
L 372.288884 128.781749 
L 372.545731 128.768901 
L 372.802578 127.908067 
L 373.059425 122.678823 
L 373.573119 126.893054 
L 373.829965 129.064411 
L 374.086812 126.289185 
L 374.600506 131.81394 
L 374.857353 130.529113 
L 375.1142 122.794457 
L 375.371047 126.77742 
L 375.884741 112.824203 
L 376.141588 111.822038 
L 376.398435 114.738594 
L 376.655282 114.32745 
L 376.912129 116.614441 
L 377.939517 99.487703 
L 378.196364 102.095901 
L 378.453211 102.712617 
L 378.710058 101.620515 
L 378.966904 99.860302 
L 379.223751 96.583994 
L 379.480598 98.716807 
L 379.737445 96.532601 
L 379.994292 96.686781 
L 380.251139 95.813099 
L 380.507986 105.115243 
L 380.764833 98.935227 
L 381.02168 99.500551 
L 381.278527 98.279966 
L 381.535374 97.907366 
L 382.049068 101.389246 
L 382.305915 105.35936 
L 382.562762 105.487843 
L 382.819609 106.605642 
L 383.076456 127.689646 
L 383.333303 129.128652 
L 383.59015 128.62757 
L 383.846997 128.62757 
L 384.103843 124.374794 
L 384.36069 126.10931 
L 384.617537 125.646772 
L 384.874384 127.278502 
L 385.131231 133.66409 
L 385.388078 131.685457 
L 385.644925 126.970144 
L 386.158619 124.439035 
L 386.415466 119.685177 
L 386.672313 121.021396 
L 386.92916 120.237652 
L 387.186007 120.674493 
L 387.442854 124.169222 
L 387.699701 118.657315 
L 387.956548 116.25469 
L 388.470242 115.972028 
L 388.727089 118.387502 
L 388.983936 116.293234 
L 389.240783 121.66381 
L 389.497629 122.357616 
L 389.754476 122.319071 
L 390.26817 122.126347 
L 390.525017 123.089967 
L 390.781864 114.687201 
L 391.038711 115.599428 
L 391.295558 119.274032 
L 391.552405 118.965674 
L 391.809252 114.738594 
L 392.83664 141.912677 
L 393.093487 136.709129 
L 393.350334 135.732661 
L 393.607181 128.935928 
L 393.864028 125.723862 
L 394.120875 124.927269 
L 394.377722 126.469061 
L 394.634568 126.828813 
L 394.891415 127.599709 
L 395.148262 121.702354 
L 395.405109 120.044928 
L 395.661956 125.119993 
L 395.918803 125.65962 
L 396.432497 118.40035 
L 396.689344 119.184094 
L 396.946191 118.99137 
L 397.203038 116.126207 
L 397.459885 116.665834 
L 397.973579 125.8138 
L 398.230426 125.235628 
L 398.487273 123.603898 
L 398.487273 123.603898 
" clip-path="url(#pf3bf5a8c29)" style="fill: none; stroke: #1f77b4; stroke-width: 1.5; stroke-linecap: square"/>
   </g>
   <g id="patch_3">
    <path d="M 57.6 307.584 
L 57.6 41.472 
" style="fill: none; stroke: #000000; stroke-width: 0.8; stroke-linejoin: miter; stroke-linecap: square"/>
   </g>
   <g id="patch_4">
    <path d="M 414.72 307.584 
L 414.72 41.472 
" style="fill: none; stroke: #000000; stroke-width: 0.8; stroke-linejoin: miter; stroke-linecap: square"/>
   </g>
   <g id="patch_5">
    <path d="M 57.6 307.584 
L 414.72 307.584 
" style="fill: none; stroke: #000000; stroke-width: 0.8; stroke-linejoin: miter; stroke-linecap: square"/>
   </g>
   <g id="patch_6">
    <path d="M 57.6 41.472 
L 414.72 41.472 
" style="fill: none; stroke: #000000; stroke-width: 0.8; stroke-linejoin: miter; stroke-linecap: square"/>
   </g>
   <g id="legend_1">
    <g id="patch_7">
     <path d="M 64.6 64.150125 
L 143.60625 64.150125 
Q 145.60625 64.150125 145.60625 62.150125 
L 145.60625 48.472 
Q 145.60625 46.472 143.60625 46.472 
L 64.6 46.472 
Q 62.6 46.472 62.6 48.472 
L 62.6 62.150125 
Q 62.6 64.150125 64.6 64.150125 
z
" style="fill: #ffffff; opacity: 0.8; stroke: #cccccc; stroke-linejoin: miter"/>
    </g>
    <g id="line2d_14">
     <path d="M 66.6 54.570438 
L 76.6 54.570438 
L 86.6 54.570438 
" style="fill: none; stroke: #1f77b4; stroke-width: 1.5; stroke-linecap: square"/>
    </g>
    <g id="text_15">
     <!-- USD (PM) -->
     <g transform="translate(94.6 58.070438)scale(0.1 -0.1)">
      <defs>
       <path id="DejaVuSans-55" d="M 556 4666 
L 1191 4666 
L 1191 1831 
Q 1191 1081 1462 751 
Q 1734 422 2344 422 
Q 2950 422 3222 751 
Q 3494 1081 3494 1831 
L 3494 4666 
L 4128 4666 
L 4128 1753 
Q 4128 841 3676 375 
Q 3225 -91 2344 -91 
Q 1459 -91 1007 375 
Q 556 841 556 1753 
L 556 4666 
z
" transform="scale(0.015625)"/>
       <path id="DejaVuSans-53" d="M 3425 4513 
L 3425 3897 
Q 3066 4069 2747 4153 
Q 2428 4238 2131 4238 
Q 1616 4238 1336 4038 
Q 1056 3838 1056 3469 
Q 1056 3159 1242 3001 
Q 1428 2844 1947 2747 
L 2328 2669 
Q 3034 2534 3370 2195 
Q 3706 1856 3706 1288 
Q 3706 609 3251 259 
Q 2797 -91 1919 -91 
Q 1588 -91 1214 -16 
Q 841 59 441 206 
L 441 856 
Q 825 641 1194 531 
Q 1563 422 1919 422 
Q 2459 422 2753 634 
Q 3047 847 3047 1241 
Q 3047 1584 2836 1778 
Q 2625 1972 2144 2069 
L 1759 2144 
Q 1053 2284 737 2584 
Q 422 2884 422 3419 
Q 422 4038 858 4394 
Q 1294 4750 2059 4750 
Q 2388 4750 2728 4690 
Q 3069 4631 3425 4513 
z
" transform="scale(0.015625)"/>
       <path id="DejaVuSans-28" d="M 1984 4856 
Q 1566 4138 1362 3434 
Q 1159 2731 1159 2009 
Q 1159 1288 1364 580 
Q 1569 -128 1984 -844 
L 1484 -844 
Q 1016 -109 783 600 
Q 550 1309 550 2009 
Q 550 2706 781 3412 
Q 1013 4119 1484 4856 
L 1984 4856 
z
" transform="scale(0.015625)"/>
       <path id="DejaVuSans-4d" d="M 628 4666 
L 1569 4666 
L 2759 1491 
L 3956 4666 
L 4897 4666 
L 4897 0 
L 4281 0 
L 4281 4097 
L 3078 897 
L 2444 897 
L 1241 4097 
L 1241 0 
L 628 0 
L 628 4666 
z
" transform="scale(0.015625)"/>
       <path id="DejaVuSans-29" d="M 513 4856 
L 1013 4856 
Q 1481 4119 1714 3412 
Q 1947 2706 1947 2009 
Q 1947 1309 1714 600 
Q 1481 -109 1013 -844 
L 513 -844 
Q 928 -128 1133 580 
Q 1338 1288 1338 2009 
Q 1338 2731 1133 3434 
Q 928 4138 513 4856 
z
" transform="scale(0.015625)"/>
      </defs>
      <use xlink:href="#DejaVuSans-55"/>
      <use xlink:href="#DejaVuSans-53" x="73.193359"/>
      <use xlink:href="#DejaVuSans-44" x="136.669922"/>
      <use xlink:href="#DejaVuSans-20" x="213.671875"/>
      <use xlink:href="#DejaVuSans-28" x="245.458984"/>
      <use xlink:href="#DejaVuSans-50" x="284.472656"/>
      <use xlink:href="#DejaVuSans-4d" x="344.775391"/>
      <use xlink:href="#DejaVuSans-29" x="431.054688"/>
     </g>
    </g>
   </g>
  </g>
 </g>
 <defs>
  <clipPath id="pf3bf5a8c29">
   <rect x="57.6" y="41.472" width="357.12" height="266.112"/>
  </clipPath>
 </defs>
</svg>
