<?xml version="1.0" encoding="utf-8" standalone="no"?>
<!DOCTYPE svg PUBLIC "-//W3C//DTD SVG 1.1//EN"
  "http://www.w3.org/Graphics/SVG/1.1/DTD/svg11.dtd">
<svg xmlns:xlink="http://www.w3.org/1999/xlink" width="460.8pt" height="345.6pt" viewBox="0 0 460.8 345.6" xmlns="http://www.w3.org/2000/svg" version="1.1">
 <metadata>
  <rdf:RDF xmlns:dc="http://purl.org/dc/elements/1.1/" xmlns:cc="http://creativecommons.org/ns#" xmlns:rdf="http://www.w3.org/1999/02/22-rdf-syntax-ns#">
   <cc:Work>
    <dc:type rdf:resource="http://purl.org/dc/dcmitype/StillImage"/>
    <dc:date>2022-10-26T23:08:26.859833</dc:date>
    <dc:format>image/svg+xml</dc:format>
    <dc:creator>
     <cc:Agent>
      <dc:title>Matplotlib v3.5.2, https://matplotlib.org/</dc:title>
     </cc:Agent>
    </dc:creator>
   </cc:Work>
  </rdf:RDF>
 </metadata>
 <defs>
  <style type="text/css">*{stroke-linejoin: round; stroke-linecap: butt}</style>
 </defs>
 <g id="figure_1">
  <g id="patch_1">
   <path d="M 0 345.6 
L 460.8 345.6 
L 460.8 0 
L 0 0 
z
" style="fill: #ffffff"/>
  </g>
  <g id="axes_1">
   <g id="patch_2">
    <path d="M 57.6 307.584 
L 414.72 307.584 
L 414.72 41.472 
L 57.6 41.472 
z
" style="fill: #ffffff"/>
   </g>
   <g id="matplotlib.axis_1">
    <g id="xtick_1">
     <g id="line2d_1">
      <defs>
       <path id="m8b504fcd44" d="M 0 0 
L 0 3.5 
" style="stroke: #000000; stroke-width: 0.8"/>
      </defs>
      <g>
       <use xlink:href="#m8b504fcd44" x="58.372987" y="307.584" style="stroke: #000000; stroke-width: 0.8"/>
      </g>
     </g>
     <g id="text_1">
      <!-- 1,000 -->
      <g transform="translate(44.058925 322.182437)scale(0.1 -0.1)">
       <defs>
        <path id="DejaVuSans-31" d="M 794 531 
L 1825 531 
L 1825 4091 
L 703 3866 
L 703 4441 
L 1819 4666 
L 2450 4666 
L 2450 531 
L 3481 531 
L 3481 0 
L 794 0 
L 794 531 
z
" transform="scale(0.015625)"/>
        <path id="DejaVuSans-2c" d="M 750 794 
L 1409 794 
L 1409 256 
L 897 -744 
L 494 -744 
L 750 256 
L 750 794 
z
" transform="scale(0.015625)"/>
        <path id="DejaVuSans-30" d="M 2034 4250 
Q 1547 4250 1301 3770 
Q 1056 3291 1056 2328 
Q 1056 1369 1301 889 
Q 1547 409 2034 409 
Q 2525 409 2770 889 
Q 3016 1369 3016 2328 
Q 3016 3291 2770 3770 
Q 2525 4250 2034 4250 
z
M 2034 4750 
Q 2819 4750 3233 4129 
Q 3647 3509 3647 2328 
Q 3647 1150 3233 529 
Q 2819 -91 2034 -91 
Q 1250 -91 836 529 
Q 422 1150 422 2328 
Q 422 3509 836 4129 
Q 1250 4750 2034 4750 
z
" transform="scale(0.015625)"/>
       </defs>
       <use xlink:href="#DejaVuSans-31"/>
       <use xlink:href="#DejaVuSans-2c" x="63.623047"/>
       <use xlink:href="#DejaVuSans-30" x="95.410156"/>
       <use xlink:href="#DejaVuSans-30" x="159.033203"/>
       <use xlink:href="#DejaVuSans-30" x="222.65625"/>
      </g>
     </g>
    </g>
    <g id="xtick_2">
     <g id="line2d_2">
      <g>
       <use xlink:href="#m8b504fcd44" x="122.788571" y="307.584" style="stroke: #000000; stroke-width: 0.8"/>
      </g>
     </g>
     <g id="text_2">
      <!-- 1,050 -->
      <g transform="translate(108.474509 322.182437)scale(0.1 -0.1)">
       <defs>
        <path id="DejaVuSans-35" d="M 691 4666 
L 3169 4666 
L 3169 4134 
L 1269 4134 
L 1269 2991 
Q 1406 3038 1543 3061 
Q 1681 3084 1819 3084 
Q 2600 3084 3056 2656 
Q 3513 2228 3513 1497 
Q 3513 744 3044 326 
Q 2575 -91 1722 -91 
Q 1428 -91 1123 -41 
Q 819 9 494 109 
L 494 744 
Q 775 591 1075 516 
Q 1375 441 1709 441 
Q 2250 441 2565 725 
Q 2881 1009 2881 1497 
Q 2881 1984 2565 2268 
Q 2250 2553 1709 2553 
Q 1456 2553 1204 2497 
Q 953 2441 691 2322 
L 691 4666 
z
" transform="scale(0.015625)"/>
       </defs>
       <use xlink:href="#DejaVuSans-31"/>
       <use xlink:href="#DejaVuSans-2c" x="63.623047"/>
       <use xlink:href="#DejaVuSans-30" x="95.410156"/>
       <use xlink:href="#DejaVuSans-35" x="159.033203"/>
       <use xlink:href="#DejaVuSans-30" x="222.65625"/>
      </g>
     </g>
    </g>
    <g id="xtick_3">
     <g id="line2d_3">
      <g>
       <use xlink:href="#m8b504fcd44" x="187.204156" y="307.584" style="stroke: #000000; stroke-width: 0.8"/>
      </g>
     </g>
     <g id="text_3">
      <!-- 1,100 -->
      <g transform="translate(172.890093 322.182437)scale(0.1 -0.1)">
       <use xlink:href="#DejaVuSans-31"/>
       <use xlink:href="#DejaVuSans-2c" x="63.623047"/>
       <use xlink:href="#DejaVuSans-31" x="95.410156"/>
       <use xlink:href="#DejaVuSans-30" x="159.033203"/>
       <use xlink:href="#DejaVuSans-30" x="222.65625"/>
      </g>
     </g>
    </g>
    <g id="xtick_4">
     <g id="line2d_4">
      <g>
       <use xlink:href="#m8b504fcd44" x="251.61974" y="307.584" style="stroke: #000000; stroke-width: 0.8"/>
      </g>
     </g>
     <g id="text_4">
      <!-- 1,150 -->
      <g transform="translate(237.305678 322.182437)scale(0.1 -0.1)">
       <use xlink:href="#DejaVuSans-31"/>
       <use xlink:href="#DejaVuSans-2c" x="63.623047"/>
       <use xlink:href="#DejaVuSans-31" x="95.410156"/>
       <use xlink:href="#DejaVuSans-35" x="159.033203"/>
       <use xlink:href="#DejaVuSans-30" x="222.65625"/>
      </g>
     </g>
    </g>
    <g id="xtick_5">
     <g id="line2d_5">
      <g>
       <use xlink:href="#m8b504fcd44" x="316.035325" y="307.584" style="stroke: #000000; stroke-width: 0.8"/>
      </g>
     </g>
     <g id="text_5">
      <!-- 1,200 -->
      <g transform="translate(301.721262 322.182437)scale(0.1 -0.1)">
       <defs>
        <path id="DejaVuSans-32" d="M 1228 531 
L 3431 531 
L 3431 0 
L 469 0 
L 469 531 
Q 828 903 1448 1529 
Q 2069 2156 2228 2338 
Q 2531 2678 2651 2914 
Q 2772 3150 2772 3378 
Q 2772 3750 2511 3984 
Q 2250 4219 1831 4219 
Q 1534 4219 1204 4116 
Q 875 4013 500 3803 
L 500 4441 
Q 881 4594 1212 4672 
Q 1544 4750 1819 4750 
Q 2544 4750 2975 4387 
Q 3406 4025 3406 3419 
Q 3406 3131 3298 2873 
Q 3191 2616 2906 2266 
Q 2828 2175 2409 1742 
Q 1991 1309 1228 531 
z
" transform="scale(0.015625)"/>
       </defs>
       <use xlink:href="#DejaVuSans-31"/>
       <use xlink:href="#DejaVuSans-2c" x="63.623047"/>
       <use xlink:href="#DejaVuSans-32" x="95.410156"/>
       <use xlink:href="#DejaVuSans-30" x="159.033203"/>
       <use xlink:href="#DejaVuSans-30" x="222.65625"/>
      </g>
     </g>
    </g>
    <g id="xtick_6">
     <g id="line2d_6">
      <g>
       <use xlink:href="#m8b504fcd44" x="380.450909" y="307.584" style="stroke: #000000; stroke-width: 0.8"/>
      </g>
     </g>
     <g id="text_6">
      <!-- 1,250 -->
      <g transform="translate(366.136847 322.182437)scale(0.1 -0.1)">
       <use xlink:href="#DejaVuSans-31"/>
       <use xlink:href="#DejaVuSans-2c" x="63.623047"/>
       <use xlink:href="#DejaVuSans-32" x="95.410156"/>
       <use xlink:href="#DejaVuSans-35" x="159.033203"/>
       <use xlink:href="#DejaVuSans-30" x="222.65625"/>
      </g>
     </g>
    </g>
   </g>
   <g id="matplotlib.axis_2">
    <g id="ytick_1">
     <g id="line2d_7">
      <defs>
       <path id="m3eda646846" d="M 0 0 
L -3.5 0 
" style="stroke: #000000; stroke-width: 0.8"/>
      </defs>
      <g>
       <use xlink:href="#m3eda646846" x="57.6" y="280.070721" style="stroke: #000000; stroke-width: 0.8"/>
      </g>
     </g>
     <g id="text_7">
      <!-- 1,700 -->
      <g transform="translate(21.971875 283.869939)scale(0.1 -0.1)">
       <defs>
        <path id="DejaVuSans-37" d="M 525 4666 
L 3525 4666 
L 3525 4397 
L 1831 0 
L 1172 0 
L 2766 4134 
L 525 4134 
L 525 4666 
z
" transform="scale(0.015625)"/>
       </defs>
       <use xlink:href="#DejaVuSans-31"/>
       <use xlink:href="#DejaVuSans-2c" x="63.623047"/>
       <use xlink:href="#DejaVuSans-37" x="95.410156"/>
       <use xlink:href="#DejaVuSans-30" x="159.033203"/>
       <use xlink:href="#DejaVuSans-30" x="222.65625"/>
      </g>
     </g>
    </g>
    <g id="ytick_2">
     <g id="line2d_8">
      <g>
       <use xlink:href="#m3eda646846" x="57.6" y="237.654811" style="stroke: #000000; stroke-width: 0.8"/>
      </g>
     </g>
     <g id="text_8">
      <!-- 1,750 -->
      <g transform="translate(21.971875 241.45403)scale(0.1 -0.1)">
       <use xlink:href="#DejaVuSans-31"/>
       <use xlink:href="#DejaVuSans-2c" x="63.623047"/>
       <use xlink:href="#DejaVuSans-37" x="95.410156"/>
       <use xlink:href="#DejaVuSans-35" x="159.033203"/>
       <use xlink:href="#DejaVuSans-30" x="222.65625"/>
      </g>
     </g>
    </g>
    <g id="ytick_3">
     <g id="line2d_9">
      <g>
       <use xlink:href="#m3eda646846" x="57.6" y="195.238902" style="stroke: #000000; stroke-width: 0.8"/>
      </g>
     </g>
     <g id="text_9">
      <!-- 1,800 -->
      <g transform="translate(21.971875 199.038121)scale(0.1 -0.1)">
       <defs>
        <path id="DejaVuSans-38" d="M 2034 2216 
Q 1584 2216 1326 1975 
Q 1069 1734 1069 1313 
Q 1069 891 1326 650 
Q 1584 409 2034 409 
Q 2484 409 2743 651 
Q 3003 894 3003 1313 
Q 3003 1734 2745 1975 
Q 2488 2216 2034 2216 
z
M 1403 2484 
Q 997 2584 770 2862 
Q 544 3141 544 3541 
Q 544 4100 942 4425 
Q 1341 4750 2034 4750 
Q 2731 4750 3128 4425 
Q 3525 4100 3525 3541 
Q 3525 3141 3298 2862 
Q 3072 2584 2669 2484 
Q 3125 2378 3379 2068 
Q 3634 1759 3634 1313 
Q 3634 634 3220 271 
Q 2806 -91 2034 -91 
Q 1263 -91 848 271 
Q 434 634 434 1313 
Q 434 1759 690 2068 
Q 947 2378 1403 2484 
z
M 1172 3481 
Q 1172 3119 1398 2916 
Q 1625 2713 2034 2713 
Q 2441 2713 2670 2916 
Q 2900 3119 2900 3481 
Q 2900 3844 2670 4047 
Q 2441 4250 2034 4250 
Q 1625 4250 1398 4047 
Q 1172 3844 1172 3481 
z
" transform="scale(0.015625)"/>
       </defs>
       <use xlink:href="#DejaVuSans-31"/>
       <use xlink:href="#DejaVuSans-2c" x="63.623047"/>
       <use xlink:href="#DejaVuSans-38" x="95.410156"/>
       <use xlink:href="#DejaVuSans-30" x="159.033203"/>
       <use xlink:href="#DejaVuSans-30" x="222.65625"/>
      </g>
     </g>
    </g>
    <g id="ytick_4">
     <g id="line2d_10">
      <g>
       <use xlink:href="#m3eda646846" x="57.6" y="152.822993" style="stroke: #000000; stroke-width: 0.8"/>
      </g>
     </g>
     <g id="text_10">
      <!-- 1,850 -->
      <g transform="translate(21.971875 156.622212)scale(0.1 -0.1)">
       <use xlink:href="#DejaVuSans-31"/>
       <use xlink:href="#DejaVuSans-2c" x="63.623047"/>
       <use xlink:href="#DejaVuSans-38" x="95.410156"/>
       <use xlink:href="#DejaVuSans-35" x="159.033203"/>
       <use xlink:href="#DejaVuSans-30" x="222.65625"/>
      </g>
     </g>
    </g>
    <g id="ytick_5">
     <g id="line2d_11">
      <g>
       <use xlink:href="#m3eda646846" x="57.6" y="110.407084" style="stroke: #000000; stroke-width: 0.8"/>
      </g>
     </g>
     <g id="text_11">
      <!-- 1,900 -->
      <g transform="translate(21.971875 114.206303)scale(0.1 -0.1)">
       <defs>
        <path id="DejaVuSans-39" d="M 703 97 
L 703 672 
Q 941 559 1184 500 
Q 1428 441 1663 441 
Q 2288 441 2617 861 
Q 2947 1281 2994 2138 
Q 2813 1869 2534 1725 
Q 2256 1581 1919 1581 
Q 1219 1581 811 2004 
Q 403 2428 403 3163 
Q 403 3881 828 4315 
Q 1253 4750 1959 4750 
Q 2769 4750 3195 4129 
Q 3622 3509 3622 2328 
Q 3622 1225 3098 567 
Q 2575 -91 1691 -91 
Q 1453 -91 1209 -44 
Q 966 3 703 97 
z
M 1959 2075 
Q 2384 2075 2632 2365 
Q 2881 2656 2881 3163 
Q 2881 3666 2632 3958 
Q 2384 4250 1959 4250 
Q 1534 4250 1286 3958 
Q 1038 3666 1038 3163 
Q 1038 2656 1286 2365 
Q 1534 2075 1959 2075 
z
" transform="scale(0.015625)"/>
       </defs>
       <use xlink:href="#DejaVuSans-31"/>
       <use xlink:href="#DejaVuSans-2c" x="63.623047"/>
       <use xlink:href="#DejaVuSans-39" x="95.410156"/>
       <use xlink:href="#DejaVuSans-30" x="159.033203"/>
       <use xlink:href="#DejaVuSans-30" x="222.65625"/>
      </g>
     </g>
    </g>
    <g id="ytick_6">
     <g id="line2d_12">
      <g>
       <use xlink:href="#m3eda646846" x="57.6" y="67.991175" style="stroke: #000000; stroke-width: 0.8"/>
      </g>
     </g>
     <g id="text_12">
      <!-- 1,950 -->
      <g transform="translate(21.971875 71.790394)scale(0.1 -0.1)">
       <use xlink:href="#DejaVuSans-31"/>
       <use xlink:href="#DejaVuSans-2c" x="63.623047"/>
       <use xlink:href="#DejaVuSans-39" x="95.410156"/>
       <use xlink:href="#DejaVuSans-35" x="159.033203"/>
       <use xlink:href="#DejaVuSans-30" x="222.65625"/>
      </g>
     </g>
    </g>
    <g id="text_13">
     <!-- Gold Price -->
     <g transform="translate(15.892187 199.811594)rotate(-90)scale(0.1 -0.1)">
      <defs>
       <path id="DejaVuSans-47" d="M 3809 666 
L 3809 1919 
L 2778 1919 
L 2778 2438 
L 4434 2438 
L 4434 434 
Q 4069 175 3628 42 
Q 3188 -91 2688 -91 
Q 1594 -91 976 548 
Q 359 1188 359 2328 
Q 359 3472 976 4111 
Q 1594 4750 2688 4750 
Q 3144 4750 3555 4637 
Q 3966 4525 4313 4306 
L 4313 3634 
Q 3963 3931 3569 4081 
Q 3175 4231 2741 4231 
Q 1884 4231 1454 3753 
Q 1025 3275 1025 2328 
Q 1025 1384 1454 906 
Q 1884 428 2741 428 
Q 3075 428 3337 486 
Q 3600 544 3809 666 
z
" transform="scale(0.015625)"/>
       <path id="DejaVuSans-6f" d="M 1959 3097 
Q 1497 3097 1228 2736 
Q 959 2375 959 1747 
Q 959 1119 1226 758 
Q 1494 397 1959 397 
Q 2419 397 2687 759 
Q 2956 1122 2956 1747 
Q 2956 2369 2687 2733 
Q 2419 3097 1959 3097 
z
M 1959 3584 
Q 2709 3584 3137 3096 
Q 3566 2609 3566 1747 
Q 3566 888 3137 398 
Q 2709 -91 1959 -91 
Q 1206 -91 779 398 
Q 353 888 353 1747 
Q 353 2609 779 3096 
Q 1206 3584 1959 3584 
z
" transform="scale(0.015625)"/>
       <path id="DejaVuSans-6c" d="M 603 4863 
L 1178 4863 
L 1178 0 
L 603 0 
L 603 4863 
z
" transform="scale(0.015625)"/>
       <path id="DejaVuSans-64" d="M 2906 2969 
L 2906 4863 
L 3481 4863 
L 3481 0 
L 2906 0 
L 2906 525 
Q 2725 213 2448 61 
Q 2172 -91 1784 -91 
Q 1150 -91 751 415 
Q 353 922 353 1747 
Q 353 2572 751 3078 
Q 1150 3584 1784 3584 
Q 2172 3584 2448 3432 
Q 2725 3281 2906 2969 
z
M 947 1747 
Q 947 1113 1208 752 
Q 1469 391 1925 391 
Q 2381 391 2643 752 
Q 2906 1113 2906 1747 
Q 2906 2381 2643 2742 
Q 2381 3103 1925 3103 
Q 1469 3103 1208 2742 
Q 947 2381 947 1747 
z
" transform="scale(0.015625)"/>
       <path id="DejaVuSans-20" transform="scale(0.015625)"/>
       <path id="DejaVuSans-50" d="M 1259 4147 
L 1259 2394 
L 2053 2394 
Q 2494 2394 2734 2622 
Q 2975 2850 2975 3272 
Q 2975 3691 2734 3919 
Q 2494 4147 2053 4147 
L 1259 4147 
z
M 628 4666 
L 2053 4666 
Q 2838 4666 3239 4311 
Q 3641 3956 3641 3272 
Q 3641 2581 3239 2228 
Q 2838 1875 2053 1875 
L 1259 1875 
L 1259 0 
L 628 0 
L 628 4666 
z
" transform="scale(0.015625)"/>
       <path id="DejaVuSans-72" d="M 2631 2963 
Q 2534 3019 2420 3045 
Q 2306 3072 2169 3072 
Q 1681 3072 1420 2755 
Q 1159 2438 1159 1844 
L 1159 0 
L 581 0 
L 581 3500 
L 1159 3500 
L 1159 2956 
Q 1341 3275 1631 3429 
Q 1922 3584 2338 3584 
Q 2397 3584 2469 3576 
Q 2541 3569 2628 3553 
L 2631 2963 
z
" transform="scale(0.015625)"/>
       <path id="DejaVuSans-69" d="M 603 3500 
L 1178 3500 
L 1178 0 
L 603 0 
L 603 3500 
z
M 603 4863 
L 1178 4863 
L 1178 4134 
L 603 4134 
L 603 4863 
z
" transform="scale(0.015625)"/>
       <path id="DejaVuSans-63" d="M 3122 3366 
L 3122 2828 
Q 2878 2963 2633 3030 
Q 2388 3097 2138 3097 
Q 1578 3097 1268 2742 
Q 959 2388 959 1747 
Q 959 1106 1268 751 
Q 1578 397 2138 397 
Q 2388 397 2633 464 
Q 2878 531 3122 666 
L 3122 134 
Q 2881 22 2623 -34 
Q 2366 -91 2075 -91 
Q 1284 -91 818 406 
Q 353 903 353 1747 
Q 353 2603 823 3093 
Q 1294 3584 2113 3584 
Q 2378 3584 2631 3529 
Q 2884 3475 3122 3366 
z
" transform="scale(0.015625)"/>
       <path id="DejaVuSans-65" d="M 3597 1894 
L 3597 1613 
L 953 1613 
Q 991 1019 1311 708 
Q 1631 397 2203 397 
Q 2534 397 2845 478 
Q 3156 559 3463 722 
L 3463 178 
Q 3153 47 2828 -22 
Q 2503 -91 2169 -91 
Q 1331 -91 842 396 
Q 353 884 353 1716 
Q 353 2575 817 3079 
Q 1281 3584 2069 3584 
Q 2775 3584 3186 3129 
Q 3597 2675 3597 1894 
z
M 3022 2063 
Q 3016 2534 2758 2815 
Q 2500 3097 2075 3097 
Q 1594 3097 1305 2825 
Q 1016 2553 972 2059 
L 3022 2063 
z
" transform="scale(0.015625)"/>
      </defs>
      <use xlink:href="#DejaVuSans-47"/>
      <use xlink:href="#DejaVuSans-6f" x="77.490234"/>
      <use xlink:href="#DejaVuSans-6c" x="138.671875"/>
      <use xlink:href="#DejaVuSans-64" x="166.455078"/>
      <use xlink:href="#DejaVuSans-20" x="229.931641"/>
      <use xlink:href="#DejaVuSans-50" x="261.71875"/>
      <use xlink:href="#DejaVuSans-72" x="320.271484"/>
      <use xlink:href="#DejaVuSans-69" x="361.384766"/>
      <use xlink:href="#DejaVuSans-63" x="389.167969"/>
      <use xlink:href="#DejaVuSans-65" x="444.148438"/>
     </g>
    </g>
   </g>
   <g id="line2d_13">
    <path d="M 73.832727 53.568 
L 75.121039 55.251008 
L 76.409351 64.450632 
L 77.697662 63.454942 
L 78.985974 61.122146 
L 80.274286 68.125057 
L 81.562597 74.118747 
L 82.850909 86.868549 
L 84.139221 109.164196 
L 85.427532 125.308195 
L 86.715844 144.06056 
L 88.004156 147.763407 
L 89.292468 142.218901 
L 90.580779 128.293781 
L 91.869091 116.776105 
L 93.157403 109.694438 
L 94.445714 103.44424 
L 95.734026 101.209675 
L 97.022338 97.362958 
L 99.598961 125.639492 
L 102.175584 80.808221 
L 103.463896 101.127859 
L 104.752208 112.794412 
L 106.040519 109.436987 
L 107.328831 110.566358 
L 108.617143 103.494259 
L 109.905455 106.478268 
L 111.193766 98.130875 
L 112.482078 96.170071 
L 113.77039 108.606004 
L 115.058701 110.150012 
L 116.347013 107.129341 
L 117.635325 121.72206 
L 118.923636 140.339106 
L 120.211948 131.430145 
L 122.788571 105.226563 
L 124.076883 101.760708 
L 125.365195 88.592057 
L 126.653506 68.415313 
L 127.941818 108.314399 
L 129.23013 144.504761 
L 130.518442 141.027817 
L 131.806753 137.112475 
L 133.095065 120.921693 
L 134.383377 114.960597 
L 135.671688 118.777882 
L 136.96 124.746143 
L 138.248312 141.066049 
L 139.536623 140.368746 
L 140.824935 146.271998 
L 142.113247 185.835235 
L 143.401558 199.812223 
L 144.68987 188.500029 
L 145.978182 201.720615 
L 147.266494 225.803347 
L 148.554805 206.492096 
L 149.843117 170.968218 
L 151.131429 162.725422 
L 152.41974 157.83299 
L 153.708052 145.529063 
L 154.996364 134.385708 
L 156.284675 146.48732 
L 157.572987 161.269581 
L 158.861299 159.40482 
L 160.14961 164.005506 
L 161.437922 159.527996 
L 162.726234 147.445862 
L 164.014545 127.402832 
L 165.302857 114.91858 
L 166.591169 124.334708 
L 167.879481 128.363382 
L 170.456104 129.940716 
L 171.744416 131.145221 
L 174.321039 124.111804 
L 175.609351 87.990348 
L 176.897662 61.740917 
L 178.185974 74.162201 
L 179.474286 89.727681 
L 182.050909 160.568127 
L 183.339221 165.253241 
L 184.627532 152.273342 
L 185.915844 149.949661 
L 187.204156 161.38493 
L 188.492468 165.959943 
L 189.780779 166.305674 
L 191.069091 153.22138 
L 192.357403 138.55297 
L 193.645714 142.827054 
L 194.934026 148.170607 
L 196.222338 145.769389 
L 197.510649 152.476349 
L 198.798961 154.357181 
L 200.087273 142.213095 
L 201.375584 137.123124 
L 202.663896 155.081442 
L 203.952208 170.273682 
L 205.240519 191.909839 
L 206.528831 206.20132 
L 207.817143 176.021589 
L 209.105455 153.851833 
L 210.393766 154.704587 
L 211.682078 157.93755 
L 212.97039 172.329001 
L 214.258701 184.241454 
L 215.547013 193.235295 
L 216.835325 210.108321 
L 218.123636 218.982084 
L 219.411948 212.631571 
L 220.70026 192.77127 
L 221.988571 186.296292 
L 223.276883 199.686972 
L 224.565195 211.376625 
L 227.141818 254.789573 
L 228.43013 260.373602 
L 229.718442 267.875719 
L 231.006753 272.179339 
L 232.295065 277.894854 
L 233.583377 289.810613 
L 234.871688 277.62068 
L 236.16 260.063887 
L 237.448312 258.207228 
L 238.736623 266.917948 
L 240.024935 267.930717 
L 241.313247 251.128517 
L 242.601558 247.949015 
L 243.88987 255.562925 
L 245.178182 253.246651 
L 246.466494 247.045364 
L 247.754805 252.257814 
L 249.043117 256.174934 
L 250.331429 249.540851 
L 251.61974 248.325841 
L 252.908052 265.697891 
L 254.196364 290.722258 
L 255.484675 295.488 
L 256.772987 269.019114 
L 258.061299 239.706296 
L 259.34961 237.474269 
L 261.926234 236.441283 
L 263.214545 249.262149 
L 264.502857 246.049775 
L 265.791169 242.485934 
L 267.079481 238.315716 
L 268.367792 218.330047 
L 269.656104 210.209001 
L 270.944416 212.147296 
L 272.232727 201.463036 
L 273.521039 196.635274 
L 274.809351 207.428478 
L 276.097662 215.865615 
L 277.385974 213.079604 
L 278.674286 212.305566 
L 279.962597 223.717843 
L 281.250909 225.975991 
L 282.539221 205.661257 
L 283.827532 197.629957 
L 285.115844 192.96144 
L 286.404156 166.096033 
L 287.692468 153.357292 
L 288.980779 162.409566 
L 290.269091 170.085324 
L 291.557403 173.174072 
L 292.845714 168.393933 
L 294.134026 151.097853 
L 296.710649 121.851122 
L 297.998961 118.571332 
L 299.287273 128.414239 
L 300.575584 128.55237 
L 301.863896 121.579931 
L 303.152208 111.556695 
L 304.440519 110.298932 
L 305.728831 112.062955 
L 307.017143 108.376042 
L 308.305455 106.938024 
L 309.593766 124.759638 
L 310.882078 131.349198 
L 312.17039 116.852559 
L 313.458701 114.367544 
L 314.747013 113.223702 
L 316.035325 115.808482 
L 317.323636 123.450639 
L 318.611948 135.016632 
L 319.90026 142.025319 
L 321.188571 142.352267 
L 323.765195 230.942948 
L 325.053506 224.607467 
L 327.63013 206.278414 
L 328.918442 201.364489 
L 330.206753 205.5178 
L 331.495065 208.819606 
L 332.783377 224.583853 
L 334.071688 233.074804 
L 335.36 216.545043 
L 336.648312 202.941581 
L 337.936623 200.298638 
L 339.224935 190.157652 
L 340.513247 184.175336 
L 341.801558 187.553041 
L 343.08987 188.11816 
L 344.378182 195.875144 
L 345.666494 191.918785 
L 346.954805 174.43264 
L 348.243117 170.029013 
L 349.531429 172.392175 
L 350.81974 177.94117 
L 352.108052 178.696495 
L 353.396364 184.48791 
L 354.684675 196.649877 
L 355.972987 196.761643 
L 357.261299 194.122008 
L 358.54961 193.488675 
L 359.837922 195.433548 
L 362.414545 164.927494 
L 363.702857 176.975641 
L 364.991169 186.571017 
L 366.279481 175.684902 
L 367.567792 180.628916 
L 368.856104 216.760702 
L 370.144416 247.838382 
L 371.432727 262.110038 
L 372.721039 253.738441 
L 376.585974 204.187866 
L 377.874286 198.953011 
L 380.450909 209.512213 
L 381.739221 211.525508 
L 383.027532 200.438507 
L 384.315844 184.719794 
L 385.604156 193.542385 
L 386.892468 207.714966 
L 388.180779 201.347545 
L 389.469091 184.564095 
L 390.757403 178.577013 
L 392.045714 182.466443 
L 394.622338 172.612783 
L 395.910649 184.961301 
L 397.198961 204.349604 
L 398.487273 209.52901 
L 398.487273 209.52901 
" clip-path="url(#p2e5ed1b633)" style="fill: none; stroke: #1f77b4; stroke-width: 1.5; stroke-linecap: square"/>
   </g>
   <g id="line2d_14">
    <path d="M 73.832727 70.196802 
L 75.121039 60.610807 
L 76.409351 68.542582 
L 77.697662 57.98102 
L 78.985974 79.65555 
L 80.274286 67.270105 
L 81.562597 102.475309 
L 82.850909 105.317175 
L 84.139221 132.972348 
L 85.427532 142.855255 
L 86.715844 144.594307 
L 88.004156 140.692043 
L 89.292468 124.022591 
L 90.580779 121.520052 
L 91.869091 108.710448 
L 93.157403 107.819714 
L 94.445714 102.26323 
L 95.734026 99.03962 
L 97.022338 123.556016 
L 98.310649 121.053477 
L 99.598961 90.683686 
L 100.887273 88.77497 
L 102.175584 117.787452 
L 103.463896 101.881486 
L 104.752208 117.278461 
L 106.040519 106.123077 
L 107.328831 105.656502 
L 108.617143 111.764393 
L 109.905455 89.9202 
L 111.193766 109.601182 
L 112.482078 107.310723 
L 113.77039 111.721977 
L 115.058701 105.57167 
L 116.347013 135.899045 
L 117.635325 135.602134 
L 118.923636 125.804059 
L 120.211948 118.975098 
L 121.50026 103.366043 
L 122.788571 110.279836 
L 124.076883 77.78925 
L 125.365195 75.795702 
L 126.653506 138.147089 
L 127.941818 128.476261 
L 129.23013 143.533909 
L 130.518442 131.742286 
L 131.806753 118.12678 
L 133.095065 122.622866 
L 134.383377 119.696168 
L 135.671688 130.681889 
L 136.96 146.587855 
L 138.248312 131.021216 
L 139.536623 161.136511 
L 140.824935 195.57823 
L 142.113247 186.586057 
L 143.401558 188.961348 
L 144.68987 212.799089 
L 145.978182 227.008418 
L 147.266494 186.119482 
L 148.554805 176.066911 
L 149.843117 167.795809 
L 151.131429 158.76122 
L 152.41974 144.382227 
L 153.708052 137.426018 
L 154.996364 159.821618 
L 156.284675 157.615991 
L 157.572987 159.609539 
L 158.861299 168.813791 
L 160.14961 152.271586 
L 161.437922 151.168773 
L 162.726234 118.254027 
L 164.014545 127.585527 
L 165.302857 127.373448 
L 166.591169 129.83357 
L 167.879481 131.615039 
L 170.456104 132.208861 
L 171.744416 120.92623 
L 174.321039 73.759739 
L 175.609351 76.177445 
L 176.897662 83.303318 
L 178.185974 93.355889 
L 179.474286 141.879689 
L 180.762597 155.155868 
L 182.050909 160.245777 
L 183.339221 145.315377 
L 184.627532 159.821618 
L 185.915844 162.154493 
L 187.204156 167.201986 
L 188.492468 165.802261 
L 189.780779 147.224093 
L 191.069091 142.558343 
L 192.357403 150.532534 
L 193.645714 147.012014 
L 194.934026 147.224093 
L 196.222338 158.76122 
L 198.798961 141.116202 
L 200.087273 141.837273 
L 201.375584 167.15957 
L 202.663896 165.166023 
L 203.952208 207.200189 
L 205.240519 192.736364 
L 206.528831 165.335686 
L 207.817143 161.645502 
L 209.105455 159.058132 
L 210.393766 161.221343 
L 211.682078 181.3689 
L 212.97039 180.562998 
L 214.258701 200.116732 
L 215.547013 211.611443 
L 216.835325 218.016245 
L 218.123636 206.945693 
L 219.411948 188.918932 
L 220.70026 195.535814 
L 221.988571 205.41872 
L 223.276883 212.502177 
L 224.565195 243.720286 
L 225.853506 251.100655 
L 227.141818 259.838332 
L 228.43013 270.399893 
L 229.718442 269.806071 
L 231.006753 283.251914 
L 232.295065 291.056441 
L 233.583377 265.734143 
L 234.871688 266.327966 
L 236.16 259.499005 
L 237.448312 275.998793 
L 238.736623 260.007996 
L 240.024935 250.379584 
L 241.313247 254.918086 
L 242.601558 258.09928 
L 243.88987 250.209921 
L 245.178182 249.404018 
L 246.466494 257.844784 
L 247.754805 254.197016 
L 249.043117 248.428452 
L 250.331429 253.094202 
L 251.61974 275.023227 
L 252.908052 293.686227 
L 254.196364 287.663168 
L 255.484675 257.972032 
L 256.772987 242.193314 
L 258.061299 247.792214 
L 259.34961 232.989061 
L 260.637922 245.120011 
L 261.926234 252.203468 
L 263.214545 239.393864 
L 264.502857 249.913009 
L 265.791169 231.546921 
L 267.079481 216.913432 
L 268.367792 216.871016 
L 269.656104 214.02915 
L 270.944416 196.765875 
L 272.232727 205.6308 
L 273.521039 210.678293 
L 274.809351 217.846582 
L 276.097662 208.684745 
L 277.385974 218.822148 
L 278.674286 226.923586 
L 279.962597 222.681996 
L 281.250909 197.147618 
L 282.539221 210.29655 
L 283.827532 184.083518 
L 285.115844 164.232873 
L 286.404156 160.924432 
L 287.692468 170.552843 
L 288.980779 169.195534 
L 290.269091 176.745566 
L 292.845714 149.684216 
L 294.134026 138.613664 
L 295.422338 120.205159 
L 296.710649 128.815589 
L 297.998961 130.851552 
L 299.287273 127.2462 
L 300.575584 121.43522 
L 301.863896 110.619164 
L 303.152208 117.660205 
L 304.440519 110.4495 
L 305.728831 110.958491 
L 307.017143 108.074209 
L 308.305455 138.783327 
L 309.593766 118.381275 
L 310.882078 120.247575 
L 312.17039 116.218064 
L 313.458701 114.988002 
L 314.747013 120.035495 
L 316.035325 126.482714 
L 317.323636 139.58923 
L 318.611948 140.013389 
L 319.90026 143.703573 
L 321.188571 213.30808 
L 322.476883 218.058661 
L 323.765195 216.404441 
L 325.053506 216.404441 
L 326.341818 202.364775 
L 327.63013 208.090923 
L 328.918442 206.56395 
L 330.206753 211.95077 
L 331.495065 233.031477 
L 332.783377 226.499427 
L 334.071688 210.932789 
L 335.36 206.988109 
L 336.648312 202.576855 
L 337.936623 186.882968 
L 339.224935 191.294223 
L 340.513247 188.706852 
L 341.801558 190.148993 
L 343.08987 201.68612 
L 344.378182 183.489695 
L 345.666494 175.55792 
L 348.243117 174.62477 
L 349.531429 182.598961 
L 350.81974 175.685168 
L 352.108052 193.415018 
L 353.396364 195.705477 
L 354.684675 195.57823 
L 355.972987 195.069239 
L 357.261299 194.941991 
L 358.54961 198.123184 
L 359.837922 170.38318 
L 361.126234 173.394709 
L 362.414545 185.525659 
L 363.702857 184.507677 
L 364.991169 170.552843 
L 366.279481 194.602664 
L 367.567792 226.711507 
L 368.856104 247.113559 
L 370.144416 260.262491 
L 371.432727 243.084048 
L 372.721039 239.860439 
L 374.009351 217.422423 
L 375.297662 206.818445 
L 376.585974 204.188659 
L 377.874286 209.278568 
L 379.162597 210.466214 
L 380.450909 213.011168 
L 381.739221 193.542266 
L 383.027532 188.070614 
L 384.315844 204.824898 
L 385.604156 206.606366 
L 386.892468 196.51138 
L 388.180779 182.641377 
L 389.469091 185.228748 
L 390.757403 184.592509 
L 392.045714 175.133761 
L 393.334026 176.91523 
L 394.622338 193.415018 
L 395.910649 207.115357 
L 397.198961 205.206641 
L 398.487273 199.81982 
L 398.487273 199.81982 
" clip-path="url(#p2e5ed1b633)" style="fill: none; stroke: #ff7f0e; stroke-width: 1.5; stroke-linecap: square"/>
   </g>
   <g id="patch_3">
    <path d="M 57.6 307.584 
L 57.6 41.472 
" style="fill: none; stroke: #000000; stroke-width: 0.8; stroke-linejoin: miter; stroke-linecap: square"/>
   </g>
   <g id="patch_4">
    <path d="M 414.72 307.584 
L 414.72 41.472 
" style="fill: none; stroke: #000000; stroke-width: 0.8; stroke-linejoin: miter; stroke-linecap: square"/>
   </g>
   <g id="patch_5">
    <path d="M 57.6 307.584 
L 414.72 307.584 
" style="fill: none; stroke: #000000; stroke-width: 0.8; stroke-linejoin: miter; stroke-linecap: square"/>
   </g>
   <g id="patch_6">
    <path d="M 57.6 41.472 
L 414.72 41.472 
" style="fill: none; stroke: #000000; stroke-width: 0.8; stroke-linejoin: miter; stroke-linecap: square"/>
   </g>
   <g id="legend_1">
    <g id="patch_7">
     <path d="M 298.396563 79.3845 
L 407.72 79.3845 
Q 409.72 79.3845 409.72 77.3845 
L 409.72 48.472 
Q 409.72 46.472 407.72 46.472 
L 298.396563 46.472 
Q 296.396563 46.472 296.396563 48.472 
L 296.396563 77.3845 
Q 296.396563 79.3845 298.396563 79.3845 
z
" style="fill: #ffffff; opacity: 0.8; stroke: #cccccc; stroke-linejoin: miter"/>
    </g>
    <g id="line2d_15">
     <path d="M 300.396563 54.570438 
L 310.396563 54.570438 
L 320.396563 54.570438 
" style="fill: none; stroke: #1f77b4; stroke-width: 1.5; stroke-linecap: square"/>
    </g>
    <g id="text_14">
     <!-- predicted_price -->
     <g transform="translate(328.396563 58.070438)scale(0.1 -0.1)">
      <defs>
       <path id="DejaVuSans-70" d="M 1159 525 
L 1159 -1331 
L 581 -1331 
L 581 3500 
L 1159 3500 
L 1159 2969 
Q 1341 3281 1617 3432 
Q 1894 3584 2278 3584 
Q 2916 3584 3314 3078 
Q 3713 2572 3713 1747 
Q 3713 922 3314 415 
Q 2916 -91 2278 -91 
Q 1894 -91 1617 61 
Q 1341 213 1159 525 
z
M 3116 1747 
Q 3116 2381 2855 2742 
Q 2594 3103 2138 3103 
Q 1681 3103 1420 2742 
Q 1159 2381 1159 1747 
Q 1159 1113 1420 752 
Q 1681 391 2138 391 
Q 2594 391 2855 752 
Q 3116 1113 3116 1747 
z
" transform="scale(0.015625)"/>
       <path id="DejaVuSans-74" d="M 1172 4494 
L 1172 3500 
L 2356 3500 
L 2356 3053 
L 1172 3053 
L 1172 1153 
Q 1172 725 1289 603 
Q 1406 481 1766 481 
L 2356 481 
L 2356 0 
L 1766 0 
Q 1100 0 847 248 
Q 594 497 594 1153 
L 594 3053 
L 172 3053 
L 172 3500 
L 594 3500 
L 594 4494 
L 1172 4494 
z
" transform="scale(0.015625)"/>
       <path id="DejaVuSans-5f" d="M 3263 -1063 
L 3263 -1509 
L -63 -1509 
L -63 -1063 
L 3263 -1063 
z
" transform="scale(0.015625)"/>
      </defs>
      <use xlink:href="#DejaVuSans-70"/>
      <use xlink:href="#DejaVuSans-72" x="63.476562"/>
      <use xlink:href="#DejaVuSans-65" x="102.339844"/>
      <use xlink:href="#DejaVuSans-64" x="163.863281"/>
      <use xlink:href="#DejaVuSans-69" x="227.339844"/>
      <use xlink:href="#DejaVuSans-63" x="255.123047"/>
      <use xlink:href="#DejaVuSans-74" x="310.103516"/>
      <use xlink:href="#DejaVuSans-65" x="349.3125"/>
      <use xlink:href="#DejaVuSans-64" x="410.835938"/>
      <use xlink:href="#DejaVuSans-5f" x="474.3125"/>
      <use xlink:href="#DejaVuSans-70" x="524.3125"/>
      <use xlink:href="#DejaVuSans-72" x="587.789062"/>
      <use xlink:href="#DejaVuSans-69" x="628.902344"/>
      <use xlink:href="#DejaVuSans-63" x="656.685547"/>
      <use xlink:href="#DejaVuSans-65" x="711.666016"/>
     </g>
    </g>
    <g id="line2d_16">
     <path d="M 300.396563 69.526688 
L 310.396563 69.526688 
L 320.396563 69.526688 
" style="fill: none; stroke: #ff7f0e; stroke-width: 1.5; stroke-linecap: square"/>
    </g>
    <g id="text_15">
     <!-- actual_price -->
     <g transform="translate(328.396563 73.026688)scale(0.1 -0.1)">
      <defs>
       <path id="DejaVuSans-61" d="M 2194 1759 
Q 1497 1759 1228 1600 
Q 959 1441 959 1056 
Q 959 750 1161 570 
Q 1363 391 1709 391 
Q 2188 391 2477 730 
Q 2766 1069 2766 1631 
L 2766 1759 
L 2194 1759 
z
M 3341 1997 
L 3341 0 
L 2766 0 
L 2766 531 
Q 2569 213 2275 61 
Q 1981 -91 1556 -91 
Q 1019 -91 701 211 
Q 384 513 384 1019 
Q 384 1609 779 1909 
Q 1175 2209 1959 2209 
L 2766 2209 
L 2766 2266 
Q 2766 2663 2505 2880 
Q 2244 3097 1772 3097 
Q 1472 3097 1187 3025 
Q 903 2953 641 2809 
L 641 3341 
Q 956 3463 1253 3523 
Q 1550 3584 1831 3584 
Q 2591 3584 2966 3190 
Q 3341 2797 3341 1997 
z
" transform="scale(0.015625)"/>
       <path id="DejaVuSans-75" d="M 544 1381 
L 544 3500 
L 1119 3500 
L 1119 1403 
Q 1119 906 1312 657 
Q 1506 409 1894 409 
Q 2359 409 2629 706 
Q 2900 1003 2900 1516 
L 2900 3500 
L 3475 3500 
L 3475 0 
L 2900 0 
L 2900 538 
Q 2691 219 2414 64 
Q 2138 -91 1772 -91 
Q 1169 -91 856 284 
Q 544 659 544 1381 
z
M 1991 3584 
L 1991 3584 
z
" transform="scale(0.015625)"/>
      </defs>
      <use xlink:href="#DejaVuSans-61"/>
      <use xlink:href="#DejaVuSans-63" x="61.279297"/>
      <use xlink:href="#DejaVuSans-74" x="116.259766"/>
      <use xlink:href="#DejaVuSans-75" x="155.46875"/>
      <use xlink:href="#DejaVuSans-61" x="218.847656"/>
      <use xlink:href="#DejaVuSans-6c" x="280.126953"/>
      <use xlink:href="#DejaVuSans-5f" x="307.910156"/>
      <use xlink:href="#DejaVuSans-70" x="357.910156"/>
      <use xlink:href="#DejaVuSans-72" x="421.386719"/>
      <use xlink:href="#DejaVuSans-69" x="462.5"/>
      <use xlink:href="#DejaVuSans-63" x="490.283203"/>
      <use xlink:href="#DejaVuSans-65" x="545.263672"/>
     </g>
    </g>
   </g>
  </g>
 </g>
 <defs>
  <clipPath id="p2e5ed1b633">
   <rect x="57.6" y="41.472" width="357.12" height="266.112"/>
  </clipPath>
 </defs>
</svg>
